<?xml version="1.0" encoding="UTF-8" standalone="no"?>
<!DOCTYPE svg PUBLIC "-//W3C//DTD SVG 1.1//EN"
 "http://www.w3.org/Graphics/SVG/1.1/DTD/svg11.dtd">
<!-- Generated by graphviz version 2.38.0 (20140413.2041)
 -->
<!-- Title: 6eac0394455c7e9e60342abf74b0dd1dd0478f74 Pages: 1 -->
<svg width="532pt" height="374pt"
 viewBox="0.00 0.00 532.00 374.00" xmlns="http://www.w3.org/2000/svg" xmlns:xlink="http://www.w3.org/1999/xlink">
<g id="graph0" class="graph" transform="scale(1 1) rotate(0) translate(4 370)">
<title>6eac0394455c7e9e60342abf74b0dd1dd0478f74</title>
<polygon fill="white" stroke="none" points="-4,4 -4,-370 528,-370 528,4 -4,4"/>
<!-- 000000007f608c0e000000005a70c386 -->
<g id="node1" class="node"><title>000000007f608c0e000000005a70c386</title>
<polygon fill="#fcaf3e" stroke="none" points="8,-230.5 8,-249.5 196,-249.5 196,-230.5 8,-230.5"/>
<polygon fill="none" stroke="black" points="8,-230.5 8,-249.5 196,-249.5 196,-230.5 8,-230.5"/>
<text text-anchor="start" x="73.5" y="-236.9" font-family="Helvetica,sans-Serif" font-size="12.00" fill="#2e3436">ListViewer</text>
<polygon fill="#eeeeec" stroke="none" points="8,-209.5 8,-230.5 196,-230.5 196,-209.5 8,-209.5"/>
<polygon fill="none" stroke="black" points="8,-209.5 8,-230.5 196,-230.5 196,-209.5 8,-209.5"/>
<text text-anchor="start" x="11" y="-216.3" font-family="Times,serif" font-size="14.00"> </text>
<polygon fill="#eeeeec" stroke="none" points="8,-170.5 8,-209.5 196,-209.5 196,-170.5 8,-170.5"/>
<polygon fill="none" stroke="black" points="8,-170.5 8,-209.5 196,-209.5 196,-170.5 8,-170.5"/>
<text text-anchor="start" x="11" y="-198.5" font-family="Helvetica,sans-Serif" font-size="10.00" fill="#2e3436">+view( Request $request )</text>
<text text-anchor="start" x="11" y="-187.5" font-family="Helvetica,sans-Serif" font-size="10.00" fill="#2e3436">&#45;viewElem( Request $r, $headers, $data )</text>
<text text-anchor="start" x="11" y="-176.5" font-family="Helvetica,sans-Serif" font-size="10.00" fill="#2e3436">&#45;viewInput( Request $r, $header, $data )</text>
</g>
<!-- 000000007f608c15000000005a70c386 -->
<g id="node2" class="node"><title>000000007f608c15000000005a70c386</title>
<polygon fill="#729fcf" stroke="none" points="240,-337 240,-356 362,-356 362,-337 240,-337"/>
<polygon fill="none" stroke="black" points="240,-337 240,-356 362,-356 362,-337 240,-337"/>
<text text-anchor="start" x="282" y="-343.4" font-family="Helvetica,sans-Serif" font-size="12.00" fill="#2e3436">Viewer</text>
<polygon fill="#eeeeec" stroke="none" points="240,-316 240,-337 362,-337 362,-316 240,-316"/>
<polygon fill="none" stroke="black" points="240,-316 240,-337 362,-337 362,-316 240,-316"/>
<text text-anchor="start" x="243" y="-322.8" font-family="Times,serif" font-size="14.00"> </text>
<polygon fill="#eeeeec" stroke="none" points="240,-299 240,-316 362,-316 362,-299 240,-299"/>
<polygon fill="none" stroke="black" points="240,-299 240,-316 362,-316 362,-299 240,-299"/>
<text text-anchor="start" x="243" y="-305" font-family="Helvetica,sans-Serif" font-size="10.00" fill="#2e3436">+view( Request $request )</text>
</g>
<!-- 000000007f608c15000000005a70c386&#45;&gt;000000007f608c0e000000005a70c386 -->
<g id="edge1" class="edge"><title>000000007f608c15000000005a70c386&#45;&gt;000000007f608c0e000000005a70c386</title>
<path fill="none" stroke="black" stroke-dasharray="5,2" d="M237.949,-290.405C218.05,-278.856 195.894,-265.996 175.341,-254.067"/>
<polygon fill="black" stroke="black" points="236.217,-293.446 246.622,-295.439 239.731,-287.392 236.217,-293.446"/>
</g>
<!-- 000000007f608c0b000000005a70c386 -->
<g id="node3" class="node"><title>000000007f608c0b000000005a70c386</title>
<polygon fill="#fcaf3e" stroke="none" points="230,-219.5 230,-238.5 372,-238.5 372,-219.5 230,-219.5"/>
<polygon fill="none" stroke="black" points="230,-219.5 230,-238.5 372,-238.5 372,-219.5 230,-219.5"/>
<text text-anchor="start" x="267.5" y="-225.9" font-family="Helvetica,sans-Serif" font-size="12.00" fill="#2e3436">TabularData</text>
<polygon fill="#eeeeec" stroke="none" points="230,-198.5 230,-219.5 372,-219.5 372,-198.5 230,-198.5"/>
<polygon fill="none" stroke="black" points="230,-198.5 230,-219.5 372,-219.5 372,-198.5 230,-198.5"/>
<text text-anchor="start" x="233" y="-205.3" font-family="Times,serif" font-size="14.00"> </text>
<polygon fill="#eeeeec" stroke="none" points="230,-181.5 230,-198.5 372,-198.5 372,-181.5 230,-181.5"/>
<polygon fill="none" stroke="black" points="230,-181.5 230,-198.5 372,-198.5 372,-181.5 230,-181.5"/>
<text text-anchor="start" x="233" y="-187.5" font-family="Helvetica,sans-Serif" font-size="10.00" fill="#2e3436">+__construct( Viewer $viewer )</text>
</g>
<!-- 000000007f608c15000000005a70c386&#45;&gt;000000007f608c0b000000005a70c386 -->
<g id="edge2" class="edge"><title>000000007f608c15000000005a70c386&#45;&gt;000000007f608c0b000000005a70c386</title>
<path fill="none" stroke="black" stroke-dasharray="5,2" d="M301,-295.439C301,-279.142 301,-259.314 301,-243.023"/>
</g>
<!-- 000000007f608c34000000005a70c386 -->
<g id="node4" class="node"><title>000000007f608c34000000005a70c386</title>
<polygon fill="#fcaf3e" stroke="none" points="192,-107.5 192,-126.5 516,-126.5 516,-107.5 192,-107.5"/>
<polygon fill="none" stroke="black" points="192,-107.5 192,-126.5 516,-126.5 516,-107.5 192,-107.5"/>
<text text-anchor="start" x="331" y="-113.9" font-family="Helvetica,sans-Serif" font-size="12.00" fill="#2e3436">Request</text>
<polygon fill="#eeeeec" stroke="none" points="192,-86.5 192,-107.5 516,-107.5 516,-86.5 192,-86.5"/>
<polygon fill="none" stroke="black" points="192,-86.5 192,-107.5 516,-107.5 516,-86.5 192,-86.5"/>
<text text-anchor="start" x="195" y="-93.3" font-family="Times,serif" font-size="14.00"> </text>
<polygon fill="#eeeeec" stroke="none" points="192,-3.5 192,-86.5 516,-86.5 516,-3.5 192,-3.5"/>
<polygon fill="none" stroke="black" points="192,-3.5 192,-86.5 516,-86.5 516,-3.5 192,-3.5"/>
<text text-anchor="start" x="195" y="-75.5" font-family="Helvetica,sans-Serif" font-size="10.00" fill="#2e3436">+__construct( Viewer $viewer, string $apiname, HTMLElement $viewEl )</text>
<text text-anchor="start" x="195" y="-64.5" font-family="Helvetica,sans-Serif" font-size="10.00" fill="#2e3436">+read()</text>
<text text-anchor="start" x="195" y="-53.5" font-family="Helvetica,sans-Serif" font-size="10.00" fill="#2e3436">+update( $data, string $column, $value, $options )</text>
<text text-anchor="start" x="195" y="-42.5" font-family="Helvetica,sans-Serif" font-size="10.00" fill="#2e3436">+create()</text>
<text text-anchor="start" x="195" y="-31.5" font-family="Helvetica,sans-Serif" font-size="10.00" fill="#2e3436">+delete( $data )</text>
<text text-anchor="start" x="195" y="-20.5" font-family="Helvetica,sans-Serif" font-size="10.00" fill="#2e3436">+fetch( $params, $options )</text>
<text text-anchor="start" x="195" y="-9.5" font-family="Helvetica,sans-Serif" font-size="10.00" fill="#2e3436">+view( $data )</text>
</g>
<!-- 000000007f608c15000000005a70c386&#45;&gt;000000007f608c34000000005a70c386 -->
<g id="edge3" class="edge"><title>000000007f608c15000000005a70c386&#45;&gt;000000007f608c34000000005a70c386</title>
<path fill="none" stroke="black" stroke-dasharray="5,2" d="M353.975,-295.491C367.98,-284.3 381.32,-270.35 389,-254 407.092,-215.486 398.203,-168.394 384.86,-131.04"/>
</g>
<!-- 000000007f608c0b000000005a70c386&#45;&gt;000000007f608c34000000005a70c386 -->
<g id="edge4" class="edge"><title>000000007f608c0b000000005a70c386&#45;&gt;000000007f608c34000000005a70c386</title>
<path fill="none" stroke="black" d="M316.245,-168.368C320.541,-156.776 325.323,-143.875 329.999,-131.257"/>
<polygon fill="none" stroke="black" points="312.956,-167.171 312.762,-177.764 319.52,-169.603 312.956,-167.171"/>
</g>
<!-- 000000007f608c30000000005a70c386 -->
<g id="node5" class="node"><title>000000007f608c30000000005a70c386</title>
<polygon fill="#fcaf3e" stroke="none" points="397,-343 397,-362 512,-362 512,-343 397,-343"/>
<polygon fill="none" stroke="black" points="397,-343 397,-362 512,-362 512,-343 397,-343"/>
<text text-anchor="start" x="441" y="-349.4" font-family="Helvetica,sans-Serif" font-size="12.00" fill="#2e3436">Main</text>
<polygon fill="#eeeeec" stroke="none" points="397,-322 397,-343 512,-343 512,-322 397,-322"/>
<polygon fill="none" stroke="black" points="397,-322 397,-343 512,-343 512,-322 397,-322"/>
<text text-anchor="start" x="400" y="-328.8" font-family="Times,serif" font-size="14.00"> </text>
<polygon fill="#eeeeec" stroke="none" points="397,-294 397,-322 512,-322 512,-294 397,-294"/>
<polygon fill="none" stroke="black" points="397,-294 397,-322 512,-322 512,-294 397,-294"/>
<text text-anchor="start" x="400" y="-311" font-family="Helvetica,sans-Serif" font-size="10.00" fill="#2e3436">+__construct()</text>
<text text-anchor="start" x="400" y="-300" font-family="Helvetica,sans-Serif" font-size="10.00" fill="#2e3436">+do_request( $apiname )</text>
</g>
</g>
</svg>
