<?xml version="1.0" encoding="UTF-8" standalone="no"?>
<!DOCTYPE svg PUBLIC "-//W3C//DTD SVG 1.1//EN"
 "http://www.w3.org/Graphics/SVG/1.1/DTD/svg11.dtd">
<!-- Generated by graphviz version 2.38.0 (20140413.2041)
 -->
<!-- Title: bbb1206e600cf3f3aafb915beef3effc7d06f7b9 Pages: 1 -->
<svg width="1123pt" height="590pt"
 viewBox="0.00 0.00 1122.50 590.00" xmlns="http://www.w3.org/2000/svg" xmlns:xlink="http://www.w3.org/1999/xlink">
<g id="graph0" class="graph" transform="scale(1 1) rotate(0) translate(4 586)">
<title>bbb1206e600cf3f3aafb915beef3effc7d06f7b9</title>
<polygon fill="white" stroke="none" points="-4,4 -4,-586 1118.5,-586 1118.5,4 -4,4"/>
<!-- 0000000039d664130000000000ab581c -->
<g id="node1" class="node"><title>0000000039d664130000000000ab581c</title>
<polygon fill="#fcaf3e" stroke="none" points="139.5,-454 139.5,-473 383.5,-473 383.5,-454 139.5,-454"/>
<polygon fill="none" stroke="black" points="139.5,-454 139.5,-473 383.5,-473 383.5,-454 139.5,-454"/>
<text text-anchor="start" x="235.5" y="-460.4" font-family="Helvetica,sans-Serif" font-size="12.00" fill="#2e3436">Database</text>
<polygon fill="#eeeeec" stroke="none" points="139.5,-404 139.5,-454 383.5,-454 383.5,-404 139.5,-404"/>
<polygon fill="none" stroke="black" points="139.5,-404 139.5,-454 383.5,-454 383.5,-404 139.5,-404"/>
<text text-anchor="start" x="142.5" y="-443" font-family="Helvetica,sans-Serif" font-size="10.00" fill="#2e3436">&#45;$host</text>
<text text-anchor="start" x="142.5" y="-432" font-family="Helvetica,sans-Serif" font-size="10.00" fill="#2e3436">&#45;$passwd</text>
<text text-anchor="start" x="142.5" y="-421" font-family="Helvetica,sans-Serif" font-size="10.00" fill="#2e3436">&#45;$username</text>
<text text-anchor="start" x="142.5" y="-410" font-family="Helvetica,sans-Serif" font-size="10.00" fill="#2e3436">&#45;$dbname</text>
<polygon fill="#eeeeec" stroke="none" points="139.5,-387 139.5,-404 383.5,-404 383.5,-387 139.5,-387"/>
<polygon fill="none" stroke="black" points="139.5,-387 139.5,-404 383.5,-404 383.5,-387 139.5,-387"/>
<text text-anchor="start" x="142.5" y="-393" font-family="Helvetica,sans-Serif" font-size="10.00" fill="#2e3436">+__construct( $host, $dbname, $username, $passwd )</text>
</g>
<!-- 0000000039d6640a0000000000ab581c -->
<g id="node4" class="node"><title>0000000039d6640a0000000000ab581c</title>
<polygon fill="#fcaf3e" stroke="none" points="273.5,-302 273.5,-321 457.5,-321 457.5,-302 273.5,-302"/>
<polygon fill="none" stroke="black" points="273.5,-302 273.5,-321 457.5,-321 457.5,-302 273.5,-302"/>
<text text-anchor="start" x="308" y="-308.4" font-family="Helvetica,sans-Serif" font-size="12.00" fill="#2e3436">LayerCommunication</text>
<polygon fill="#eeeeec" stroke="none" points="273.5,-285 273.5,-302 457.5,-302 457.5,-285 273.5,-285"/>
<polygon fill="none" stroke="black" points="273.5,-285 273.5,-302 457.5,-302 457.5,-285 273.5,-285"/>
<text text-anchor="start" x="276.5" y="-291" font-family="Helvetica,sans-Serif" font-size="10.00" fill="#2e3436">&#45;$operator</text>
<polygon fill="#eeeeec" stroke="none" points="273.5,-257 273.5,-285 457.5,-285 457.5,-257 273.5,-257"/>
<polygon fill="none" stroke="black" points="273.5,-257 273.5,-285 457.5,-285 457.5,-257 273.5,-257"/>
<text text-anchor="start" x="276.5" y="-274" font-family="Helvetica,sans-Serif" font-size="10.00" fill="#2e3436">+__construct( Database $db, $modules )</text>
<text text-anchor="start" x="276.5" y="-263" font-family="Helvetica,sans-Serif" font-size="10.00" fill="#2e3436">+otvetchat( $query )</text>
</g>
<!-- 0000000039d664130000000000ab581c&#45;&gt;0000000039d6640a0000000000ab581c -->
<g id="edge3" class="edge"><title>0000000039d664130000000000ab581c&#45;&gt;0000000039d6640a0000000000ab581c</title>
<path fill="none" stroke="black" stroke-dasharray="5,2" d="M296.13,-382.715C310.194,-363.919 326.172,-342.564 339.246,-325.09"/>
</g>
<!-- 0000000039d664200000000000ab581c -->
<g id="node6" class="node"><title>0000000039d664200000000000ab581c</title>
<polygon fill="#fcaf3e" stroke="none" points="8.5,-324 8.5,-343 201.5,-343 201.5,-324 8.5,-324"/>
<polygon fill="none" stroke="black" points="8.5,-324 8.5,-343 201.5,-343 201.5,-324 8.5,-324"/>
<text text-anchor="start" x="66" y="-330.4" font-family="Helvetica,sans-Serif" font-size="12.00" fill="#2e3436">BasicGateway</text>
<polygon fill="#eeeeec" stroke="none" points="8.5,-296 8.5,-324 201.5,-324 201.5,-296 8.5,-296"/>
<polygon fill="none" stroke="black" points="8.5,-296 8.5,-324 201.5,-324 201.5,-296 8.5,-296"/>
<text text-anchor="start" x="11.5" y="-313" font-family="Helvetica,sans-Serif" font-size="10.00" fill="#2e3436">&#45;$db</text>
<text text-anchor="start" x="11.5" y="-302" font-family="Helvetica,sans-Serif" font-size="10.00" fill="#2e3436">&#45;$tablename</text>
<polygon fill="#eeeeec" stroke="none" points="8.5,-235 8.5,-296 201.5,-296 201.5,-235 8.5,-235"/>
<polygon fill="none" stroke="black" points="8.5,-235 8.5,-296 201.5,-296 201.5,-235 8.5,-235"/>
<text text-anchor="start" x="11.5" y="-285" font-family="Helvetica,sans-Serif" font-size="10.00" fill="#2e3436">+__construct( Database $db, $tablename )</text>
<text text-anchor="start" x="11.5" y="-274" font-family="Helvetica,sans-Serif" font-size="10.00" fill="#2e3436">+getAll()</text>
<text text-anchor="start" x="11.5" y="-263" font-family="Helvetica,sans-Serif" font-size="10.00" fill="#2e3436">+update( $data, $col, $val )</text>
<text text-anchor="start" x="11.5" y="-252" font-family="Helvetica,sans-Serif" font-size="10.00" fill="#2e3436">+create()</text>
<text text-anchor="start" x="11.5" y="-241" font-family="Helvetica,sans-Serif" font-size="10.00" fill="#2e3436">+delete( $data )</text>
</g>
<!-- 0000000039d664130000000000ab581c&#45;&gt;0000000039d664200000000000ab581c -->
<g id="edge8" class="edge"><title>0000000039d664130000000000ab581c&#45;&gt;0000000039d664200000000000ab581c</title>
<path fill="none" stroke="black" stroke-dasharray="5,2" d="M209.221,-382.715C196.376,-371.343 182.473,-359.033 169.123,-347.214"/>
</g>
<!-- 0000000039d664320000000000ab581c -->
<g id="node7" class="node"><title>0000000039d664320000000000ab581c</title>
<polygon fill="#fcaf3e" stroke="none" points="141.5,-161 141.5,-180 334.5,-180 334.5,-161 141.5,-161"/>
<polygon fill="none" stroke="black" points="141.5,-161 141.5,-180 334.5,-180 334.5,-161 141.5,-161"/>
<text text-anchor="start" x="206" y="-167.4" font-family="Helvetica,sans-Serif" font-size="12.00" fill="#2e3436">BasicModel</text>
<polygon fill="#eeeeec" stroke="none" points="141.5,-144 141.5,-161 334.5,-161 334.5,-144 141.5,-144"/>
<polygon fill="none" stroke="black" points="141.5,-144 141.5,-161 334.5,-161 334.5,-144 141.5,-144"/>
<text text-anchor="start" x="144.5" y="-150" font-family="Helvetica,sans-Serif" font-size="10.00" fill="#2e3436">&#45;$gateway</text>
<polygon fill="#eeeeec" stroke="none" points="141.5,-116 141.5,-144 334.5,-144 334.5,-116 141.5,-116"/>
<polygon fill="none" stroke="black" points="141.5,-116 141.5,-144 334.5,-144 334.5,-116 141.5,-116"/>
<text text-anchor="start" x="144.5" y="-133" font-family="Helvetica,sans-Serif" font-size="10.00" fill="#2e3436">+__construct( Database $db, $tablename )</text>
<text text-anchor="start" x="144.5" y="-122" font-family="Helvetica,sans-Serif" font-size="10.00" fill="#2e3436">+getValue( $query )</text>
</g>
<!-- 0000000039d664130000000000ab581c&#45;&gt;0000000039d664320000000000ab581c -->
<g id="edge6" class="edge"><title>0000000039d664130000000000ab581c&#45;&gt;0000000039d664320000000000ab581c</title>
<path fill="none" stroke="black" stroke-dasharray="5,2" d="M257.537,-382.764C252.757,-327.001 244.829,-234.509 240.518,-184.21"/>
</g>
<!-- 0000000039d664450000000000ab581c -->
<g id="node11" class="node"><title>0000000039d664450000000000ab581c</title>
<polygon fill="#fcaf3e" stroke="none" points="682.5,-318 682.5,-337 851.5,-337 851.5,-318 682.5,-318"/>
<polygon fill="none" stroke="black" points="682.5,-318 682.5,-337 851.5,-337 851.5,-318 682.5,-318"/>
<text text-anchor="start" x="746.5" y="-324.4" font-family="Helvetica,sans-Serif" font-size="12.00" fill="#2e3436">Mapper</text>
<polygon fill="#eeeeec" stroke="none" points="682.5,-290 682.5,-318 851.5,-318 851.5,-290 682.5,-290"/>
<polygon fill="none" stroke="black" points="682.5,-290 682.5,-318 851.5,-318 851.5,-290 682.5,-290"/>
<text text-anchor="start" x="685.5" y="-307" font-family="Helvetica,sans-Serif" font-size="10.00" fill="#2e3436">&#45;$db</text>
<text text-anchor="start" x="685.5" y="-296" font-family="Helvetica,sans-Serif" font-size="10.00" fill="#2e3436">&#45;$table</text>
<polygon fill="#eeeeec" stroke="none" points="682.5,-240 682.5,-290 851.5,-290 851.5,-240 682.5,-240"/>
<polygon fill="none" stroke="black" points="682.5,-240 682.5,-290 851.5,-290 851.5,-240 682.5,-240"/>
<text text-anchor="start" x="685.5" y="-279" font-family="Helvetica,sans-Serif" font-size="10.00" fill="#2e3436">+__construct( Database $db, $table )</text>
<text text-anchor="start" x="685.5" y="-268" font-family="Helvetica,sans-Serif" font-size="10.00" fill="#2e3436">#fillModel( $module )</text>
<text text-anchor="start" x="685.5" y="-257" font-family="Helvetica,sans-Serif" font-size="10.00" fill="#2e3436">+fabric( Database $db, $name )</text>
<text text-anchor="start" x="685.5" y="-246" font-family="Helvetica,sans-Serif" font-size="10.00" fill="#2e3436">+read( $zaproc )</text>
</g>
<!-- 0000000039d664130000000000ab581c&#45;&gt;0000000039d664450000000000ab581c -->
<g id="edge11" class="edge"><title>0000000039d664130000000000ab581c&#45;&gt;0000000039d664450000000000ab581c</title>
<path fill="none" stroke="black" stroke-dasharray="5,2" d="M391.831,-390.871C403.175,-388.031 414.513,-385.359 425.5,-383 530.527,-360.451 562.86,-381.763 664.5,-347 669.203,-345.392 673.939,-343.569 678.66,-341.588"/>
</g>
<!-- 0000000039d664670000000000ab581c -->
<g id="node2" class="node"><title>0000000039d664670000000000ab581c</title>
<polygon fill="#fcaf3e" stroke="none" points="245.5,-558.5 245.5,-577.5 278.5,-577.5 278.5,-558.5 245.5,-558.5"/>
<polygon fill="none" stroke="black" points="245.5,-558.5 245.5,-577.5 278.5,-577.5 278.5,-558.5 245.5,-558.5"/>
<text text-anchor="start" x="248.5" y="-564.9" font-family="Helvetica,sans-Serif" font-size="12.00" fill="#2e3436">PDO</text>
<polygon fill="#eeeeec" stroke="none" points="245.5,-537.5 245.5,-558.5 278.5,-558.5 278.5,-537.5 245.5,-537.5"/>
<polygon fill="none" stroke="black" points="245.5,-537.5 245.5,-558.5 278.5,-558.5 278.5,-537.5 245.5,-537.5"/>
<text text-anchor="start" x="248.5" y="-544.3" font-family="Times,serif" font-size="14.00"> </text>
<polygon fill="#eeeeec" stroke="none" points="245.5,-516.5 245.5,-537.5 278.5,-537.5 278.5,-516.5 245.5,-516.5"/>
<polygon fill="none" stroke="black" points="245.5,-516.5 245.5,-537.5 278.5,-537.5 278.5,-516.5 245.5,-516.5"/>
<text text-anchor="start" x="248.5" y="-523.3" font-family="Times,serif" font-size="14.00"> </text>
</g>
<!-- 0000000039d664670000000000ab581c&#45;&gt;0000000039d664130000000000ab581c -->
<g id="edge1" class="edge"><title>0000000039d664670000000000ab581c&#45;&gt;0000000039d664130000000000ab581c</title>
<path fill="none" stroke="black" d="M261.5,-502.615C261.5,-494.376 261.5,-485.736 261.5,-477.423"/>
<polygon fill="none" stroke="black" points="258,-502.782 261.5,-512.782 265,-502.782 258,-502.782"/>
</g>
<!-- 0000000039d6643b0000000000ab581c -->
<g id="node3" class="node"><title>0000000039d6643b0000000000ab581c</title>
<polygon fill="#729fcf" stroke="none" points="442.5,-445 442.5,-464 598.5,-464 598.5,-445 442.5,-445"/>
<polygon fill="none" stroke="black" points="442.5,-445 442.5,-464 598.5,-464 598.5,-445 442.5,-445"/>
<text text-anchor="start" x="478.5" y="-451.4" font-family="Helvetica,sans-Serif" font-size="12.00" fill="#2e3436">MogetOtvetchat</text>
<polygon fill="#eeeeec" stroke="none" points="442.5,-424 442.5,-445 598.5,-445 598.5,-424 442.5,-424"/>
<polygon fill="none" stroke="black" points="442.5,-424 442.5,-445 598.5,-445 598.5,-424 442.5,-424"/>
<text text-anchor="start" x="445.5" y="-430.8" font-family="Times,serif" font-size="14.00"> </text>
<polygon fill="#eeeeec" stroke="none" points="442.5,-396 442.5,-424 598.5,-424 598.5,-396 442.5,-396"/>
<polygon fill="none" stroke="black" points="442.5,-396 442.5,-424 598.5,-424 598.5,-396 442.5,-396"/>
<text text-anchor="start" x="445.5" y="-413" font-family="Helvetica,sans-Serif" font-size="10.00" fill="#2e3436">+otvetchat( $zaproc )</text>
<text text-anchor="start" x="445.5" y="-402" font-family="Helvetica,sans-Serif" font-size="10.00" fill="#2e3436">+setNext( MogetOtvetchat $next )</text>
</g>
<!-- 0000000039d6643b0000000000ab581c&#45;&gt;0000000039d6640a0000000000ab581c -->
<g id="edge2" class="edge"><title>0000000039d6643b0000000000ab581c&#45;&gt;0000000039d6640a0000000000ab581c</title>
<path fill="none" stroke="black" stroke-dasharray="5,2" d="M478.963,-391.751C455.917,-371.083 427.419,-345.527 404.749,-325.198"/>
</g>
<!-- 0000000039d6643e0000000000ab581c -->
<g id="node5" class="node"><title>0000000039d6643e0000000000ab581c</title>
<polygon fill="#fcaf3e" stroke="none" points="491.5,-324 491.5,-343 647.5,-343 647.5,-324 491.5,-324"/>
<polygon fill="none" stroke="black" points="491.5,-324 491.5,-343 647.5,-343 647.5,-324 491.5,-324"/>
<text text-anchor="start" x="552.5" y="-330.4" font-family="Helvetica,sans-Serif" font-size="12.00" fill="#2e3436">Model</text>
<polygon fill="#eeeeec" stroke="none" points="491.5,-307 491.5,-324 647.5,-324 647.5,-307 491.5,-307"/>
<polygon fill="none" stroke="black" points="491.5,-307 491.5,-324 647.5,-324 647.5,-307 491.5,-307"/>
<text text-anchor="start" x="494.5" y="-313" font-family="Helvetica,sans-Serif" font-size="10.00" fill="#2e3436">&#45;$next</text>
<polygon fill="#eeeeec" stroke="none" points="491.5,-235 491.5,-307 647.5,-307 647.5,-235 491.5,-235"/>
<polygon fill="none" stroke="black" points="491.5,-235 491.5,-307 647.5,-307 647.5,-235 491.5,-235"/>
<text text-anchor="start" x="494.5" y="-296" font-family="Helvetica,sans-Serif" font-size="10.00" fill="#2e3436">+otvetchat( $zaproc )</text>
<text text-anchor="start" x="494.5" y="-285" font-family="Helvetica,sans-Serif" font-size="10.00" fill="#2e3436">+getValue( $zaproc )</text>
<text text-anchor="start" x="494.5" y="-274" font-family="Helvetica,sans-Serif" font-size="10.00" fill="#2e3436">+setNext( MogetOtvetchat $next )</text>
<text text-anchor="start" x="494.5" y="-263" font-family="Helvetica,sans-Serif" font-size="10.00" fill="#2e3436">+getNext()</text>
<text text-anchor="start" x="494.5" y="-252" font-family="Helvetica,sans-Serif" font-size="10.00" fill="#2e3436">+setName( $name )</text>
<text text-anchor="start" x="494.5" y="-241" font-family="Helvetica,sans-Serif" font-size="10.00" fill="#2e3436">+getName()</text>
</g>
<!-- 0000000039d6643b0000000000ab581c&#45;&gt;0000000039d6643e0000000000ab581c -->
<g id="edge4" class="edge"><title>0000000039d6643b0000000000ab581c&#45;&gt;0000000039d6643e0000000000ab581c</title>
<path fill="none" stroke="black" stroke-dasharray="5,2" d="M537.011,-382.163C540.961,-370.956 545.223,-358.866 549.319,-347.248"/>
<polygon fill="black" stroke="black" points="533.655,-381.156 533.631,-391.751 540.257,-383.483 533.655,-381.156"/>
</g>
<!-- 0000000039d6643e0000000000ab581c&#45;&gt;0000000039d664320000000000ab581c -->
<g id="edge7" class="edge"><title>0000000039d6643e0000000000ab581c&#45;&gt;0000000039d664320000000000ab581c</title>
<path fill="none" stroke="black" d="M474.205,-231.049C426.571,-209.232 381.647,-192.985 342.294,-180.069"/>
<polygon fill="none" stroke="black" points="472.904,-234.304 483.448,-235.337 475.85,-227.954 472.904,-234.304"/>
</g>
<!-- 0000000039d6646d0000000000ab581c -->
<g id="node14" class="node"><title>0000000039d6646d0000000000ab581c</title>
<polygon fill="#fcaf3e" stroke="none" points="510.5,-172 510.5,-191 694.5,-191 694.5,-172 510.5,-172"/>
<polygon fill="none" stroke="black" points="510.5,-172 510.5,-191 694.5,-191 694.5,-172 510.5,-172"/>
<text text-anchor="start" x="560.5" y="-178.4" font-family="Helvetica,sans-Serif" font-size="12.00" fill="#2e3436">StudentAdapter</text>
<polygon fill="#eeeeec" stroke="none" points="510.5,-155 510.5,-172 694.5,-172 694.5,-155 510.5,-155"/>
<polygon fill="none" stroke="black" points="510.5,-155 510.5,-172 694.5,-172 694.5,-155 510.5,-155"/>
<text text-anchor="start" x="513.5" y="-161" font-family="Helvetica,sans-Serif" font-size="10.00" fill="#2e3436">&#45;$mapper</text>
<polygon fill="#eeeeec" stroke="none" points="510.5,-105 510.5,-155 694.5,-155 694.5,-105 510.5,-105"/>
<polygon fill="none" stroke="black" points="510.5,-105 510.5,-155 694.5,-155 694.5,-105 510.5,-105"/>
<text text-anchor="start" x="513.5" y="-144" font-family="Helvetica,sans-Serif" font-size="10.00" fill="#2e3436">+__construct( $name, Mapper $mapper )</text>
<text text-anchor="start" x="513.5" y="-133" font-family="Helvetica,sans-Serif" font-size="10.00" fill="#2e3436">+otvetchat( $zaproc )</text>
<text text-anchor="start" x="513.5" y="-122" font-family="Helvetica,sans-Serif" font-size="10.00" fill="#2e3436">+getValue( $zaproc )</text>
<text text-anchor="start" x="513.5" y="-111" font-family="Helvetica,sans-Serif" font-size="10.00" fill="#2e3436">+fabric( Database $db, $name )</text>
</g>
<!-- 0000000039d6643e0000000000ab581c&#45;&gt;0000000039d6646d0000000000ab581c -->
<g id="edge17" class="edge"><title>0000000039d6643e0000000000ab581c&#45;&gt;0000000039d6646d0000000000ab581c</title>
<path fill="none" stroke="black" d="M585.433,-220.889C587.498,-212.189 589.576,-203.439 591.535,-195.185"/>
<polygon fill="none" stroke="black" points="582.018,-220.123 583.113,-230.661 588.828,-221.74 582.018,-220.123"/>
</g>
<!-- 0000000039d664200000000000ab581c&#45;&gt;0000000039d664320000000000ab581c -->
<g id="edge5" class="edge"><title>0000000039d664200000000000ab581c&#45;&gt;0000000039d664320000000000ab581c</title>
<path fill="none" stroke="black" stroke-dasharray="5,2" d="M159.364,-230.661C174.391,-214.956 190.235,-198.397 203.699,-184.326"/>
</g>
<!-- 0000000039d664680000000000ab581c -->
<g id="node15" class="node"><title>0000000039d664680000000000ab581c</title>
<polygon fill="#fcaf3e" stroke="none" points="61.5,-41.5 61.5,-60.5 158.5,-60.5 158.5,-41.5 61.5,-41.5"/>
<polygon fill="none" stroke="black" points="61.5,-41.5 61.5,-60.5 158.5,-60.5 158.5,-41.5 61.5,-41.5"/>
<text text-anchor="start" x="64.5" y="-47.9" font-family="Helvetica,sans-Serif" font-size="12.00" fill="#2e3436">ProfessorsModel</text>
<polygon fill="#eeeeec" stroke="none" points="61.5,-20.5 61.5,-41.5 158.5,-41.5 158.5,-20.5 61.5,-20.5"/>
<polygon fill="none" stroke="black" points="61.5,-20.5 61.5,-41.5 158.5,-41.5 158.5,-20.5 61.5,-20.5"/>
<text text-anchor="start" x="64.5" y="-27.3" font-family="Times,serif" font-size="14.00"> </text>
<polygon fill="#eeeeec" stroke="none" points="61.5,-3.5 61.5,-20.5 158.5,-20.5 158.5,-3.5 61.5,-3.5"/>
<polygon fill="none" stroke="black" points="61.5,-3.5 61.5,-20.5 158.5,-20.5 158.5,-3.5 61.5,-3.5"/>
<text text-anchor="start" x="64.5" y="-9.5" font-family="Helvetica,sans-Serif" font-size="10.00" fill="#2e3436">+__construct( $db )</text>
</g>
<!-- 0000000039d664320000000000ab581c&#45;&gt;0000000039d664680000000000ab581c -->
<g id="edge18" class="edge"><title>0000000039d664320000000000ab581c&#45;&gt;0000000039d664680000000000ab581c</title>
<path fill="none" stroke="black" d="M190.098,-104.968C175.3,-91.8463 159.231,-77.5974 145.363,-65.3"/>
<polygon fill="none" stroke="black" points="187.897,-107.694 197.702,-111.71 192.542,-102.457 187.897,-107.694"/>
</g>
<!-- 0000000039d6646b0000000000ab581c -->
<g id="node16" class="node"><title>0000000039d6646b0000000000ab581c</title>
<polygon fill="#fcaf3e" stroke="none" points="192.5,-41.5 192.5,-60.5 283.5,-60.5 283.5,-41.5 192.5,-41.5"/>
<polygon fill="none" stroke="black" points="192.5,-41.5 192.5,-60.5 283.5,-60.5 283.5,-41.5 192.5,-41.5"/>
<text text-anchor="start" x="197" y="-47.9" font-family="Helvetica,sans-Serif" font-size="12.00" fill="#2e3436">MaterialsModel</text>
<polygon fill="#eeeeec" stroke="none" points="192.5,-20.5 192.5,-41.5 283.5,-41.5 283.5,-20.5 192.5,-20.5"/>
<polygon fill="none" stroke="black" points="192.5,-20.5 192.5,-41.5 283.5,-41.5 283.5,-20.5 192.5,-20.5"/>
<text text-anchor="start" x="195.5" y="-27.3" font-family="Times,serif" font-size="14.00"> </text>
<polygon fill="#eeeeec" stroke="none" points="192.5,-3.5 192.5,-20.5 283.5,-20.5 283.5,-3.5 192.5,-3.5"/>
<polygon fill="none" stroke="black" points="192.5,-3.5 192.5,-20.5 283.5,-20.5 283.5,-3.5 192.5,-3.5"/>
<text text-anchor="start" x="195.5" y="-9.5" font-family="Helvetica,sans-Serif" font-size="10.00" fill="#2e3436">+__construct( $db )</text>
</g>
<!-- 0000000039d664320000000000ab581c&#45;&gt;0000000039d6646b0000000000ab581c -->
<g id="edge19" class="edge"><title>0000000039d664320000000000ab581c&#45;&gt;0000000039d6646b0000000000ab581c</title>
<path fill="none" stroke="black" d="M237.5,-101.696C237.5,-89.5065 237.5,-76.582 237.5,-65.3"/>
<polygon fill="none" stroke="black" points="234,-101.71 237.5,-111.71 241,-101.71 234,-101.71"/>
</g>
<!-- 0000000039d664660000000000ab581c -->
<g id="node17" class="node"><title>0000000039d664660000000000ab581c</title>
<polygon fill="#fcaf3e" stroke="none" points="317.5,-41.5 317.5,-60.5 416.5,-60.5 416.5,-41.5 317.5,-41.5"/>
<polygon fill="none" stroke="black" points="317.5,-41.5 317.5,-60.5 416.5,-60.5 416.5,-41.5 317.5,-41.5"/>
<text text-anchor="start" x="320.5" y="-47.9" font-family="Helvetica,sans-Serif" font-size="12.00" fill="#2e3436">DisciplinesModel</text>
<polygon fill="#eeeeec" stroke="none" points="317.5,-20.5 317.5,-41.5 416.5,-41.5 416.5,-20.5 317.5,-20.5"/>
<polygon fill="none" stroke="black" points="317.5,-20.5 317.5,-41.5 416.5,-41.5 416.5,-20.5 317.5,-20.5"/>
<text text-anchor="start" x="320.5" y="-27.3" font-family="Times,serif" font-size="14.00"> </text>
<polygon fill="#eeeeec" stroke="none" points="317.5,-3.5 317.5,-20.5 416.5,-20.5 416.5,-3.5 317.5,-3.5"/>
<polygon fill="none" stroke="black" points="317.5,-3.5 317.5,-20.5 416.5,-20.5 416.5,-3.5 317.5,-3.5"/>
<text text-anchor="start" x="320.5" y="-9.5" font-family="Helvetica,sans-Serif" font-size="10.00" fill="#2e3436">+__construct( $db )</text>
</g>
<!-- 0000000039d664320000000000ab581c&#45;&gt;0000000039d664660000000000ab581c -->
<g id="edge20" class="edge"><title>0000000039d664320000000000ab581c&#45;&gt;0000000039d664660000000000ab581c</title>
<path fill="none" stroke="black" d="M285.273,-104.968C300.186,-91.8463 316.381,-77.5974 330.357,-65.3"/>
<polygon fill="none" stroke="black" points="282.805,-102.477 277.609,-111.71 287.429,-107.732 282.805,-102.477"/>
</g>
<!-- 0000000039d6645f0000000000ab581c -->
<g id="node8" class="node"><title>0000000039d6645f0000000000ab581c</title>
<polygon fill="#fcaf3e" stroke="none" points="971.5,-454 971.5,-473 1048.5,-473 1048.5,-454 971.5,-454"/>
<polygon fill="none" stroke="black" points="971.5,-454 971.5,-473 1048.5,-473 1048.5,-454 971.5,-454"/>
<text text-anchor="start" x="974.5" y="-460.4" font-family="Helvetica,sans-Serif" font-size="12.00" fill="#2e3436">TableModule</text>
<polygon fill="#eeeeec" stroke="none" points="971.5,-437 971.5,-454 1048.5,-454 1048.5,-437 971.5,-437"/>
<polygon fill="none" stroke="black" points="971.5,-437 971.5,-454 1048.5,-454 1048.5,-437 971.5,-437"/>
<text text-anchor="start" x="974.5" y="-443" font-family="Helvetica,sans-Serif" font-size="10.00" fill="#2e3436">&#45;$rows</text>
<polygon fill="#eeeeec" stroke="none" points="971.5,-387 971.5,-437 1048.5,-437 1048.5,-387 971.5,-387"/>
<polygon fill="none" stroke="black" points="971.5,-387 971.5,-437 1048.5,-437 1048.5,-387 971.5,-387"/>
<text text-anchor="start" x="974.5" y="-426" font-family="Helvetica,sans-Serif" font-size="10.00" fill="#2e3436">+__construct()</text>
<text text-anchor="start" x="974.5" y="-415" font-family="Helvetica,sans-Serif" font-size="10.00" fill="#2e3436">+add( $row )</text>
<text text-anchor="start" x="974.5" y="-404" font-family="Helvetica,sans-Serif" font-size="10.00" fill="#2e3436">#getRows()</text>
<text text-anchor="start" x="974.5" y="-393" font-family="Helvetica,sans-Serif" font-size="10.00" fill="#2e3436">+view()</text>
</g>
<!-- 0000000039d664590000000000ab581c -->
<g id="node9" class="node"><title>0000000039d664590000000000ab581c</title>
<polygon fill="#fcaf3e" stroke="none" points="1040.5,-298 1040.5,-317 1106.5,-317 1106.5,-298 1040.5,-298"/>
<polygon fill="none" stroke="black" points="1040.5,-298 1040.5,-317 1106.5,-317 1106.5,-298 1040.5,-298"/>
<text text-anchor="start" x="1043.5" y="-304.4" font-family="Helvetica,sans-Serif" font-size="12.00" fill="#2e3436">Disciplines</text>
<polygon fill="#eeeeec" stroke="none" points="1040.5,-277 1040.5,-298 1106.5,-298 1106.5,-277 1040.5,-277"/>
<polygon fill="none" stroke="black" points="1040.5,-277 1040.5,-298 1106.5,-298 1106.5,-277 1040.5,-277"/>
<text text-anchor="start" x="1043.5" y="-283.8" font-family="Times,serif" font-size="14.00"> </text>
<polygon fill="#eeeeec" stroke="none" points="1040.5,-260 1040.5,-277 1106.5,-277 1106.5,-260 1040.5,-260"/>
<polygon fill="none" stroke="black" points="1040.5,-260 1040.5,-277 1106.5,-277 1106.5,-260 1040.5,-260"/>
<text text-anchor="start" x="1043.5" y="-266" font-family="Helvetica,sans-Serif" font-size="10.00" fill="#2e3436">+view()</text>
</g>
<!-- 0000000039d6645f0000000000ab581c&#45;&gt;0000000039d664590000000000ab581c -->
<g id="edge9" class="edge"><title>0000000039d6645f0000000000ab581c&#45;&gt;0000000039d664590000000000ab581c</title>
<path fill="none" stroke="black" d="M1035,-373.615C1043.14,-355.943 1051.86,-337 1058.94,-321.62"/>
<polygon fill="none" stroke="black" points="1031.81,-372.168 1030.81,-382.715 1038.17,-375.095 1031.81,-372.168"/>
</g>
<!-- 0000000039d664500000000000ab581c -->
<g id="node10" class="node"><title>0000000039d664500000000000ab581c</title>
<polygon fill="#fcaf3e" stroke="none" points="885.5,-307 885.5,-326 1006.5,-326 1006.5,-307 885.5,-307"/>
<polygon fill="none" stroke="black" points="885.5,-307 885.5,-326 1006.5,-326 1006.5,-307 885.5,-307"/>
<text text-anchor="start" x="921.5" y="-313.4" font-family="Helvetica,sans-Serif" font-size="12.00" fill="#2e3436">Materials</text>
<polygon fill="#eeeeec" stroke="none" points="885.5,-290 885.5,-307 1006.5,-307 1006.5,-290 885.5,-290"/>
<polygon fill="none" stroke="black" points="885.5,-290 885.5,-307 1006.5,-307 1006.5,-290 885.5,-290"/>
<text text-anchor="start" x="888.5" y="-296" font-family="Helvetica,sans-Serif" font-size="10.00" fill="#2e3436">&#45;$filter</text>
<polygon fill="#eeeeec" stroke="none" points="885.5,-251 885.5,-290 1006.5,-290 1006.5,-251 885.5,-251"/>
<polygon fill="none" stroke="black" points="885.5,-251 885.5,-290 1006.5,-290 1006.5,-251 885.5,-251"/>
<text text-anchor="start" x="888.5" y="-279" font-family="Helvetica,sans-Serif" font-size="10.00" fill="#2e3436">+__construct( $discipline )</text>
<text text-anchor="start" x="888.5" y="-268" font-family="Helvetica,sans-Serif" font-size="10.00" fill="#2e3436">+view()</text>
<text text-anchor="start" x="888.5" y="-257" font-family="Helvetica,sans-Serif" font-size="10.00" fill="#2e3436">+add( $row )</text>
</g>
<!-- 0000000039d6645f0000000000ab581c&#45;&gt;0000000039d664500000000000ab581c -->
<g id="edge10" class="edge"><title>0000000039d6645f0000000000ab581c&#45;&gt;0000000039d664500000000000ab581c</title>
<path fill="none" stroke="black" d="M983.955,-373.519C977.411,-359.307 970.492,-344.279 964.353,-330.947"/>
<polygon fill="none" stroke="black" points="980.827,-375.095 988.189,-382.715 987.186,-372.168 980.827,-375.095"/>
</g>
<!-- 0000000039d664430000000000ab581c -->
<g id="node12" class="node"><title>0000000039d664430000000000ab581c</title>
<polygon fill="#fcaf3e" stroke="none" points="979.5,-161 979.5,-180 1079.5,-180 1079.5,-161 979.5,-161"/>
<polygon fill="none" stroke="black" points="979.5,-161 979.5,-180 1079.5,-180 1079.5,-161 979.5,-161"/>
<text text-anchor="start" x="982.5" y="-167.4" font-family="Helvetica,sans-Serif" font-size="12.00" fill="#2e3436">DisciplineMapper</text>
<polygon fill="#eeeeec" stroke="none" points="979.5,-144 979.5,-161 1079.5,-161 1079.5,-144 979.5,-144"/>
<polygon fill="none" stroke="black" points="979.5,-144 979.5,-161 1079.5,-161 1079.5,-144 979.5,-144"/>
<text text-anchor="start" x="982.5" y="-150" font-family="Helvetica,sans-Serif" font-size="10.00" fill="#2e3436">&#45;$discipline</text>
<polygon fill="#eeeeec" stroke="none" points="979.5,-116 979.5,-144 1079.5,-144 1079.5,-116 979.5,-116"/>
<polygon fill="none" stroke="black" points="979.5,-116 979.5,-144 1079.5,-144 1079.5,-116 979.5,-116"/>
<text text-anchor="start" x="982.5" y="-133" font-family="Helvetica,sans-Serif" font-size="10.00" fill="#2e3436">+__construct( $db )</text>
<text text-anchor="start" x="982.5" y="-122" font-family="Helvetica,sans-Serif" font-size="10.00" fill="#2e3436">+read( $zapoc )</text>
</g>
<!-- 0000000039d664590000000000ab581c&#45;&gt;0000000039d664430000000000ab581c -->
<g id="edge12" class="edge"><title>0000000039d664590000000000ab581c&#45;&gt;0000000039d664430000000000ab581c</title>
<path fill="none" stroke="black" stroke-dasharray="5,2" d="M1063.52,-256.459C1056.72,-234.992 1047.72,-206.556 1040.68,-184.328"/>
</g>
<!-- 0000000039d664790000000000ab581c -->
<g id="node13" class="node"><title>0000000039d664790000000000ab581c</title>
<polygon fill="#fcaf3e" stroke="none" points="762.5,-161 762.5,-180 858.5,-180 858.5,-161 762.5,-161"/>
<polygon fill="none" stroke="black" points="762.5,-161 762.5,-180 858.5,-180 858.5,-161 762.5,-161"/>
<text text-anchor="start" x="765.5" y="-167.4" font-family="Helvetica,sans-Serif" font-size="12.00" fill="#2e3436">MaterialsMapper</text>
<polygon fill="#eeeeec" stroke="none" points="762.5,-144 762.5,-161 858.5,-161 858.5,-144 762.5,-144"/>
<polygon fill="none" stroke="black" points="762.5,-144 762.5,-161 858.5,-161 858.5,-144 762.5,-144"/>
<text text-anchor="start" x="765.5" y="-150" font-family="Helvetica,sans-Serif" font-size="10.00" fill="#2e3436">&#45;$meterials</text>
<polygon fill="#eeeeec" stroke="none" points="762.5,-116 762.5,-144 858.5,-144 858.5,-116 762.5,-116"/>
<polygon fill="none" stroke="black" points="762.5,-116 762.5,-144 858.5,-144 858.5,-116 762.5,-116"/>
<text text-anchor="start" x="765.5" y="-133" font-family="Helvetica,sans-Serif" font-size="10.00" fill="#2e3436">+__construct( $db )</text>
<text text-anchor="start" x="765.5" y="-122" font-family="Helvetica,sans-Serif" font-size="10.00" fill="#2e3436">+read( $zaproc )</text>
</g>
<!-- 0000000039d664500000000000ab581c&#45;&gt;0000000039d664790000000000ab581c -->
<g id="edge14" class="edge"><title>0000000039d664500000000000ab581c&#45;&gt;0000000039d664790000000000ab581c</title>
<path fill="none" stroke="black" stroke-dasharray="5,2" d="M906.09,-247.422C886.633,-227.389 863.387,-203.454 844.69,-184.203"/>
</g>
<!-- 0000000039d664450000000000ab581c&#45;&gt;0000000039d664430000000000ab581c -->
<g id="edge13" class="edge"><title>0000000039d664450000000000ab581c&#45;&gt;0000000039d664430000000000ab581c</title>
<path fill="none" stroke="black" d="M867.256,-231.665C867.671,-231.442 868.086,-231.221 868.5,-231 902.398,-212.905 940.72,-193.351 971.47,-177.878"/>
<polygon fill="none" stroke="black" points="865.578,-228.593 858.431,-236.413 868.895,-234.757 865.578,-228.593"/>
</g>
<!-- 0000000039d664450000000000ab581c&#45;&gt;0000000039d664790000000000ab581c -->
<g id="edge15" class="edge"><title>0000000039d664450000000000ab581c&#45;&gt;0000000039d664790000000000ab581c</title>
<path fill="none" stroke="black" d="M786.005,-226.381C790.561,-211.989 795.262,-197.139 799.312,-184.345"/>
<polygon fill="none" stroke="black" points="782.565,-225.651 782.884,-236.242 789.239,-227.764 782.565,-225.651"/>
</g>
<!-- 0000000039d664450000000000ab581c&#45;&gt;0000000039d6646d0000000000ab581c -->
<g id="edge16" class="edge"><title>0000000039d664450000000000ab581c&#45;&gt;0000000039d6646d0000000000ab581c</title>
<path fill="none" stroke="black" stroke-dasharray="5,2" d="M705.432,-236.242C689.495,-222.734 672.428,-208.268 656.864,-195.077"/>
</g>
</g>
</svg>
