<?xml version="1.0" encoding="UTF-8" standalone="no"?>
<!DOCTYPE svg PUBLIC "-//W3C//DTD SVG 1.1//EN"
 "http://www.w3.org/Graphics/SVG/1.1/DTD/svg11.dtd">
<!-- Generated by graphviz version 2.38.0 (20140413.2041)
 -->
<!-- Title: 4522db359aab6b3236df0ecf38287253ee39af16 Pages: 1 -->
<svg width="1149pt" height="634pt"
 viewBox="0.00 0.00 1149.00 634.00" xmlns="http://www.w3.org/2000/svg" xmlns:xlink="http://www.w3.org/1999/xlink">
<g id="graph0" class="graph" transform="scale(1 1) rotate(0) translate(4 630)">
<title>4522db359aab6b3236df0ecf38287253ee39af16</title>
<polygon fill="white" stroke="none" points="-4,4 -4,-630 1145,-630 1145,4 -4,4"/>
<!-- 0000000027e60997000000003b6020f5 -->
<g id="node1" class="node"><title>0000000027e60997000000003b6020f5</title>
<polygon fill="#fcaf3e" stroke="none" points="438.5,-458 438.5,-477 682.5,-477 682.5,-458 438.5,-458"/>
<polygon fill="none" stroke="black" points="438.5,-458 438.5,-477 682.5,-477 682.5,-458 438.5,-458"/>
<text text-anchor="start" x="534.5" y="-464.4" font-family="Helvetica,sans-Serif" font-size="12.00" fill="#2e3436">Database</text>
<polygon fill="#eeeeec" stroke="none" points="438.5,-408 438.5,-458 682.5,-458 682.5,-408 438.5,-408"/>
<polygon fill="none" stroke="black" points="438.5,-408 438.5,-458 682.5,-458 682.5,-408 438.5,-408"/>
<text text-anchor="start" x="441.5" y="-447" font-family="Helvetica,sans-Serif" font-size="10.00" fill="#2e3436">&#45;$host</text>
<text text-anchor="start" x="441.5" y="-436" font-family="Helvetica,sans-Serif" font-size="10.00" fill="#2e3436">&#45;$passwd</text>
<text text-anchor="start" x="441.5" y="-425" font-family="Helvetica,sans-Serif" font-size="10.00" fill="#2e3436">&#45;$username</text>
<text text-anchor="start" x="441.5" y="-414" font-family="Helvetica,sans-Serif" font-size="10.00" fill="#2e3436">&#45;$dbname</text>
<polygon fill="#eeeeec" stroke="none" points="438.5,-391 438.5,-408 682.5,-408 682.5,-391 438.5,-391"/>
<polygon fill="none" stroke="black" points="438.5,-391 438.5,-408 682.5,-408 682.5,-391 438.5,-391"/>
<text text-anchor="start" x="441.5" y="-397" font-family="Helvetica,sans-Serif" font-size="10.00" fill="#2e3436">+__construct( $host, $dbname, $username, $passwd )</text>
</g>
<!-- 0000000027e609ca000000003b6020f5 -->
<g id="node11" class="node"><title>0000000027e609ca000000003b6020f5</title>
<polygon fill="#fcaf3e" stroke="none" points="476.5,-319 476.5,-338 645.5,-338 645.5,-319 476.5,-319"/>
<polygon fill="none" stroke="black" points="476.5,-319 476.5,-338 645.5,-338 645.5,-319 476.5,-319"/>
<text text-anchor="start" x="540.5" y="-325.4" font-family="Helvetica,sans-Serif" font-size="12.00" fill="#2e3436">Mapper</text>
<polygon fill="#eeeeec" stroke="none" points="476.5,-298 476.5,-319 645.5,-319 645.5,-298 476.5,-298"/>
<polygon fill="none" stroke="black" points="476.5,-298 476.5,-319 645.5,-319 645.5,-298 476.5,-298"/>
<text text-anchor="start" x="479.5" y="-304.8" font-family="Times,serif" font-size="14.00"> </text>
<polygon fill="#eeeeec" stroke="none" points="476.5,-248 476.5,-298 645.5,-298 645.5,-248 476.5,-248"/>
<polygon fill="none" stroke="black" points="476.5,-248 476.5,-298 645.5,-298 645.5,-248 476.5,-248"/>
<text text-anchor="start" x="479.5" y="-287" font-family="Helvetica,sans-Serif" font-size="10.00" fill="#2e3436">+__construct( Database $db, $table )</text>
<text text-anchor="start" x="479.5" y="-276" font-family="Helvetica,sans-Serif" font-size="10.00" fill="#2e3436">#fillModel( $module )</text>
<text text-anchor="start" x="479.5" y="-265" font-family="Helvetica,sans-Serif" font-size="10.00" fill="#2e3436">+fabric( Database $db, $name )</text>
<text text-anchor="start" x="479.5" y="-254" font-family="Helvetica,sans-Serif" font-size="10.00" fill="#2e3436">+read( $zaproc )</text>
</g>
<!-- 0000000027e60997000000003b6020f5&#45;&gt;0000000027e609ca000000003b6020f5 -->
<g id="edge6" class="edge"><title>0000000027e60997000000003b6020f5&#45;&gt;0000000027e609ca000000003b6020f5</title>
<path fill="none" stroke="black" stroke-dasharray="5,2" d="M560.5,-386.715C560.5,-372.5 560.5,-356.82 560.5,-342.463"/>
</g>
<!-- 0000000027e609e9000000003b6020f5 -->
<g id="node2" class="node"><title>0000000027e609e9000000003b6020f5</title>
<polygon fill="#fcaf3e" stroke="none" points="544.5,-582.5 544.5,-601.5 577.5,-601.5 577.5,-582.5 544.5,-582.5"/>
<polygon fill="none" stroke="black" points="544.5,-582.5 544.5,-601.5 577.5,-601.5 577.5,-582.5 544.5,-582.5"/>
<text text-anchor="start" x="547.5" y="-588.9" font-family="Helvetica,sans-Serif" font-size="12.00" fill="#2e3436">PDO</text>
<polygon fill="#eeeeec" stroke="none" points="544.5,-561.5 544.5,-582.5 577.5,-582.5 577.5,-561.5 544.5,-561.5"/>
<polygon fill="none" stroke="black" points="544.5,-561.5 544.5,-582.5 577.5,-582.5 577.5,-561.5 544.5,-561.5"/>
<text text-anchor="start" x="547.5" y="-568.3" font-family="Times,serif" font-size="14.00"> </text>
<polygon fill="#eeeeec" stroke="none" points="544.5,-540.5 544.5,-561.5 577.5,-561.5 577.5,-540.5 544.5,-540.5"/>
<polygon fill="none" stroke="black" points="544.5,-540.5 544.5,-561.5 577.5,-561.5 577.5,-540.5 544.5,-540.5"/>
<text text-anchor="start" x="547.5" y="-547.3" font-family="Times,serif" font-size="14.00"> </text>
</g>
<!-- 0000000027e609e9000000003b6020f5&#45;&gt;0000000027e60997000000003b6020f5 -->
<g id="edge1" class="edge"><title>0000000027e609e9000000003b6020f5&#45;&gt;0000000027e60997000000003b6020f5</title>
<path fill="none" stroke="black" d="M560.5,-526.446C560.5,-511.958 560.5,-495.817 560.5,-481.177"/>
<polygon fill="none" stroke="black" points="557,-526.657 560.5,-536.657 564,-526.657 557,-526.657"/>
</g>
<!-- 0000000027e6098d000000003b6020f5 -->
<g id="node3" class="node"><title>0000000027e6098d000000003b6020f5</title>
<polygon fill="#fcaf3e" stroke="none" points="614.5,-586.5 614.5,-605.5 753.5,-605.5 753.5,-586.5 614.5,-586.5"/>
<polygon fill="none" stroke="black" points="614.5,-586.5 614.5,-605.5 753.5,-605.5 753.5,-586.5 614.5,-586.5"/>
<text text-anchor="start" x="626.5" y="-592.9" font-family="Helvetica,sans-Serif" font-size="12.00" fill="#2e3436">LayerCommunication</text>
<polygon fill="#eeeeec" stroke="none" points="614.5,-565.5 614.5,-586.5 753.5,-586.5 753.5,-565.5 614.5,-565.5"/>
<polygon fill="none" stroke="black" points="614.5,-565.5 614.5,-586.5 753.5,-586.5 753.5,-565.5 614.5,-565.5"/>
<text text-anchor="start" x="617.5" y="-572.3" font-family="Times,serif" font-size="14.00"> </text>
<polygon fill="#eeeeec" stroke="none" points="614.5,-537.5 614.5,-565.5 753.5,-565.5 753.5,-537.5 614.5,-537.5"/>
<polygon fill="none" stroke="black" points="614.5,-537.5 614.5,-565.5 753.5,-565.5 753.5,-537.5 614.5,-537.5"/>
<text text-anchor="start" x="617.5" y="-554.5" font-family="Helvetica,sans-Serif" font-size="10.00" fill="#2e3436">+__construct( $db, $modules )</text>
<text text-anchor="start" x="617.5" y="-543.5" font-family="Helvetica,sans-Serif" font-size="10.00" fill="#2e3436">+otvetchat( $query )</text>
</g>
<!-- 0000000027e609b9000000003b6020f5 -->
<g id="node4" class="node"><title>0000000027e609b9000000003b6020f5</title>
<polygon fill="#fcaf3e" stroke="none" points="177.5,-328 177.5,-347 333.5,-347 333.5,-328 177.5,-328"/>
<polygon fill="none" stroke="black" points="177.5,-328 177.5,-347 333.5,-347 333.5,-328 177.5,-328"/>
<text text-anchor="start" x="238.5" y="-334.4" font-family="Helvetica,sans-Serif" font-size="12.00" fill="#2e3436">Model</text>
<polygon fill="#eeeeec" stroke="none" points="177.5,-311 177.5,-328 333.5,-328 333.5,-311 177.5,-311"/>
<polygon fill="none" stroke="black" points="177.5,-311 177.5,-328 333.5,-328 333.5,-311 177.5,-311"/>
<text text-anchor="start" x="180.5" y="-317" font-family="Helvetica,sans-Serif" font-size="10.00" fill="#2e3436">&#45;$next</text>
<polygon fill="#eeeeec" stroke="none" points="177.5,-239 177.5,-311 333.5,-311 333.5,-239 177.5,-239"/>
<polygon fill="none" stroke="black" points="177.5,-239 177.5,-311 333.5,-311 333.5,-239 177.5,-239"/>
<text text-anchor="start" x="180.5" y="-300" font-family="Helvetica,sans-Serif" font-size="10.00" fill="#2e3436">+otvetchat( $zaproc )</text>
<text text-anchor="start" x="180.5" y="-289" font-family="Helvetica,sans-Serif" font-size="10.00" fill="#2e3436">+getValue( $zaproc )</text>
<text text-anchor="start" x="180.5" y="-278" font-family="Helvetica,sans-Serif" font-size="10.00" fill="#2e3436">+setNext( MogetOtvetchat $next )</text>
<text text-anchor="start" x="180.5" y="-267" font-family="Helvetica,sans-Serif" font-size="10.00" fill="#2e3436">+getNext()</text>
<text text-anchor="start" x="180.5" y="-256" font-family="Helvetica,sans-Serif" font-size="10.00" fill="#2e3436">+setName( $name )</text>
<text text-anchor="start" x="180.5" y="-245" font-family="Helvetica,sans-Serif" font-size="10.00" fill="#2e3436">+getName()</text>
</g>
<!-- 0000000027e609b4000000003b6020f5 -->
<g id="node6" class="node"><title>0000000027e609b4000000003b6020f5</title>
<polygon fill="#fcaf3e" stroke="none" points="110.5,-165 110.5,-184 258.5,-184 258.5,-165 110.5,-165"/>
<polygon fill="none" stroke="black" points="110.5,-165 110.5,-184 258.5,-184 258.5,-165 110.5,-165"/>
<text text-anchor="start" x="152.5" y="-171.4" font-family="Helvetica,sans-Serif" font-size="12.00" fill="#2e3436">BasicModel</text>
<polygon fill="#eeeeec" stroke="none" points="110.5,-144 110.5,-165 258.5,-165 258.5,-144 110.5,-144"/>
<polygon fill="none" stroke="black" points="110.5,-144 110.5,-165 258.5,-165 258.5,-144 110.5,-144"/>
<text text-anchor="start" x="113.5" y="-150.8" font-family="Times,serif" font-size="14.00"> </text>
<polygon fill="#eeeeec" stroke="none" points="110.5,-116 110.5,-144 258.5,-144 258.5,-116 110.5,-116"/>
<polygon fill="none" stroke="black" points="110.5,-116 110.5,-144 258.5,-144 258.5,-116 110.5,-116"/>
<text text-anchor="start" x="113.5" y="-133" font-family="Helvetica,sans-Serif" font-size="10.00" fill="#2e3436">+__construct( $db, $tablename )</text>
<text text-anchor="start" x="113.5" y="-122" font-family="Helvetica,sans-Serif" font-size="10.00" fill="#2e3436">+getValue( $query )</text>
</g>
<!-- 0000000027e609b9000000003b6020f5&#45;&gt;0000000027e609b4000000003b6020f5 -->
<g id="edge3" class="edge"><title>0000000027e609b9000000003b6020f5&#45;&gt;0000000027e609b4000000003b6020f5</title>
<path fill="none" stroke="black" d="M221.948,-225.368C215.491,-212.546 208.949,-199.553 203.178,-188.092"/>
<polygon fill="none" stroke="black" points="218.998,-227.292 226.622,-234.65 225.25,-224.144 218.998,-227.292"/>
</g>
<!-- 0000000027e609ff000000003b6020f5 -->
<g id="node14" class="node"><title>0000000027e609ff000000003b6020f5</title>
<polygon fill="#fcaf3e" stroke="none" points="292.5,-176 292.5,-195 476.5,-195 476.5,-176 292.5,-176"/>
<polygon fill="none" stroke="black" points="292.5,-176 292.5,-195 476.5,-195 476.5,-176 292.5,-176"/>
<text text-anchor="start" x="342.5" y="-182.4" font-family="Helvetica,sans-Serif" font-size="12.00" fill="#2e3436">StudentAdapter</text>
<polygon fill="#eeeeec" stroke="none" points="292.5,-155 292.5,-176 476.5,-176 476.5,-155 292.5,-155"/>
<polygon fill="none" stroke="black" points="292.5,-155 292.5,-176 476.5,-176 476.5,-155 292.5,-155"/>
<text text-anchor="start" x="295.5" y="-161.8" font-family="Times,serif" font-size="14.00"> </text>
<polygon fill="#eeeeec" stroke="none" points="292.5,-105 292.5,-155 476.5,-155 476.5,-105 292.5,-105"/>
<polygon fill="none" stroke="black" points="292.5,-105 292.5,-155 476.5,-155 476.5,-105 292.5,-105"/>
<text text-anchor="start" x="295.5" y="-144" font-family="Helvetica,sans-Serif" font-size="10.00" fill="#2e3436">+__construct( $name, Mapper $mapper )</text>
<text text-anchor="start" x="295.5" y="-133" font-family="Helvetica,sans-Serif" font-size="10.00" fill="#2e3436">+otvetchat( $zaproc )</text>
<text text-anchor="start" x="295.5" y="-122" font-family="Helvetica,sans-Serif" font-size="10.00" fill="#2e3436">+getValue( $zaproc )</text>
<text text-anchor="start" x="295.5" y="-111" font-family="Helvetica,sans-Serif" font-size="10.00" fill="#2e3436">+fabric( Database $db, $name )</text>
</g>
<!-- 0000000027e609b9000000003b6020f5&#45;&gt;0000000027e609ff000000003b6020f5 -->
<g id="edge10" class="edge"><title>0000000027e609b9000000003b6020f5&#45;&gt;0000000027e609ff000000003b6020f5</title>
<path fill="none" stroke="black" d="M314.817,-227.165C323.403,-217.78 332.112,-208.261 340.331,-199.278"/>
<polygon fill="none" stroke="black" points="312.137,-224.909 307.969,-234.65 317.302,-229.634 312.137,-224.909"/>
</g>
<!-- 0000000027e609be000000003b6020f5 -->
<g id="node5" class="node"><title>0000000027e609be000000003b6020f5</title>
<polygon fill="#729fcf" stroke="none" points="177.5,-449 177.5,-468 333.5,-468 333.5,-449 177.5,-449"/>
<polygon fill="none" stroke="black" points="177.5,-449 177.5,-468 333.5,-468 333.5,-449 177.5,-449"/>
<text text-anchor="start" x="213.5" y="-455.4" font-family="Helvetica,sans-Serif" font-size="12.00" fill="#2e3436">MogetOtvetchat</text>
<polygon fill="#eeeeec" stroke="none" points="177.5,-428 177.5,-449 333.5,-449 333.5,-428 177.5,-428"/>
<polygon fill="none" stroke="black" points="177.5,-428 177.5,-449 333.5,-449 333.5,-428 177.5,-428"/>
<text text-anchor="start" x="180.5" y="-434.8" font-family="Times,serif" font-size="14.00"> </text>
<polygon fill="#eeeeec" stroke="none" points="177.5,-400 177.5,-428 333.5,-428 333.5,-400 177.5,-400"/>
<polygon fill="none" stroke="black" points="177.5,-400 177.5,-428 333.5,-428 333.5,-400 177.5,-400"/>
<text text-anchor="start" x="180.5" y="-417" font-family="Helvetica,sans-Serif" font-size="10.00" fill="#2e3436">+otvetchat( $zaproc )</text>
<text text-anchor="start" x="180.5" y="-406" font-family="Helvetica,sans-Serif" font-size="10.00" fill="#2e3436">+setNext( MogetOtvetchat $next )</text>
</g>
<!-- 0000000027e609be000000003b6020f5&#45;&gt;0000000027e609b9000000003b6020f5 -->
<g id="edge2" class="edge"><title>0000000027e609be000000003b6020f5&#45;&gt;0000000027e609b9000000003b6020f5</title>
<path fill="none" stroke="black" stroke-dasharray="5,2" d="M255.5,-385.483C255.5,-374.468 255.5,-362.632 255.5,-351.248"/>
<polygon fill="black" stroke="black" points="252,-385.751 255.5,-395.751 259,-385.751 252,-385.751"/>
</g>
<!-- 0000000027e609f2000000003b6020f5 -->
<g id="node15" class="node"><title>0000000027e609f2000000003b6020f5</title>
<polygon fill="#fcaf3e" stroke="none" points="8.5,-41.5 8.5,-60.5 105.5,-60.5 105.5,-41.5 8.5,-41.5"/>
<polygon fill="none" stroke="black" points="8.5,-41.5 8.5,-60.5 105.5,-60.5 105.5,-41.5 8.5,-41.5"/>
<text text-anchor="start" x="11.5" y="-47.9" font-family="Helvetica,sans-Serif" font-size="12.00" fill="#2e3436">ProfessorsModel</text>
<polygon fill="#eeeeec" stroke="none" points="8.5,-20.5 8.5,-41.5 105.5,-41.5 105.5,-20.5 8.5,-20.5"/>
<polygon fill="none" stroke="black" points="8.5,-20.5 8.5,-41.5 105.5,-41.5 105.5,-20.5 8.5,-20.5"/>
<text text-anchor="start" x="11.5" y="-27.3" font-family="Times,serif" font-size="14.00"> </text>
<polygon fill="#eeeeec" stroke="none" points="8.5,-3.5 8.5,-20.5 105.5,-20.5 105.5,-3.5 8.5,-3.5"/>
<polygon fill="none" stroke="black" points="8.5,-3.5 8.5,-20.5 105.5,-20.5 105.5,-3.5 8.5,-3.5"/>
<text text-anchor="start" x="11.5" y="-9.5" font-family="Helvetica,sans-Serif" font-size="10.00" fill="#2e3436">+__construct( $db )</text>
</g>
<!-- 0000000027e609b4000000003b6020f5&#45;&gt;0000000027e609f2000000003b6020f5 -->
<g id="edge11" class="edge"><title>0000000027e609b4000000003b6020f5&#45;&gt;0000000027e609f2000000003b6020f5</title>
<path fill="none" stroke="black" d="M135.736,-104.998C121.049,-91.7452 105.225,-77.4665 91.6088,-65.1802"/>
<polygon fill="none" stroke="black" points="133.526,-107.719 143.295,-111.819 138.216,-102.522 133.526,-107.719"/>
</g>
<!-- 0000000027e609f5000000003b6020f5 -->
<g id="node16" class="node"><title>0000000027e609f5000000003b6020f5</title>
<polygon fill="#fcaf3e" stroke="none" points="139.5,-41.5 139.5,-60.5 230.5,-60.5 230.5,-41.5 139.5,-41.5"/>
<polygon fill="none" stroke="black" points="139.5,-41.5 139.5,-60.5 230.5,-60.5 230.5,-41.5 139.5,-41.5"/>
<text text-anchor="start" x="144" y="-47.9" font-family="Helvetica,sans-Serif" font-size="12.00" fill="#2e3436">MaterialsModel</text>
<polygon fill="#eeeeec" stroke="none" points="139.5,-20.5 139.5,-41.5 230.5,-41.5 230.5,-20.5 139.5,-20.5"/>
<polygon fill="none" stroke="black" points="139.5,-20.5 139.5,-41.5 230.5,-41.5 230.5,-20.5 139.5,-20.5"/>
<text text-anchor="start" x="142.5" y="-27.3" font-family="Times,serif" font-size="14.00"> </text>
<polygon fill="#eeeeec" stroke="none" points="139.5,-3.5 139.5,-20.5 230.5,-20.5 230.5,-3.5 139.5,-3.5"/>
<polygon fill="none" stroke="black" points="139.5,-3.5 139.5,-20.5 230.5,-20.5 230.5,-3.5 139.5,-3.5"/>
<text text-anchor="start" x="142.5" y="-9.5" font-family="Helvetica,sans-Serif" font-size="10.00" fill="#2e3436">+__construct( $db )</text>
</g>
<!-- 0000000027e609b4000000003b6020f5&#45;&gt;0000000027e609f5000000003b6020f5 -->
<g id="edge12" class="edge"><title>0000000027e609b4000000003b6020f5&#45;&gt;0000000027e609f5000000003b6020f5</title>
<path fill="none" stroke="black" d="M184.5,-101.696C184.5,-89.4008 184.5,-76.452 184.5,-65.1802"/>
<polygon fill="none" stroke="black" points="181,-101.819 184.5,-111.819 188,-101.819 181,-101.819"/>
</g>
<!-- 0000000027e609e8000000003b6020f5 -->
<g id="node17" class="node"><title>0000000027e609e8000000003b6020f5</title>
<polygon fill="#fcaf3e" stroke="none" points="264.5,-41.5 264.5,-60.5 363.5,-60.5 363.5,-41.5 264.5,-41.5"/>
<polygon fill="none" stroke="black" points="264.5,-41.5 264.5,-60.5 363.5,-60.5 363.5,-41.5 264.5,-41.5"/>
<text text-anchor="start" x="267.5" y="-47.9" font-family="Helvetica,sans-Serif" font-size="12.00" fill="#2e3436">DisciplinesModel</text>
<polygon fill="#eeeeec" stroke="none" points="264.5,-20.5 264.5,-41.5 363.5,-41.5 363.5,-20.5 264.5,-20.5"/>
<polygon fill="none" stroke="black" points="264.5,-20.5 264.5,-41.5 363.5,-41.5 363.5,-20.5 264.5,-20.5"/>
<text text-anchor="start" x="267.5" y="-27.3" font-family="Times,serif" font-size="14.00"> </text>
<polygon fill="#eeeeec" stroke="none" points="264.5,-3.5 264.5,-20.5 363.5,-20.5 363.5,-3.5 264.5,-3.5"/>
<polygon fill="none" stroke="black" points="264.5,-3.5 264.5,-20.5 363.5,-20.5 363.5,-3.5 264.5,-3.5"/>
<text text-anchor="start" x="267.5" y="-9.5" font-family="Helvetica,sans-Serif" font-size="10.00" fill="#2e3436">+__construct( $db )</text>
</g>
<!-- 0000000027e609b4000000003b6020f5&#45;&gt;0000000027e609e8000000003b6020f5 -->
<g id="edge13" class="edge"><title>0000000027e609b4000000003b6020f5&#45;&gt;0000000027e609e8000000003b6020f5</title>
<path fill="none" stroke="black" d="M233.645,-104.998C248.447,-91.7452 264.395,-77.4665 278.117,-65.1802"/>
<polygon fill="none" stroke="black" points="231.142,-102.541 226.026,-111.819 235.811,-107.756 231.142,-102.541"/>
</g>
<!-- 0000000027e609a0000000003b6020f5 -->
<g id="node7" class="node"><title>0000000027e609a0000000003b6020f5</title>
<polygon fill="#fcaf3e" stroke="none" points="787.5,-602.5 787.5,-621.5 935.5,-621.5 935.5,-602.5 787.5,-602.5"/>
<polygon fill="none" stroke="black" points="787.5,-602.5 787.5,-621.5 935.5,-621.5 935.5,-602.5 787.5,-602.5"/>
<text text-anchor="start" x="822.5" y="-608.9" font-family="Helvetica,sans-Serif" font-size="12.00" fill="#2e3436">BasicGateway</text>
<polygon fill="#eeeeec" stroke="none" points="787.5,-581.5 787.5,-602.5 935.5,-602.5 935.5,-581.5 787.5,-581.5"/>
<polygon fill="none" stroke="black" points="787.5,-581.5 787.5,-602.5 935.5,-602.5 935.5,-581.5 787.5,-581.5"/>
<text text-anchor="start" x="790.5" y="-588.3" font-family="Times,serif" font-size="14.00"> </text>
<polygon fill="#eeeeec" stroke="none" points="787.5,-520.5 787.5,-581.5 935.5,-581.5 935.5,-520.5 787.5,-520.5"/>
<polygon fill="none" stroke="black" points="787.5,-520.5 787.5,-581.5 935.5,-581.5 935.5,-520.5 787.5,-520.5"/>
<text text-anchor="start" x="790.5" y="-570.5" font-family="Helvetica,sans-Serif" font-size="10.00" fill="#2e3436">+__construct( $db, $tablename )</text>
<text text-anchor="start" x="790.5" y="-559.5" font-family="Helvetica,sans-Serif" font-size="10.00" fill="#2e3436">+getAll()</text>
<text text-anchor="start" x="790.5" y="-548.5" font-family="Helvetica,sans-Serif" font-size="10.00" fill="#2e3436">+update( $data, $col, $val )</text>
<text text-anchor="start" x="790.5" y="-537.5" font-family="Helvetica,sans-Serif" font-size="10.00" fill="#2e3436">+create()</text>
<text text-anchor="start" x="790.5" y="-526.5" font-family="Helvetica,sans-Serif" font-size="10.00" fill="#2e3436">+delete( $data )</text>
</g>
<!-- 0000000027e609a7000000003b6020f5 -->
<g id="node8" class="node"><title>0000000027e609a7000000003b6020f5</title>
<polygon fill="#fcaf3e" stroke="none" points="970.5,-595.5 970.5,-614.5 1047.5,-614.5 1047.5,-595.5 970.5,-595.5"/>
<polygon fill="none" stroke="black" points="970.5,-595.5 970.5,-614.5 1047.5,-614.5 1047.5,-595.5 970.5,-595.5"/>
<text text-anchor="start" x="973.5" y="-601.9" font-family="Helvetica,sans-Serif" font-size="12.00" fill="#2e3436">TableModule</text>
<polygon fill="#eeeeec" stroke="none" points="970.5,-578.5 970.5,-595.5 1047.5,-595.5 1047.5,-578.5 970.5,-578.5"/>
<polygon fill="none" stroke="black" points="970.5,-578.5 970.5,-595.5 1047.5,-595.5 1047.5,-578.5 970.5,-578.5"/>
<text text-anchor="start" x="973.5" y="-584.5" font-family="Helvetica,sans-Serif" font-size="10.00" fill="#2e3436">&#45;$rows</text>
<polygon fill="#eeeeec" stroke="none" points="970.5,-528.5 970.5,-578.5 1047.5,-578.5 1047.5,-528.5 970.5,-528.5"/>
<polygon fill="none" stroke="black" points="970.5,-528.5 970.5,-578.5 1047.5,-578.5 1047.5,-528.5 970.5,-528.5"/>
<text text-anchor="start" x="973.5" y="-567.5" font-family="Helvetica,sans-Serif" font-size="10.00" fill="#2e3436">+__construct()</text>
<text text-anchor="start" x="973.5" y="-556.5" font-family="Helvetica,sans-Serif" font-size="10.00" fill="#2e3436">+add( $row )</text>
<text text-anchor="start" x="973.5" y="-545.5" font-family="Helvetica,sans-Serif" font-size="10.00" fill="#2e3436">#getRows()</text>
<text text-anchor="start" x="973.5" y="-534.5" font-family="Helvetica,sans-Serif" font-size="10.00" fill="#2e3436">+view()</text>
</g>
<!-- 0000000027e609d9000000003b6020f5 -->
<g id="node9" class="node"><title>0000000027e609d9000000003b6020f5</title>
<polygon fill="#fcaf3e" stroke="none" points="911.5,-443 911.5,-462 977.5,-462 977.5,-443 911.5,-443"/>
<polygon fill="none" stroke="black" points="911.5,-443 911.5,-462 977.5,-462 977.5,-443 911.5,-443"/>
<text text-anchor="start" x="914.5" y="-449.4" font-family="Helvetica,sans-Serif" font-size="12.00" fill="#2e3436">Disciplines</text>
<polygon fill="#eeeeec" stroke="none" points="911.5,-422 911.5,-443 977.5,-443 977.5,-422 911.5,-422"/>
<polygon fill="none" stroke="black" points="911.5,-422 911.5,-443 977.5,-443 977.5,-422 911.5,-422"/>
<text text-anchor="start" x="914.5" y="-428.8" font-family="Times,serif" font-size="14.00"> </text>
<polygon fill="#eeeeec" stroke="none" points="911.5,-405 911.5,-422 977.5,-422 977.5,-405 911.5,-405"/>
<polygon fill="none" stroke="black" points="911.5,-405 911.5,-422 977.5,-422 977.5,-405 911.5,-405"/>
<text text-anchor="start" x="914.5" y="-411" font-family="Helvetica,sans-Serif" font-size="10.00" fill="#2e3436">+view()</text>
</g>
<!-- 0000000027e609a7000000003b6020f5&#45;&gt;0000000027e609d9000000003b6020f5 -->
<g id="edge4" class="edge"><title>0000000027e609a7000000003b6020f5&#45;&gt;0000000027e609d9000000003b6020f5</title>
<path fill="none" stroke="black" d="M982.369,-515.177C974.546,-498.612 966.237,-481.021 959.402,-466.55"/>
<polygon fill="none" stroke="black" points="979.218,-516.7 986.654,-524.248 985.548,-513.711 979.218,-516.7"/>
</g>
<!-- 0000000027e609df000000003b6020f5 -->
<g id="node10" class="node"><title>0000000027e609df000000003b6020f5</title>
<polygon fill="#fcaf3e" stroke="none" points="1012.5,-454 1012.5,-473 1133.5,-473 1133.5,-454 1012.5,-454"/>
<polygon fill="none" stroke="black" points="1012.5,-454 1012.5,-473 1133.5,-473 1133.5,-454 1012.5,-454"/>
<text text-anchor="start" x="1048.5" y="-460.4" font-family="Helvetica,sans-Serif" font-size="12.00" fill="#2e3436">Materials</text>
<polygon fill="#eeeeec" stroke="none" points="1012.5,-433 1012.5,-454 1133.5,-454 1133.5,-433 1012.5,-433"/>
<polygon fill="none" stroke="black" points="1012.5,-433 1012.5,-454 1133.5,-454 1133.5,-433 1012.5,-433"/>
<text text-anchor="start" x="1015.5" y="-439.8" font-family="Times,serif" font-size="14.00"> </text>
<polygon fill="#eeeeec" stroke="none" points="1012.5,-394 1012.5,-433 1133.5,-433 1133.5,-394 1012.5,-394"/>
<polygon fill="none" stroke="black" points="1012.5,-394 1012.5,-433 1133.5,-433 1133.5,-394 1012.5,-394"/>
<text text-anchor="start" x="1015.5" y="-422" font-family="Helvetica,sans-Serif" font-size="10.00" fill="#2e3436">+__construct( $discipline )</text>
<text text-anchor="start" x="1015.5" y="-411" font-family="Helvetica,sans-Serif" font-size="10.00" fill="#2e3436">+view()</text>
<text text-anchor="start" x="1015.5" y="-400" font-family="Helvetica,sans-Serif" font-size="10.00" fill="#2e3436">+add( $row )</text>
</g>
<!-- 0000000027e609a7000000003b6020f5&#45;&gt;0000000027e609df000000003b6020f5 -->
<g id="edge5" class="edge"><title>0000000027e609a7000000003b6020f5&#45;&gt;0000000027e609df000000003b6020f5</title>
<path fill="none" stroke="black" d="M1034.75,-514.924C1040.59,-502.553 1046.7,-489.621 1052.26,-477.853"/>
<polygon fill="none" stroke="black" points="1031.45,-513.711 1030.35,-524.248 1037.78,-516.7 1031.45,-513.711"/>
</g>
<!-- 0000000027e609cf000000003b6020f5 -->
<g id="node12" class="node"><title>0000000027e609cf000000003b6020f5</title>
<polygon fill="#fcaf3e" stroke="none" points="510.5,-165 510.5,-184 610.5,-184 610.5,-165 510.5,-165"/>
<polygon fill="none" stroke="black" points="510.5,-165 510.5,-184 610.5,-184 610.5,-165 510.5,-165"/>
<text text-anchor="start" x="513.5" y="-171.4" font-family="Helvetica,sans-Serif" font-size="12.00" fill="#2e3436">DisciplineMapper</text>
<polygon fill="#eeeeec" stroke="none" points="510.5,-144 510.5,-165 610.5,-165 610.5,-144 510.5,-144"/>
<polygon fill="none" stroke="black" points="510.5,-144 510.5,-165 610.5,-165 610.5,-144 510.5,-144"/>
<text text-anchor="start" x="513.5" y="-150.8" font-family="Times,serif" font-size="14.00"> </text>
<polygon fill="#eeeeec" stroke="none" points="510.5,-116 510.5,-144 610.5,-144 610.5,-116 510.5,-116"/>
<polygon fill="none" stroke="black" points="510.5,-116 510.5,-144 610.5,-144 610.5,-116 510.5,-116"/>
<text text-anchor="start" x="513.5" y="-133" font-family="Helvetica,sans-Serif" font-size="10.00" fill="#2e3436">+__construct( $db )</text>
<text text-anchor="start" x="513.5" y="-122" font-family="Helvetica,sans-Serif" font-size="10.00" fill="#2e3436">+read( $zapoc )</text>
</g>
<!-- 0000000027e609ca000000003b6020f5&#45;&gt;0000000027e609cf000000003b6020f5 -->
<g id="edge7" class="edge"><title>0000000027e609ca000000003b6020f5&#45;&gt;0000000027e609cf000000003b6020f5</title>
<path fill="none" stroke="black" d="M560.5,-233.442C560.5,-218.147 560.5,-202.079 560.5,-188.233"/>
<polygon fill="none" stroke="black" points="557,-233.87 560.5,-243.87 564,-233.87 557,-233.87"/>
</g>
<!-- 0000000027e609c4000000003b6020f5 -->
<g id="node13" class="node"><title>0000000027e609c4000000003b6020f5</title>
<polygon fill="#fcaf3e" stroke="none" points="644.5,-165 644.5,-184 740.5,-184 740.5,-165 644.5,-165"/>
<polygon fill="none" stroke="black" points="644.5,-165 644.5,-184 740.5,-184 740.5,-165 644.5,-165"/>
<text text-anchor="start" x="647.5" y="-171.4" font-family="Helvetica,sans-Serif" font-size="12.00" fill="#2e3436">MaterialsMapper</text>
<polygon fill="#eeeeec" stroke="none" points="644.5,-144 644.5,-165 740.5,-165 740.5,-144 644.5,-144"/>
<polygon fill="none" stroke="black" points="644.5,-144 644.5,-165 740.5,-165 740.5,-144 644.5,-144"/>
<text text-anchor="start" x="647.5" y="-150.8" font-family="Times,serif" font-size="14.00"> </text>
<polygon fill="#eeeeec" stroke="none" points="644.5,-116 644.5,-144 740.5,-144 740.5,-116 644.5,-116"/>
<polygon fill="none" stroke="black" points="644.5,-116 644.5,-144 740.5,-144 740.5,-116 644.5,-116"/>
<text text-anchor="start" x="647.5" y="-133" font-family="Helvetica,sans-Serif" font-size="10.00" fill="#2e3436">+__construct( $db )</text>
<text text-anchor="start" x="647.5" y="-122" font-family="Helvetica,sans-Serif" font-size="10.00" fill="#2e3436">+read( $zaproc )</text>
</g>
<!-- 0000000027e609ca000000003b6020f5&#45;&gt;0000000027e609c4000000003b6020f5 -->
<g id="edge8" class="edge"><title>0000000027e609ca000000003b6020f5&#45;&gt;0000000027e609c4000000003b6020f5</title>
<path fill="none" stroke="black" d="M612.44,-236.519C627.605,-220.32 643.808,-203.011 657.643,-188.233"/>
<polygon fill="none" stroke="black" points="609.837,-234.178 605.558,-243.87 614.947,-238.962 609.837,-234.178"/>
</g>
<!-- 0000000027e609ca000000003b6020f5&#45;&gt;0000000027e609ff000000003b6020f5 -->
<g id="edge9" class="edge"><title>0000000027e609ca000000003b6020f5&#45;&gt;0000000027e609ff000000003b6020f5</title>
<path fill="none" stroke="black" stroke-dasharray="5,2" d="M500.423,-243.87C482.399,-229.43 462.631,-213.594 444.605,-199.152"/>
</g>
</g>
</svg>
