<?xml version="1.0" encoding="UTF-8" standalone="no"?>
<!DOCTYPE svg PUBLIC "-//W3C//DTD SVG 1.1//EN"
 "http://www.w3.org/Graphics/SVG/1.1/DTD/svg11.dtd">
<!-- Generated by graphviz version 2.38.0 (20140413.2041)
 -->
<!-- Title: BasicModel Pages: 1 -->
<svg width="309pt" height="425pt"
 viewBox="0.00 0.00 308.50 425.00" xmlns="http://www.w3.org/2000/svg" xmlns:xlink="http://www.w3.org/1999/xlink">
<g id="graph0" class="graph" transform="scale(1 1) rotate(0) translate(4 421)">
<title>BasicModel</title>
<polygon fill="white" stroke="none" points="-4,4 -4,-421 304.5,-421 304.5,4 -4,4"/>
<!-- Node1 -->
<g id="node1" class="node"><title>Node1</title>
<polygon fill="#bfbfbf" stroke="black" points="109,-94.5 109,-162.5 192,-162.5 192,-94.5 109,-94.5"/>
<text text-anchor="middle" x="150.5" y="-150.5" font-family="Helvetica,sans-Serif" font-size="10.00">BasicModel</text>
<polyline fill="none" stroke="black" points="109,-143.5 192,-143.5 "/>
<text text-anchor="start" x="117" y="-131.5" font-family="Helvetica,sans-Serif" font-size="10.00">&#45; $gateway</text>
<polyline fill="none" stroke="black" points="109,-124.5 192,-124.5 "/>
<text text-anchor="start" x="117" y="-112.5" font-family="Helvetica,sans-Serif" font-size="10.00">+ __construct()</text>
<text text-anchor="start" x="117" y="-101.5" font-family="Helvetica,sans-Serif" font-size="10.00">+ getValue()</text>
</g>
<!-- Node4 -->
<g id="node4" class="node"><title>Node4</title>
<g id="a_node4"><a xlink:href="$classDisciplinesModel.html" xlink:title="{DisciplinesModel\n||+ __construct()\l}">
<polygon fill="white" stroke="black" points="0,-0.5 0,-57.5 91,-57.5 91,-0.5 0,-0.5"/>
<text text-anchor="middle" x="45.5" y="-45.5" font-family="Helvetica,sans-Serif" font-size="10.00">DisciplinesModel</text>
<polyline fill="none" stroke="black" points="0,-38.5 91,-38.5 "/>
<text text-anchor="middle" x="45.5" y="-26.5" font-family="Helvetica,sans-Serif" font-size="10.00"> </text>
<polyline fill="none" stroke="black" points="0,-19.5 91,-19.5 "/>
<text text-anchor="start" x="8" y="-7.5" font-family="Helvetica,sans-Serif" font-size="10.00">+ __construct()</text>
</a>
</g>
</g>
<!-- Node1&#45;&gt;Node4 -->
<g id="edge3" class="edge"><title>Node1&#45;&gt;Node4</title>
<path fill="none" stroke="midnightblue" d="M107.587,-87.6518C96.7847,-77.6215 85.4223,-67.0707 75.4132,-57.7765"/>
<polygon fill="none" stroke="midnightblue" points="105.242,-90.2512 114.952,-94.4909 110.005,-85.1216 105.242,-90.2512"/>
</g>
<!-- Node5 -->
<g id="node5" class="node"><title>Node5</title>
<g id="a_node5"><a xlink:href="$classMaterialsModel.html" xlink:title="{MaterialsModel\n||+ __construct()\l}">
<polygon fill="white" stroke="black" points="109,-0.5 109,-57.5 192,-57.5 192,-0.5 109,-0.5"/>
<text text-anchor="middle" x="150.5" y="-45.5" font-family="Helvetica,sans-Serif" font-size="10.00">MaterialsModel</text>
<polyline fill="none" stroke="black" points="109,-38.5 192,-38.5 "/>
<text text-anchor="middle" x="150.5" y="-26.5" font-family="Helvetica,sans-Serif" font-size="10.00"> </text>
<polyline fill="none" stroke="black" points="109,-19.5 192,-19.5 "/>
<text text-anchor="start" x="117" y="-7.5" font-family="Helvetica,sans-Serif" font-size="10.00">+ __construct()</text>
</a>
</g>
</g>
<!-- Node1&#45;&gt;Node5 -->
<g id="edge4" class="edge"><title>Node1&#45;&gt;Node5</title>
<path fill="none" stroke="midnightblue" d="M150.5,-84.4538C150.5,-75.4036 150.5,-66.0876 150.5,-57.7765"/>
<polygon fill="none" stroke="midnightblue" points="147,-84.4909 150.5,-94.4909 154,-84.491 147,-84.4909"/>
</g>
<!-- Node6 -->
<g id="node6" class="node"><title>Node6</title>
<g id="a_node6"><a xlink:href="$classProfessorsModel.html" xlink:title="{ProfessorsModel\n||+ __construct()\l}">
<polygon fill="white" stroke="black" points="210.5,-0.5 210.5,-57.5 300.5,-57.5 300.5,-0.5 210.5,-0.5"/>
<text text-anchor="middle" x="255.5" y="-45.5" font-family="Helvetica,sans-Serif" font-size="10.00">ProfessorsModel</text>
<polyline fill="none" stroke="black" points="210.5,-38.5 300.5,-38.5 "/>
<text text-anchor="middle" x="255.5" y="-26.5" font-family="Helvetica,sans-Serif" font-size="10.00"> </text>
<polyline fill="none" stroke="black" points="210.5,-19.5 300.5,-19.5 "/>
<text text-anchor="start" x="218.5" y="-7.5" font-family="Helvetica,sans-Serif" font-size="10.00">+ __construct()</text>
</a>
</g>
</g>
<!-- Node1&#45;&gt;Node6 -->
<g id="edge5" class="edge"><title>Node1&#45;&gt;Node6</title>
<path fill="none" stroke="midnightblue" d="M193.413,-87.6518C204.215,-77.6215 215.578,-67.0707 225.587,-57.7765"/>
<polygon fill="none" stroke="midnightblue" points="190.995,-85.1216 186.048,-94.4909 195.758,-90.2512 190.995,-85.1216"/>
</g>
<!-- Node2 -->
<g id="node2" class="node"><title>Node2</title>
<g id="a_node2"><a xlink:href="$classModel.html" xlink:title="{Model\n|&#45; $next\l|+ otvetchat()\l+ getValue()\l+ setNext()\l+ getNext()\l+ setName()\l+ getName()\l}">
<polygon fill="white" stroke="black" points="114.5,-199.5 114.5,-311.5 186.5,-311.5 186.5,-199.5 114.5,-199.5"/>
<text text-anchor="middle" x="150.5" y="-299.5" font-family="Helvetica,sans-Serif" font-size="10.00">Model</text>
<polyline fill="none" stroke="black" points="114.5,-292.5 186.5,-292.5 "/>
<text text-anchor="start" x="122.5" y="-280.5" font-family="Helvetica,sans-Serif" font-size="10.00">&#45; $next</text>
<polyline fill="none" stroke="black" points="114.5,-273.5 186.5,-273.5 "/>
<text text-anchor="start" x="122.5" y="-261.5" font-family="Helvetica,sans-Serif" font-size="10.00">+ otvetchat()</text>
<text text-anchor="start" x="122.5" y="-250.5" font-family="Helvetica,sans-Serif" font-size="10.00">+ getValue()</text>
<text text-anchor="start" x="122.5" y="-239.5" font-family="Helvetica,sans-Serif" font-size="10.00">+ setNext()</text>
<text text-anchor="start" x="122.5" y="-228.5" font-family="Helvetica,sans-Serif" font-size="10.00">+ getNext()</text>
<text text-anchor="start" x="122.5" y="-217.5" font-family="Helvetica,sans-Serif" font-size="10.00">+ setName()</text>
<text text-anchor="start" x="122.5" y="-206.5" font-family="Helvetica,sans-Serif" font-size="10.00">+ getName()</text>
</a>
</g>
</g>
<!-- Node2&#45;&gt;Node1 -->
<g id="edge1" class="edge"><title>Node2&#45;&gt;Node1</title>
<path fill="none" stroke="midnightblue" d="M150.5,-189.257C150.5,-179.987 150.5,-170.797 150.5,-162.506"/>
<polygon fill="none" stroke="midnightblue" points="147,-189.309 150.5,-199.309 154,-189.309 147,-189.309"/>
</g>
<!-- Node3 -->
<g id="node3" class="node"><title>Node3</title>
<g id="a_node3"><a xlink:href="$interfaceMogetOtvetchat.html" xlink:title="{MogetOtvetchat\n||+ otvetchat()\l+ setNext()\l}">
<polygon fill="white" stroke="black" points="107.5,-348.5 107.5,-416.5 193.5,-416.5 193.5,-348.5 107.5,-348.5"/>
<text text-anchor="middle" x="150.5" y="-404.5" font-family="Helvetica,sans-Serif" font-size="10.00">MogetOtvetchat</text>
<polyline fill="none" stroke="black" points="107.5,-397.5 193.5,-397.5 "/>
<text text-anchor="middle" x="150.5" y="-385.5" font-family="Helvetica,sans-Serif" font-size="10.00"> </text>
<polyline fill="none" stroke="black" points="107.5,-378.5 193.5,-378.5 "/>
<text text-anchor="start" x="115.5" y="-366.5" font-family="Helvetica,sans-Serif" font-size="10.00">+ otvetchat()</text>
<text text-anchor="start" x="115.5" y="-355.5" font-family="Helvetica,sans-Serif" font-size="10.00">+ setNext()</text>
</a>
</g>
</g>
<!-- Node3&#45;&gt;Node2 -->
<g id="edge2" class="edge"><title>Node3&#45;&gt;Node2</title>
<path fill="none" stroke="midnightblue" d="M150.5,-338.182C150.5,-329.604 150.5,-320.493 150.5,-311.585"/>
<polygon fill="none" stroke="midnightblue" points="147,-338.33 150.5,-348.33 154,-338.331 147,-338.33"/>
</g>
</g>
</svg>
