<?xml version="1.0" encoding="UTF-8" standalone="no"?>
<!DOCTYPE svg PUBLIC "-//W3C//DTD SVG 1.1//EN"
 "http://www.w3.org/Graphics/SVG/1.1/DTD/svg11.dtd">
<!-- Generated by graphviz version 2.38.0 (20140413.2041)
 -->
<!-- Title: BasicModel Pages: 1 -->
<svg width="94pt" height="331pt"
 viewBox="0.00 0.00 94.00 331.00" xmlns="http://www.w3.org/2000/svg" xmlns:xlink="http://www.w3.org/1999/xlink">
<g id="graph0" class="graph" transform="scale(1 1) rotate(0) translate(4 327)">
<title>BasicModel</title>
<polygon fill="white" stroke="none" points="-4,4 -4,-327 90,-327 90,4 -4,4"/>
<!-- Node1 -->
<g id="node1" class="node"><title>Node1</title>
<polygon fill="#bfbfbf" stroke="black" points="1.5,-0.5 1.5,-68.5 84.5,-68.5 84.5,-0.5 1.5,-0.5"/>
<text text-anchor="middle" x="43" y="-56.5" font-family="Helvetica,sans-Serif" font-size="10.00">BasicModel</text>
<polyline fill="none" stroke="black" points="1.5,-49.5 84.5,-49.5 "/>
<text text-anchor="start" x="9.5" y="-37.5" font-family="Helvetica,sans-Serif" font-size="10.00">&#45; $gateway</text>
<polyline fill="none" stroke="black" points="1.5,-30.5 84.5,-30.5 "/>
<text text-anchor="start" x="9.5" y="-18.5" font-family="Helvetica,sans-Serif" font-size="10.00">+ __construct()</text>
<text text-anchor="start" x="9.5" y="-7.5" font-family="Helvetica,sans-Serif" font-size="10.00">+ getValue()</text>
</g>
<!-- Node2 -->
<g id="node2" class="node"><title>Node2</title>
<g id="a_node2"><a xlink:href="$classModel.html" xlink:title="{Model\n|&#45; $next\l|+ otvetchat()\l+ getValue()\l+ setNext()\l+ getNext()\l+ setName()\l+ getName()\l}">
<polygon fill="white" stroke="black" points="7,-105.5 7,-217.5 79,-217.5 79,-105.5 7,-105.5"/>
<text text-anchor="middle" x="43" y="-205.5" font-family="Helvetica,sans-Serif" font-size="10.00">Model</text>
<polyline fill="none" stroke="black" points="7,-198.5 79,-198.5 "/>
<text text-anchor="start" x="15" y="-186.5" font-family="Helvetica,sans-Serif" font-size="10.00">&#45; $next</text>
<polyline fill="none" stroke="black" points="7,-179.5 79,-179.5 "/>
<text text-anchor="start" x="15" y="-167.5" font-family="Helvetica,sans-Serif" font-size="10.00">+ otvetchat()</text>
<text text-anchor="start" x="15" y="-156.5" font-family="Helvetica,sans-Serif" font-size="10.00">+ getValue()</text>
<text text-anchor="start" x="15" y="-145.5" font-family="Helvetica,sans-Serif" font-size="10.00">+ setNext()</text>
<text text-anchor="start" x="15" y="-134.5" font-family="Helvetica,sans-Serif" font-size="10.00">+ getNext()</text>
<text text-anchor="start" x="15" y="-123.5" font-family="Helvetica,sans-Serif" font-size="10.00">+ setName()</text>
<text text-anchor="start" x="15" y="-112.5" font-family="Helvetica,sans-Serif" font-size="10.00">+ getName()</text>
</a>
</g>
</g>
<!-- Node2&#45;&gt;Node1 -->
<g id="edge1" class="edge"><title>Node2&#45;&gt;Node1</title>
<path fill="none" stroke="midnightblue" d="M43,-95.2571C43,-85.9867 43,-76.797 43,-68.5058"/>
<polygon fill="none" stroke="midnightblue" points="39.5001,-95.3093 43,-105.309 46.5001,-95.3094 39.5001,-95.3093"/>
</g>
<!-- Node3 -->
<g id="node3" class="node"><title>Node3</title>
<g id="a_node3"><a xlink:href="$interfaceMogetOtvetchat.html" xlink:title="{MogetOtvetchat\n||+ otvetchat()\l+ setNext()\l}">
<polygon fill="white" stroke="black" points="0,-254.5 0,-322.5 86,-322.5 86,-254.5 0,-254.5"/>
<text text-anchor="middle" x="43" y="-310.5" font-family="Helvetica,sans-Serif" font-size="10.00">MogetOtvetchat</text>
<polyline fill="none" stroke="black" points="0,-303.5 86,-303.5 "/>
<text text-anchor="middle" x="43" y="-291.5" font-family="Helvetica,sans-Serif" font-size="10.00"> </text>
<polyline fill="none" stroke="black" points="0,-284.5 86,-284.5 "/>
<text text-anchor="start" x="8" y="-272.5" font-family="Helvetica,sans-Serif" font-size="10.00">+ otvetchat()</text>
<text text-anchor="start" x="8" y="-261.5" font-family="Helvetica,sans-Serif" font-size="10.00">+ setNext()</text>
</a>
</g>
</g>
<!-- Node3&#45;&gt;Node2 -->
<g id="edge2" class="edge"><title>Node3&#45;&gt;Node2</title>
<path fill="none" stroke="midnightblue" d="M43,-244.182C43,-235.604 43,-226.493 43,-217.585"/>
<polygon fill="none" stroke="midnightblue" points="39.5001,-244.33 43,-254.33 46.5001,-244.331 39.5001,-244.33"/>
</g>
</g>
</svg>
