<?xml version="1.0" encoding="UTF-8" standalone="no"?>
<!DOCTYPE svg PUBLIC "-//W3C//DTD SVG 1.1//EN"
 "http://www.w3.org/Graphics/SVG/1.1/DTD/svg11.dtd">
<!-- Generated by graphviz version 2.38.0 (20140413.2041)
 -->
<!-- Title: Mapper Pages: 1 -->
<svg width="208pt" height="215pt"
 viewBox="0.00 0.00 207.50 215.00" xmlns="http://www.w3.org/2000/svg" xmlns:xlink="http://www.w3.org/1999/xlink">
<g id="graph0" class="graph" transform="scale(1 1) rotate(0) translate(4 211)">
<title>Mapper</title>
<polygon fill="white" stroke="none" points="-4,4 -4,-211 203.5,-211 203.5,4 -4,4"/>
<!-- Node1 -->
<g id="node1" class="node"><title>Node1</title>
<polygon fill="#bfbfbf" stroke="black" points="58.5,-105.5 58.5,-206.5 141.5,-206.5 141.5,-105.5 58.5,-105.5"/>
<text text-anchor="middle" x="100" y="-194.5" font-family="Helvetica,sans-Serif" font-size="10.00">Mapper</text>
<polyline fill="none" stroke="black" points="58.5,-187.5 141.5,-187.5 "/>
<text text-anchor="start" x="66.5" y="-175.5" font-family="Helvetica,sans-Serif" font-size="10.00">&#45; $db</text>
<text text-anchor="start" x="66.5" y="-164.5" font-family="Helvetica,sans-Serif" font-size="10.00">&#45; $table</text>
<polyline fill="none" stroke="black" points="58.5,-157.5 141.5,-157.5 "/>
<text text-anchor="start" x="66.5" y="-145.5" font-family="Helvetica,sans-Serif" font-size="10.00">+ __construct()</text>
<text text-anchor="start" x="66.5" y="-134.5" font-family="Helvetica,sans-Serif" font-size="10.00">+ read()</text>
<text text-anchor="start" x="66.5" y="-123.5" font-family="Helvetica,sans-Serif" font-size="10.00">+ fabric()</text>
<text text-anchor="start" x="66.5" y="-112.5" font-family="Helvetica,sans-Serif" font-size="10.00"># fillModel()</text>
</g>
<!-- Node2 -->
<g id="node2" class="node"><title>Node2</title>
<g id="a_node2"><a xlink:href="$classDisciplineMapper.html" xlink:title="{DisciplineMapper\n|&#45; $discipline\l|+ __construct()\l+ read()\l}">
<polygon fill="white" stroke="black" points="0,-0.5 0,-68.5 92,-68.5 92,-0.5 0,-0.5"/>
<text text-anchor="middle" x="46" y="-56.5" font-family="Helvetica,sans-Serif" font-size="10.00">DisciplineMapper</text>
<polyline fill="none" stroke="black" points="0,-49.5 92,-49.5 "/>
<text text-anchor="start" x="8" y="-37.5" font-family="Helvetica,sans-Serif" font-size="10.00">&#45; $discipline</text>
<polyline fill="none" stroke="black" points="0,-30.5 92,-30.5 "/>
<text text-anchor="start" x="8" y="-18.5" font-family="Helvetica,sans-Serif" font-size="10.00">+ __construct()</text>
<text text-anchor="start" x="8" y="-7.5" font-family="Helvetica,sans-Serif" font-size="10.00">+ read()</text>
</a>
</g>
</g>
<!-- Node1&#45;&gt;Node2 -->
<g id="edge1" class="edge"><title>Node1&#45;&gt;Node2</title>
<path fill="none" stroke="midnightblue" d="M73.3609,-96.0486C69.1342,-86.6952 64.8958,-77.3157 61.06,-68.8271"/>
<polygon fill="none" stroke="midnightblue" points="70.2608,-97.6879 77.5683,-105.359 76.6398,-94.8053 70.2608,-97.6879"/>
</g>
<!-- Node3 -->
<g id="node3" class="node"><title>Node3</title>
<g id="a_node3"><a xlink:href="$classMaterialsMapper.html" xlink:title="{MaterialsMapper\n|&#45; $materials\l|+ __construct()\l+ read()\l}">
<polygon fill="white" stroke="black" points="110.5,-0.5 110.5,-68.5 199.5,-68.5 199.5,-0.5 110.5,-0.5"/>
<text text-anchor="middle" x="155" y="-56.5" font-family="Helvetica,sans-Serif" font-size="10.00">MaterialsMapper</text>
<polyline fill="none" stroke="black" points="110.5,-49.5 199.5,-49.5 "/>
<text text-anchor="start" x="118.5" y="-37.5" font-family="Helvetica,sans-Serif" font-size="10.00">&#45; $materials</text>
<polyline fill="none" stroke="black" points="110.5,-30.5 199.5,-30.5 "/>
<text text-anchor="start" x="118.5" y="-18.5" font-family="Helvetica,sans-Serif" font-size="10.00">+ __construct()</text>
<text text-anchor="start" x="118.5" y="-7.5" font-family="Helvetica,sans-Serif" font-size="10.00">+ read()</text>
</a>
</g>
</g>
<!-- Node1&#45;&gt;Node3 -->
<g id="edge2" class="edge"><title>Node1&#45;&gt;Node3</title>
<path fill="none" stroke="midnightblue" d="M127.132,-96.0486C131.437,-86.6952 135.754,-77.3157 139.661,-68.8271"/>
<polygon fill="none" stroke="midnightblue" points="123.849,-94.812 122.847,-105.359 130.208,-97.7387 123.849,-94.812"/>
</g>
</g>
</svg>
