<?xml version="1.0" encoding="UTF-8" standalone="no"?>
<!DOCTYPE svg PUBLIC "-//W3C//DTD SVG 1.1//EN"
 "http://www.w3.org/Graphics/SVG/1.1/DTD/svg11.dtd">
<!-- Generated by graphviz version 2.38.0 (20140413.2041)
 -->
<!-- Title: MaterialsMapper Pages: 1 -->
<svg width="97pt" height="215pt"
 viewBox="0.00 0.00 97.00 215.00" xmlns="http://www.w3.org/2000/svg" xmlns:xlink="http://www.w3.org/1999/xlink">
<g id="graph0" class="graph" transform="scale(1 1) rotate(0) translate(4 211)">
<title>MaterialsMapper</title>
<polygon fill="white" stroke="none" points="-4,4 -4,-211 93,-211 93,4 -4,4"/>
<!-- Node1 -->
<g id="node1" class="node"><title>Node1</title>
<polygon fill="#bfbfbf" stroke="black" points="-7.10543e-15,-0.5 -7.10543e-15,-68.5 89,-68.5 89,-0.5 -7.10543e-15,-0.5"/>
<text text-anchor="middle" x="44.5" y="-56.5" font-family="Helvetica,sans-Serif" font-size="10.00">MaterialsMapper</text>
<polyline fill="none" stroke="black" points="-7.10543e-15,-49.5 89,-49.5 "/>
<text text-anchor="start" x="8" y="-37.5" font-family="Helvetica,sans-Serif" font-size="10.00">&#45; $materials</text>
<polyline fill="none" stroke="black" points="-7.10543e-15,-30.5 89,-30.5 "/>
<text text-anchor="start" x="8" y="-18.5" font-family="Helvetica,sans-Serif" font-size="10.00">+ __construct()</text>
<text text-anchor="start" x="8" y="-7.5" font-family="Helvetica,sans-Serif" font-size="10.00">+ read()</text>
</g>
<!-- Node2 -->
<g id="node2" class="node"><title>Node2</title>
<g id="a_node2"><a xlink:href="$classMapper.html" xlink:title="{Mapper\n|&#45; $db\l&#45; $table\l|+ __construct()\l+ read()\l+ fabric()\l# fillModel()\l}">
<polygon fill="white" stroke="black" points="3,-105.5 3,-206.5 86,-206.5 86,-105.5 3,-105.5"/>
<text text-anchor="middle" x="44.5" y="-194.5" font-family="Helvetica,sans-Serif" font-size="10.00">Mapper</text>
<polyline fill="none" stroke="black" points="3,-187.5 86,-187.5 "/>
<text text-anchor="start" x="11" y="-175.5" font-family="Helvetica,sans-Serif" font-size="10.00">&#45; $db</text>
<text text-anchor="start" x="11" y="-164.5" font-family="Helvetica,sans-Serif" font-size="10.00">&#45; $table</text>
<polyline fill="none" stroke="black" points="3,-157.5 86,-157.5 "/>
<text text-anchor="start" x="11" y="-145.5" font-family="Helvetica,sans-Serif" font-size="10.00">+ __construct()</text>
<text text-anchor="start" x="11" y="-134.5" font-family="Helvetica,sans-Serif" font-size="10.00">+ read()</text>
<text text-anchor="start" x="11" y="-123.5" font-family="Helvetica,sans-Serif" font-size="10.00">+ fabric()</text>
<text text-anchor="start" x="11" y="-112.5" font-family="Helvetica,sans-Serif" font-size="10.00"># fillModel()</text>
</a>
</g>
</g>
<!-- Node2&#45;&gt;Node1 -->
<g id="edge1" class="edge"><title>Node2&#45;&gt;Node1</title>
<path fill="none" stroke="midnightblue" d="M44.5,-95.1717C44.5,-86.1099 44.5,-77.0504 44.5,-68.8271"/>
<polygon fill="none" stroke="midnightblue" points="41.0001,-95.3594 44.5,-105.359 48.0001,-95.3594 41.0001,-95.3594"/>
</g>
</g>
</svg>
