<?xml version="1.0" encoding="UTF-8" standalone="no"?>
<!DOCTYPE svg PUBLIC "-//W3C//DTD SVG 1.1//EN"
 "http://www.w3.org/Graphics/SVG/1.1/DTD/svg11.dtd">
<!-- Generated by graphviz version 2.38.0 (20140413.2041)
 -->
<!-- Title: MaterialsModel Pages: 1 -->
<svg width="94pt" height="425pt"
 viewBox="0.00 0.00 94.00 425.00" xmlns="http://www.w3.org/2000/svg" xmlns:xlink="http://www.w3.org/1999/xlink">
<g id="graph0" class="graph" transform="scale(1 1) rotate(0) translate(4 421)">
<title>MaterialsModel</title>
<polygon fill="white" stroke="none" points="-4,4 -4,-421 90,-421 90,4 -4,4"/>
<!-- Node1 -->
<g id="node1" class="node"><title>Node1</title>
<polygon fill="#bfbfbf" stroke="black" points="1.5,-0.5 1.5,-57.5 84.5,-57.5 84.5,-0.5 1.5,-0.5"/>
<text text-anchor="middle" x="43" y="-45.5" font-family="Helvetica,sans-Serif" font-size="10.00">MaterialsModel</text>
<polyline fill="none" stroke="black" points="1.5,-38.5 84.5,-38.5 "/>
<text text-anchor="middle" x="43" y="-26.5" font-family="Helvetica,sans-Serif" font-size="10.00"> </text>
<polyline fill="none" stroke="black" points="1.5,-19.5 84.5,-19.5 "/>
<text text-anchor="start" x="9.5" y="-7.5" font-family="Helvetica,sans-Serif" font-size="10.00">+ __construct()</text>
</g>
<!-- Node2 -->
<g id="node2" class="node"><title>Node2</title>
<g id="a_node2"><a xlink:href="$classBasicModel.html" xlink:title="{BasicModel\n|&#45; $gateway\l|+ __construct()\l+ getValue()\l}">
<polygon fill="white" stroke="black" points="1.5,-94.5 1.5,-162.5 84.5,-162.5 84.5,-94.5 1.5,-94.5"/>
<text text-anchor="middle" x="43" y="-150.5" font-family="Helvetica,sans-Serif" font-size="10.00">BasicModel</text>
<polyline fill="none" stroke="black" points="1.5,-143.5 84.5,-143.5 "/>
<text text-anchor="start" x="9.5" y="-131.5" font-family="Helvetica,sans-Serif" font-size="10.00">&#45; $gateway</text>
<polyline fill="none" stroke="black" points="1.5,-124.5 84.5,-124.5 "/>
<text text-anchor="start" x="9.5" y="-112.5" font-family="Helvetica,sans-Serif" font-size="10.00">+ __construct()</text>
<text text-anchor="start" x="9.5" y="-101.5" font-family="Helvetica,sans-Serif" font-size="10.00">+ getValue()</text>
</a>
</g>
</g>
<!-- Node2&#45;&gt;Node1 -->
<g id="edge1" class="edge"><title>Node2&#45;&gt;Node1</title>
<path fill="none" stroke="midnightblue" d="M43,-84.4538C43,-75.4036 43,-66.0876 43,-57.7765"/>
<polygon fill="none" stroke="midnightblue" points="39.5001,-84.4909 43,-94.4909 46.5001,-84.491 39.5001,-84.4909"/>
</g>
<!-- Node3 -->
<g id="node3" class="node"><title>Node3</title>
<g id="a_node3"><a xlink:href="$classModel.html" xlink:title="{Model\n|&#45; $next\l|+ otvetchat()\l+ getValue()\l+ setNext()\l+ getNext()\l+ setName()\l+ getName()\l}">
<polygon fill="white" stroke="black" points="7,-199.5 7,-311.5 79,-311.5 79,-199.5 7,-199.5"/>
<text text-anchor="middle" x="43" y="-299.5" font-family="Helvetica,sans-Serif" font-size="10.00">Model</text>
<polyline fill="none" stroke="black" points="7,-292.5 79,-292.5 "/>
<text text-anchor="start" x="15" y="-280.5" font-family="Helvetica,sans-Serif" font-size="10.00">&#45; $next</text>
<polyline fill="none" stroke="black" points="7,-273.5 79,-273.5 "/>
<text text-anchor="start" x="15" y="-261.5" font-family="Helvetica,sans-Serif" font-size="10.00">+ otvetchat()</text>
<text text-anchor="start" x="15" y="-250.5" font-family="Helvetica,sans-Serif" font-size="10.00">+ getValue()</text>
<text text-anchor="start" x="15" y="-239.5" font-family="Helvetica,sans-Serif" font-size="10.00">+ setNext()</text>
<text text-anchor="start" x="15" y="-228.5" font-family="Helvetica,sans-Serif" font-size="10.00">+ getNext()</text>
<text text-anchor="start" x="15" y="-217.5" font-family="Helvetica,sans-Serif" font-size="10.00">+ setName()</text>
<text text-anchor="start" x="15" y="-206.5" font-family="Helvetica,sans-Serif" font-size="10.00">+ getName()</text>
</a>
</g>
</g>
<!-- Node3&#45;&gt;Node2 -->
<g id="edge2" class="edge"><title>Node3&#45;&gt;Node2</title>
<path fill="none" stroke="midnightblue" d="M43,-189.257C43,-179.987 43,-170.797 43,-162.506"/>
<polygon fill="none" stroke="midnightblue" points="39.5001,-189.309 43,-199.309 46.5001,-189.309 39.5001,-189.309"/>
</g>
<!-- Node4 -->
<g id="node4" class="node"><title>Node4</title>
<g id="a_node4"><a xlink:href="$interfaceMogetOtvetchat.html" xlink:title="{MogetOtvetchat\n||+ otvetchat()\l+ setNext()\l}">
<polygon fill="white" stroke="black" points="0,-348.5 0,-416.5 86,-416.5 86,-348.5 0,-348.5"/>
<text text-anchor="middle" x="43" y="-404.5" font-family="Helvetica,sans-Serif" font-size="10.00">MogetOtvetchat</text>
<polyline fill="none" stroke="black" points="0,-397.5 86,-397.5 "/>
<text text-anchor="middle" x="43" y="-385.5" font-family="Helvetica,sans-Serif" font-size="10.00"> </text>
<polyline fill="none" stroke="black" points="0,-378.5 86,-378.5 "/>
<text text-anchor="start" x="8" y="-366.5" font-family="Helvetica,sans-Serif" font-size="10.00">+ otvetchat()</text>
<text text-anchor="start" x="8" y="-355.5" font-family="Helvetica,sans-Serif" font-size="10.00">+ setNext()</text>
</a>
</g>
</g>
<!-- Node4&#45;&gt;Node3 -->
<g id="edge3" class="edge"><title>Node4&#45;&gt;Node3</title>
<path fill="none" stroke="midnightblue" d="M43,-338.182C43,-329.604 43,-320.493 43,-311.585"/>
<polygon fill="none" stroke="midnightblue" points="39.5001,-338.33 43,-348.33 46.5001,-338.331 39.5001,-338.33"/>
</g>
</g>
</svg>
