<?xml version="1.0" encoding="UTF-8" standalone="no"?>
<!DOCTYPE svg PUBLIC "-//W3C//DTD SVG 1.1//EN"
 "http://www.w3.org/Graphics/SVG/1.1/DTD/svg11.dtd">
<!-- Generated by graphviz version 2.38.0 (20140413.2041)
 -->
<!-- Title: DisciplineMapper Pages: 1 -->
<svg width="100pt" height="215pt"
 viewBox="0.00 0.00 100.00 215.00" xmlns="http://www.w3.org/2000/svg" xmlns:xlink="http://www.w3.org/1999/xlink">
<g id="graph0" class="graph" transform="scale(1 1) rotate(0) translate(4 211)">
<title>DisciplineMapper</title>
<polygon fill="white" stroke="none" points="-4,4 -4,-211 96,-211 96,4 -4,4"/>
<!-- Node1 -->
<g id="node1" class="node"><title>Node1</title>
<polygon fill="#bfbfbf" stroke="black" points="0,-0.5 0,-68.5 92,-68.5 92,-0.5 0,-0.5"/>
<text text-anchor="middle" x="46" y="-56.5" font-family="Helvetica,sans-Serif" font-size="10.00">DisciplineMapper</text>
<polyline fill="none" stroke="black" points="0,-49.5 92,-49.5 "/>
<text text-anchor="start" x="8" y="-37.5" font-family="Helvetica,sans-Serif" font-size="10.00">&#45; $discipline</text>
<polyline fill="none" stroke="black" points="0,-30.5 92,-30.5 "/>
<text text-anchor="start" x="8" y="-18.5" font-family="Helvetica,sans-Serif" font-size="10.00">+ __construct()</text>
<text text-anchor="start" x="8" y="-7.5" font-family="Helvetica,sans-Serif" font-size="10.00">+ read()</text>
</g>
<!-- Node2 -->
<g id="node2" class="node"><title>Node2</title>
<g id="a_node2"><a xlink:href="$classMapper.html" xlink:title="{Mapper\n|&#45; $db\l&#45; $table\l|+ __construct()\l+ read()\l+ fabric()\l# fillModel()\l}">
<polygon fill="white" stroke="black" points="4.5,-105.5 4.5,-206.5 87.5,-206.5 87.5,-105.5 4.5,-105.5"/>
<text text-anchor="middle" x="46" y="-194.5" font-family="Helvetica,sans-Serif" font-size="10.00">Mapper</text>
<polyline fill="none" stroke="black" points="4.5,-187.5 87.5,-187.5 "/>
<text text-anchor="start" x="12.5" y="-175.5" font-family="Helvetica,sans-Serif" font-size="10.00">&#45; $db</text>
<text text-anchor="start" x="12.5" y="-164.5" font-family="Helvetica,sans-Serif" font-size="10.00">&#45; $table</text>
<polyline fill="none" stroke="black" points="4.5,-157.5 87.5,-157.5 "/>
<text text-anchor="start" x="12.5" y="-145.5" font-family="Helvetica,sans-Serif" font-size="10.00">+ __construct()</text>
<text text-anchor="start" x="12.5" y="-134.5" font-family="Helvetica,sans-Serif" font-size="10.00">+ read()</text>
<text text-anchor="start" x="12.5" y="-123.5" font-family="Helvetica,sans-Serif" font-size="10.00">+ fabric()</text>
<text text-anchor="start" x="12.5" y="-112.5" font-family="Helvetica,sans-Serif" font-size="10.00"># fillModel()</text>
</a>
</g>
</g>
<!-- Node2&#45;&gt;Node1 -->
<g id="edge1" class="edge"><title>Node2&#45;&gt;Node1</title>
<path fill="none" stroke="midnightblue" d="M46,-95.1717C46,-86.1099 46,-77.0504 46,-68.8271"/>
<polygon fill="none" stroke="midnightblue" points="42.5001,-95.3594 46,-105.359 49.5001,-95.3594 42.5001,-95.3594"/>
</g>
</g>
</svg>
