<?xml version="1.0" encoding="UTF-8" standalone="no"?>
<!DOCTYPE svg PUBLIC "-//W3C//DTD SVG 1.1//EN"
 "http://www.w3.org/Graphics/SVG/1.1/DTD/svg11.dtd">
<!-- Generated by graphviz version 2.38.0 (20140413.2041)
 -->
<!-- Title: Viewer Pages: 1 -->
<svg width="82pt" height="215pt"
 viewBox="0.00 0.00 82.00 215.00" xmlns="http://www.w3.org/2000/svg" xmlns:xlink="http://www.w3.org/1999/xlink">
<g id="graph0" class="graph" transform="scale(1 1) rotate(0) translate(4 211)">
<title>Viewer</title>
<polygon fill="white" stroke="none" points="-4,4 -4,-211 78,-211 78,4 -4,4"/>
<!-- Node1 -->
<g id="node1" class="node"><title>Node1</title>
<polygon fill="#bfbfbf" stroke="black" points="11,-149.5 11,-206.5 63,-206.5 63,-149.5 11,-149.5"/>
<text text-anchor="middle" x="37" y="-194.5" font-family="Helvetica,sans-Serif" font-size="10.00">Viewer</text>
<polyline fill="none" stroke="black" points="11,-187.5 63,-187.5 "/>
<text text-anchor="middle" x="37" y="-175.5" font-family="Helvetica,sans-Serif" font-size="10.00"> </text>
<polyline fill="none" stroke="black" points="11,-168.5 63,-168.5 "/>
<text text-anchor="start" x="19" y="-156.5" font-family="Helvetica,sans-Serif" font-size="10.00">+ view()</text>
</g>
<!-- Node2 -->
<g id="node2" class="node"><title>Node2</title>
<g id="a_node2"><a xlink:href="$classListViewer.html" xlink:title="visualization under the form of a list of text fields ">
<polygon fill="white" stroke="black" points="0,-0.5 0,-112.5 74,-112.5 74,-0.5 0,-0.5"/>
<text text-anchor="middle" x="37" y="-100.5" font-family="Helvetica,sans-Serif" font-size="10.00">ListViewer</text>
<polyline fill="none" stroke="black" points="0,-93.5 74,-93.5 "/>
<text text-anchor="middle" x="37" y="-81.5" font-family="Helvetica,sans-Serif" font-size="10.00"> </text>
<polyline fill="none" stroke="black" points="0,-74.5 74,-74.5 "/>
<text text-anchor="start" x="8" y="-62.5" font-family="Helvetica,sans-Serif" font-size="10.00">+ view()</text>
<text text-anchor="start" x="8" y="-51.5" font-family="Helvetica,sans-Serif" font-size="10.00">+ view()</text>
<text text-anchor="start" x="8" y="-40.5" font-family="Helvetica,sans-Serif" font-size="10.00">+ viewElem()</text>
<text text-anchor="start" x="8" y="-29.5" font-family="Helvetica,sans-Serif" font-size="10.00">+ viewInput()</text>
<text text-anchor="start" x="8" y="-18.5" font-family="Helvetica,sans-Serif" font-size="10.00">&#45; viewElem()</text>
<text text-anchor="start" x="8" y="-7.5" font-family="Helvetica,sans-Serif" font-size="10.00">&#45; viewInput()</text>
</a>
</g>
</g>
<!-- Node1&#45;&gt;Node2 -->
<g id="edge1" class="edge"><title>Node1&#45;&gt;Node2</title>
<path fill="none" stroke="midnightblue" d="M37,-139.108C37,-130.748 37,-121.725 37,-112.834"/>
<polygon fill="none" stroke="midnightblue" points="33.5001,-139.284 37,-149.284 40.5001,-139.284 33.5001,-139.284"/>
</g>
</g>
</svg>
