<?xml version="1.0" encoding="UTF-8" standalone="no"?>
<!DOCTYPE svg PUBLIC "-//W3C//DTD SVG 1.1//EN"
 "http://www.w3.org/Graphics/SVG/1.1/DTD/svg11.dtd">
<!-- Generated by graphviz version 2.38.0 (20140413.2041)
 -->
<!-- Title: Model Pages: 1 -->
<svg width="309pt" height="447pt"
 viewBox="0.00 0.00 308.50 447.00" xmlns="http://www.w3.org/2000/svg" xmlns:xlink="http://www.w3.org/1999/xlink">
<g id="graph0" class="graph" transform="scale(1 1) rotate(0) translate(4 443)">
<title>Model</title>
<polygon fill="white" stroke="none" points="-4,4 -4,-443 304.5,-443 304.5,4 -4,4"/>
<!-- Node1 -->
<g id="node1" class="node"><title>Node1</title>
<polygon fill="#bfbfbf" stroke="black" points="165.5,-221.5 165.5,-333.5 237.5,-333.5 237.5,-221.5 165.5,-221.5"/>
<text text-anchor="middle" x="201.5" y="-321.5" font-family="Helvetica,sans-Serif" font-size="10.00">Model</text>
<polyline fill="none" stroke="black" points="165.5,-314.5 237.5,-314.5 "/>
<text text-anchor="start" x="173.5" y="-302.5" font-family="Helvetica,sans-Serif" font-size="10.00">&#45; $next</text>
<polyline fill="none" stroke="black" points="165.5,-295.5 237.5,-295.5 "/>
<text text-anchor="start" x="173.5" y="-283.5" font-family="Helvetica,sans-Serif" font-size="10.00">+ otvetchat()</text>
<text text-anchor="start" x="173.5" y="-272.5" font-family="Helvetica,sans-Serif" font-size="10.00">+ getValue()</text>
<text text-anchor="start" x="173.5" y="-261.5" font-family="Helvetica,sans-Serif" font-size="10.00">+ setNext()</text>
<text text-anchor="start" x="173.5" y="-250.5" font-family="Helvetica,sans-Serif" font-size="10.00">+ getNext()</text>
<text text-anchor="start" x="173.5" y="-239.5" font-family="Helvetica,sans-Serif" font-size="10.00">+ setName()</text>
<text text-anchor="start" x="173.5" y="-228.5" font-family="Helvetica,sans-Serif" font-size="10.00">+ getName()</text>
</g>
<!-- Node3 -->
<g id="node3" class="node"><title>Node3</title>
<g id="a_node3"><a xlink:href="classBasicModel.html" target="_top" xlink:title="{BasicModel\n|&#45; $gateway\l|+ __construct()\l+ getValue()\l}">
<polygon fill="white" stroke="black" points="109,-105.5 109,-173.5 192,-173.5 192,-105.5 109,-105.5"/>
<text text-anchor="middle" x="150.5" y="-161.5" font-family="Helvetica,sans-Serif" font-size="10.00">BasicModel</text>
<polyline fill="none" stroke="black" points="109,-154.5 192,-154.5 "/>
<text text-anchor="start" x="117" y="-142.5" font-family="Helvetica,sans-Serif" font-size="10.00">&#45; $gateway</text>
<polyline fill="none" stroke="black" points="109,-135.5 192,-135.5 "/>
<text text-anchor="start" x="117" y="-123.5" font-family="Helvetica,sans-Serif" font-size="10.00">+ __construct()</text>
<text text-anchor="start" x="117" y="-112.5" font-family="Helvetica,sans-Serif" font-size="10.00">+ getValue()</text>
</a>
</g>
</g>
<!-- Node1&#45;&gt;Node3 -->
<g id="edge2" class="edge"><title>Node1&#45;&gt;Node3</title>
<path fill="none" stroke="midnightblue" d="M177.17,-211.619C172.215,-198.406 167.201,-185.035 162.878,-173.509"/>
<polygon fill="none" stroke="midnightblue" points="173.968,-213.049 180.756,-221.184 180.522,-210.591 173.968,-213.049"/>
</g>
<!-- Node7 -->
<g id="node7" class="node"><title>Node7</title>
<g id="a_node7"><a xlink:href="classStudentAdapter.html" target="_top" xlink:title="{StudentAdapter\n|&#45; $mapper\l|+ __construct()\l+ otvetchat()\l+ getValue()\l+ fabric()\l}">
<polygon fill="white" stroke="black" points="210.5,-94.5 210.5,-184.5 294.5,-184.5 294.5,-94.5 210.5,-94.5"/>
<text text-anchor="middle" x="252.5" y="-172.5" font-family="Helvetica,sans-Serif" font-size="10.00">StudentAdapter</text>
<polyline fill="none" stroke="black" points="210.5,-165.5 294.5,-165.5 "/>
<text text-anchor="start" x="218.5" y="-153.5" font-family="Helvetica,sans-Serif" font-size="10.00">&#45; $mapper</text>
<polyline fill="none" stroke="black" points="210.5,-146.5 294.5,-146.5 "/>
<text text-anchor="start" x="218.5" y="-134.5" font-family="Helvetica,sans-Serif" font-size="10.00">+ __construct()</text>
<text text-anchor="start" x="218.5" y="-123.5" font-family="Helvetica,sans-Serif" font-size="10.00">+ otvetchat()</text>
<text text-anchor="start" x="218.5" y="-112.5" font-family="Helvetica,sans-Serif" font-size="10.00">+ getValue()</text>
<text text-anchor="start" x="218.5" y="-101.5" font-family="Helvetica,sans-Serif" font-size="10.00">+ fabric()</text>
</a>
</g>
</g>
<!-- Node1&#45;&gt;Node7 -->
<g id="edge6" class="edge"><title>Node1&#45;&gt;Node7</title>
<path fill="none" stroke="midnightblue" d="M225.816,-211.657C229.264,-202.462 232.741,-193.19 235.995,-184.514"/>
<polygon fill="none" stroke="midnightblue" points="222.478,-210.591 222.244,-221.184 229.032,-213.049 222.478,-210.591"/>
</g>
<!-- Node2 -->
<g id="node2" class="node"><title>Node2</title>
<g id="a_node2"><a xlink:href="interfaceMogetOtvetchat.html" target="_top" xlink:title="{MogetOtvetchat\n||+ otvetchat()\l+ setNext()\l}">
<polygon fill="white" stroke="black" points="158.5,-370.5 158.5,-438.5 244.5,-438.5 244.5,-370.5 158.5,-370.5"/>
<text text-anchor="middle" x="201.5" y="-426.5" font-family="Helvetica,sans-Serif" font-size="10.00">MogetOtvetchat</text>
<polyline fill="none" stroke="black" points="158.5,-419.5 244.5,-419.5 "/>
<text text-anchor="middle" x="201.5" y="-407.5" font-family="Helvetica,sans-Serif" font-size="10.00"> </text>
<polyline fill="none" stroke="black" points="158.5,-400.5 244.5,-400.5 "/>
<text text-anchor="start" x="166.5" y="-388.5" font-family="Helvetica,sans-Serif" font-size="10.00">+ otvetchat()</text>
<text text-anchor="start" x="166.5" y="-377.5" font-family="Helvetica,sans-Serif" font-size="10.00">+ setNext()</text>
</a>
</g>
</g>
<!-- Node2&#45;&gt;Node1 -->
<g id="edge1" class="edge"><title>Node2&#45;&gt;Node1</title>
<path fill="none" stroke="midnightblue" d="M201.5,-360.182C201.5,-351.604 201.5,-342.493 201.5,-333.585"/>
<polygon fill="none" stroke="midnightblue" points="198,-360.33 201.5,-370.33 205,-360.331 198,-360.33"/>
</g>
<!-- Node4 -->
<g id="node4" class="node"><title>Node4</title>
<g id="a_node4"><a xlink:href="classDisciplinesModel.html" target="_top" xlink:title="{DisciplinesModel\n||+ __construct()\l}">
<polygon fill="white" stroke="black" points="0,-0.5 0,-57.5 91,-57.5 91,-0.5 0,-0.5"/>
<text text-anchor="middle" x="45.5" y="-45.5" font-family="Helvetica,sans-Serif" font-size="10.00">DisciplinesModel</text>
<polyline fill="none" stroke="black" points="0,-38.5 91,-38.5 "/>
<text text-anchor="middle" x="45.5" y="-26.5" font-family="Helvetica,sans-Serif" font-size="10.00"> </text>
<polyline fill="none" stroke="black" points="0,-19.5 91,-19.5 "/>
<text text-anchor="start" x="8" y="-7.5" font-family="Helvetica,sans-Serif" font-size="10.00">+ __construct()</text>
</a>
</g>
</g>
<!-- Node3&#45;&gt;Node4 -->
<g id="edge3" class="edge"><title>Node3&#45;&gt;Node4</title>
<path fill="none" stroke="midnightblue" d="M111.364,-98.0597C98.3978,-84.6611 84.2663,-70.0585 72.4293,-57.827"/>
<polygon fill="none" stroke="midnightblue" points="108.957,-100.605 118.426,-105.357 113.987,-95.7368 108.957,-100.605"/>
</g>
<!-- Node5 -->
<g id="node5" class="node"><title>Node5</title>
<g id="a_node5"><a xlink:href="classMaterialsModel.html" target="_top" xlink:title="{MaterialsModel\n||+ __construct()\l}">
<polygon fill="white" stroke="black" points="109,-0.5 109,-57.5 192,-57.5 192,-0.5 109,-0.5"/>
<text text-anchor="middle" x="150.5" y="-45.5" font-family="Helvetica,sans-Serif" font-size="10.00">MaterialsModel</text>
<polyline fill="none" stroke="black" points="109,-38.5 192,-38.5 "/>
<text text-anchor="middle" x="150.5" y="-26.5" font-family="Helvetica,sans-Serif" font-size="10.00"> </text>
<polyline fill="none" stroke="black" points="109,-19.5 192,-19.5 "/>
<text text-anchor="start" x="117" y="-7.5" font-family="Helvetica,sans-Serif" font-size="10.00">+ __construct()</text>
</a>
</g>
</g>
<!-- Node3&#45;&gt;Node5 -->
<g id="edge4" class="edge"><title>Node3&#45;&gt;Node5</title>
<path fill="none" stroke="midnightblue" d="M150.5,-95.0639C150.5,-82.5107 150.5,-69.1524 150.5,-57.827"/>
<polygon fill="none" stroke="midnightblue" points="147,-95.3568 150.5,-105.357 154,-95.3569 147,-95.3568"/>
</g>
<!-- Node6 -->
<g id="node6" class="node"><title>Node6</title>
<g id="a_node6"><a xlink:href="classProfessorsModel.html" target="_top" xlink:title="{ProfessorsModel\n||+ __construct()\l}">
<polygon fill="white" stroke="black" points="210.5,-0.5 210.5,-57.5 300.5,-57.5 300.5,-0.5 210.5,-0.5"/>
<text text-anchor="middle" x="255.5" y="-45.5" font-family="Helvetica,sans-Serif" font-size="10.00">ProfessorsModel</text>
<polyline fill="none" stroke="black" points="210.5,-38.5 300.5,-38.5 "/>
<text text-anchor="middle" x="255.5" y="-26.5" font-family="Helvetica,sans-Serif" font-size="10.00"> </text>
<polyline fill="none" stroke="black" points="210.5,-19.5 300.5,-19.5 "/>
<text text-anchor="start" x="218.5" y="-7.5" font-family="Helvetica,sans-Serif" font-size="10.00">+ __construct()</text>
</a>
</g>
</g>
<!-- Node3&#45;&gt;Node6 -->
<g id="edge5" class="edge"><title>Node3&#45;&gt;Node6</title>
<path fill="none" stroke="midnightblue" d="M189.636,-98.0597C202.602,-84.6611 216.734,-70.0585 228.571,-57.827"/>
<polygon fill="none" stroke="midnightblue" points="187.013,-95.7368 182.574,-105.357 192.043,-100.605 187.013,-95.7368"/>
</g>
</g>
</svg>
