<?xml version="1.0" encoding="UTF-8" standalone="no"?>
<!DOCTYPE svg PUBLIC "-//W3C//DTD SVG 1.1//EN"
 "http://www.w3.org/Graphics/SVG/1.1/DTD/svg11.dtd">
<!-- Generated by graphviz version 2.38.0 (20140413.2041)
 -->
<!-- Title: Disciplines Pages: 1 -->
<svg width="91pt" height="193pt"
 viewBox="0.00 0.00 91.00 193.00" xmlns="http://www.w3.org/2000/svg" xmlns:xlink="http://www.w3.org/1999/xlink">
<g id="graph0" class="graph" transform="scale(1 1) rotate(0) translate(4 189)">
<title>Disciplines</title>
<polygon fill="white" stroke="none" points="-4,4 -4,-189 87,-189 87,4 -4,4"/>
<!-- Node1 -->
<g id="node1" class="node"><title>Node1</title>
<polygon fill="#bfbfbf" stroke="black" points="9,-0.5 9,-57.5 74,-57.5 74,-0.5 9,-0.5"/>
<text text-anchor="middle" x="41.5" y="-45.5" font-family="Helvetica,sans-Serif" font-size="10.00">Disciplines</text>
<polyline fill="none" stroke="black" points="9,-38.5 74,-38.5 "/>
<text text-anchor="middle" x="41.5" y="-26.5" font-family="Helvetica,sans-Serif" font-size="10.00"> </text>
<polyline fill="none" stroke="black" points="9,-19.5 74,-19.5 "/>
<text text-anchor="start" x="17" y="-7.5" font-family="Helvetica,sans-Serif" font-size="10.00">+ view()</text>
</g>
<!-- Node2 -->
<g id="node2" class="node"><title>Node2</title>
<g id="a_node2"><a xlink:href="classTableModule.html" target="_top" xlink:title="{TableModule\n|&#45; $rows\l|+ __construct()\l+ add()\l+ view()\l# getRows()\l}">
<polygon fill="white" stroke="black" points="0,-94.5 0,-184.5 83,-184.5 83,-94.5 0,-94.5"/>
<text text-anchor="middle" x="41.5" y="-172.5" font-family="Helvetica,sans-Serif" font-size="10.00">TableModule</text>
<polyline fill="none" stroke="black" points="0,-165.5 83,-165.5 "/>
<text text-anchor="start" x="8" y="-153.5" font-family="Helvetica,sans-Serif" font-size="10.00">&#45; $rows</text>
<polyline fill="none" stroke="black" points="0,-146.5 83,-146.5 "/>
<text text-anchor="start" x="8" y="-134.5" font-family="Helvetica,sans-Serif" font-size="10.00">+ __construct()</text>
<text text-anchor="start" x="8" y="-123.5" font-family="Helvetica,sans-Serif" font-size="10.00">+ add()</text>
<text text-anchor="start" x="8" y="-112.5" font-family="Helvetica,sans-Serif" font-size="10.00">+ view()</text>
<text text-anchor="start" x="8" y="-101.5" font-family="Helvetica,sans-Serif" font-size="10.00"># getRows()</text>
</a>
</g>
</g>
<!-- Node2&#45;&gt;Node1 -->
<g id="edge1" class="edge"><title>Node2&#45;&gt;Node1</title>
<path fill="none" stroke="midnightblue" d="M41.5,-84.3531C41.5,-75.074 41.5,-65.7909 41.5,-57.5896"/>
<polygon fill="none" stroke="midnightblue" points="38.0001,-84.3689 41.5,-94.3689 45.0001,-84.3689 38.0001,-84.3689"/>
</g>
</g>
</svg>
