<?xml version="1.0" encoding="UTF-8" standalone="no"?>
<!DOCTYPE svg PUBLIC "-//W3C//DTD SVG 1.1//EN"
 "http://www.w3.org/Graphics/SVG/1.1/DTD/svg11.dtd">
<!-- Generated by graphviz version 2.38.0 (20140413.2041)
 -->
<!-- Title: TableModule Pages: 1 -->
<svg width="174pt" height="215pt"
 viewBox="0.00 0.00 174.00 215.00" xmlns="http://www.w3.org/2000/svg" xmlns:xlink="http://www.w3.org/1999/xlink">
<g id="graph0" class="graph" transform="scale(1 1) rotate(0) translate(4 211)">
<title>TableModule</title>
<polygon fill="white" stroke="none" points="-4,4 -4,-211 170,-211 170,4 -4,4"/>
<!-- Node1 -->
<g id="node1" class="node"><title>Node1</title>
<polygon fill="#bfbfbf" stroke="black" points="37,-116.5 37,-206.5 120,-206.5 120,-116.5 37,-116.5"/>
<text text-anchor="middle" x="78.5" y="-194.5" font-family="Helvetica,sans-Serif" font-size="10.00">TableModule</text>
<polyline fill="none" stroke="black" points="37,-187.5 120,-187.5 "/>
<text text-anchor="start" x="45" y="-175.5" font-family="Helvetica,sans-Serif" font-size="10.00">&#45; $rows</text>
<polyline fill="none" stroke="black" points="37,-168.5 120,-168.5 "/>
<text text-anchor="start" x="45" y="-156.5" font-family="Helvetica,sans-Serif" font-size="10.00">+ __construct()</text>
<text text-anchor="start" x="45" y="-145.5" font-family="Helvetica,sans-Serif" font-size="10.00">+ add()</text>
<text text-anchor="start" x="45" y="-134.5" font-family="Helvetica,sans-Serif" font-size="10.00">+ view()</text>
<text text-anchor="start" x="45" y="-123.5" font-family="Helvetica,sans-Serif" font-size="10.00"># getRows()</text>
</g>
<!-- Node2 -->
<g id="node2" class="node"><title>Node2</title>
<g id="a_node2"><a xlink:href="classDisciplines.html" target="_top" xlink:title="{Disciplines\n||+ view()\l}">
<polygon fill="white" stroke="black" points="0,-11.5 0,-68.5 65,-68.5 65,-11.5 0,-11.5"/>
<text text-anchor="middle" x="32.5" y="-56.5" font-family="Helvetica,sans-Serif" font-size="10.00">Disciplines</text>
<polyline fill="none" stroke="black" points="0,-49.5 65,-49.5 "/>
<text text-anchor="middle" x="32.5" y="-37.5" font-family="Helvetica,sans-Serif" font-size="10.00"> </text>
<polyline fill="none" stroke="black" points="0,-30.5 65,-30.5 "/>
<text text-anchor="start" x="8" y="-18.5" font-family="Helvetica,sans-Serif" font-size="10.00">+ view()</text>
</a>
</g>
</g>
<!-- Node1&#45;&gt;Node2 -->
<g id="edge1" class="edge"><title>Node1&#45;&gt;Node2</title>
<path fill="none" stroke="midnightblue" d="M57.847,-106.847C52.7704,-93.6591 47.5397,-80.0706 43.1581,-68.6879"/>
<polygon fill="none" stroke="midnightblue" points="54.6432,-108.267 61.502,-116.342 61.1759,-105.752 54.6432,-108.267"/>
</g>
<!-- Node3 -->
<g id="node3" class="node"><title>Node3</title>
<g id="a_node3"><a xlink:href="classMaterials.html" target="_top" xlink:title="{Materials\n|&#45; $filter\l|+ __construct()\l+ view()\l+ add()\l}">
<polygon fill="white" stroke="black" points="83,-0.5 83,-79.5 166,-79.5 166,-0.5 83,-0.5"/>
<text text-anchor="middle" x="124.5" y="-67.5" font-family="Helvetica,sans-Serif" font-size="10.00">Materials</text>
<polyline fill="none" stroke="black" points="83,-60.5 166,-60.5 "/>
<text text-anchor="start" x="91" y="-48.5" font-family="Helvetica,sans-Serif" font-size="10.00">&#45; $filter</text>
<polyline fill="none" stroke="black" points="83,-41.5 166,-41.5 "/>
<text text-anchor="start" x="91" y="-29.5" font-family="Helvetica,sans-Serif" font-size="10.00">+ __construct()</text>
<text text-anchor="start" x="91" y="-18.5" font-family="Helvetica,sans-Serif" font-size="10.00">+ view()</text>
<text text-anchor="start" x="91" y="-7.5" font-family="Helvetica,sans-Serif" font-size="10.00">+ add()</text>
</a>
</g>
</g>
<!-- Node1&#45;&gt;Node3 -->
<g id="edge2" class="edge"><title>Node1&#45;&gt;Node3</title>
<path fill="none" stroke="midnightblue" d="M99.116,-106.943C102.627,-97.8217 106.213,-88.5056 109.542,-79.8576"/>
<polygon fill="none" stroke="midnightblue" points="95.8241,-105.752 95.498,-116.342 102.357,-108.267 95.8241,-105.752"/>
</g>
</g>
</svg>
