<?xml version="1.0" encoding="UTF-8" standalone="no"?>
<!DOCTYPE svg PUBLIC "-//W3C//DTD SVG 1.1//EN"
 "http://www.w3.org/Graphics/SVG/1.1/DTD/svg11.dtd">
<!-- Generated by graphviz version 2.38.0 (20140413.2041)
 -->
<!-- Title: Database Pages: 1 -->
<svg width="91pt" height="193pt"
 viewBox="0.00 0.00 91.00 193.00" xmlns="http://www.w3.org/2000/svg" xmlns:xlink="http://www.w3.org/1999/xlink">
<g id="graph0" class="graph" transform="scale(1 1) rotate(0) translate(4 189)">
<title>Database</title>
<polygon fill="white" stroke="none" points="-4,4 -4,-189 87,-189 87,4 -4,4"/>
<!-- Node1 -->
<g id="node1" class="node"><title>Node1</title>
<polygon fill="#bfbfbf" stroke="black" points="0,-0.5 0,-90.5 83,-90.5 83,-0.5 0,-0.5"/>
<text text-anchor="middle" x="41.5" y="-78.5" font-family="Helvetica,sans-Serif" font-size="10.00">Database</text>
<polyline fill="none" stroke="black" points="0,-71.5 83,-71.5 "/>
<text text-anchor="start" x="8" y="-59.5" font-family="Helvetica,sans-Serif" font-size="10.00">&#45; $host</text>
<text text-anchor="start" x="8" y="-48.5" font-family="Helvetica,sans-Serif" font-size="10.00">&#45; $passwd</text>
<text text-anchor="start" x="8" y="-37.5" font-family="Helvetica,sans-Serif" font-size="10.00">&#45; $username</text>
<text text-anchor="start" x="8" y="-26.5" font-family="Helvetica,sans-Serif" font-size="10.00">&#45; $dbname</text>
<polyline fill="none" stroke="black" points="0,-19.5 83,-19.5 "/>
<text text-anchor="start" x="8" y="-7.5" font-family="Helvetica,sans-Serif" font-size="10.00">+ __construct()</text>
</g>
<!-- Node2 -->
<g id="node2" class="node"><title>Node2</title>
<polygon fill="white" stroke="#bfbfbf" points="22.5,-127.5 22.5,-184.5 60.5,-184.5 60.5,-127.5 22.5,-127.5"/>
<text text-anchor="middle" x="41.5" y="-172.5" font-family="Helvetica,sans-Serif" font-size="10.00">PDO</text>
<polyline fill="none" stroke="#bfbfbf" points="22.5,-165.5 60.5,-165.5 "/>
<text text-anchor="middle" x="41.5" y="-153.5" font-family="Helvetica,sans-Serif" font-size="10.00"> </text>
<polyline fill="none" stroke="#bfbfbf" points="22.5,-146.5 60.5,-146.5 "/>
<text text-anchor="middle" x="41.5" y="-134.5" font-family="Helvetica,sans-Serif" font-size="10.00"> </text>
</g>
<!-- Node2&#45;&gt;Node1 -->
<g id="edge1" class="edge"><title>Node2&#45;&gt;Node1</title>
<path fill="none" stroke="midnightblue" d="M41.5,-117.214C41.5,-108.609 41.5,-99.3943 41.5,-90.5541"/>
<polygon fill="none" stroke="midnightblue" points="38.0001,-117.34 41.5,-127.34 45.0001,-117.34 38.0001,-117.34"/>
</g>
</g>
</svg>
