<?xml version="1.0" encoding="UTF-8" standalone="no"?>
<!DOCTYPE svg PUBLIC "-//W3C//DTD SVG 1.1//EN"
 "http://www.w3.org/Graphics/SVG/1.1/DTD/svg11.dtd">
<!-- Generated by graphviz version 2.38.0 (20140413.2041)
 -->
<!-- Title: ProfessorsModel Pages: 1 -->
<svg width="98pt" height="425pt"
 viewBox="0.00 0.00 98.00 425.00" xmlns="http://www.w3.org/2000/svg" xmlns:xlink="http://www.w3.org/1999/xlink">
<g id="graph0" class="graph" transform="scale(1 1) rotate(0) translate(4 421)">
<title>ProfessorsModel</title>
<polygon fill="white" stroke="none" points="-4,4 -4,-421 94,-421 94,4 -4,4"/>
<!-- Node1 -->
<g id="node1" class="node"><title>Node1</title>
<polygon fill="#bfbfbf" stroke="black" points="0,-0.5 0,-57.5 90,-57.5 90,-0.5 0,-0.5"/>
<text text-anchor="middle" x="45" y="-45.5" font-family="Helvetica,sans-Serif" font-size="10.00">ProfessorsModel</text>
<polyline fill="none" stroke="black" points="0,-38.5 90,-38.5 "/>
<text text-anchor="middle" x="45" y="-26.5" font-family="Helvetica,sans-Serif" font-size="10.00"> </text>
<polyline fill="none" stroke="black" points="0,-19.5 90,-19.5 "/>
<text text-anchor="start" x="8" y="-7.5" font-family="Helvetica,sans-Serif" font-size="10.00">+ __construct()</text>
</g>
<!-- Node2 -->
<g id="node2" class="node"><title>Node2</title>
<g id="a_node2"><a xlink:href="classBasicModel.html" target="_top" xlink:title="{BasicModel\n|&#45; $gateway\l|+ __construct()\l+ getValue()\l}">
<polygon fill="white" stroke="black" points="3.5,-94.5 3.5,-162.5 86.5,-162.5 86.5,-94.5 3.5,-94.5"/>
<text text-anchor="middle" x="45" y="-150.5" font-family="Helvetica,sans-Serif" font-size="10.00">BasicModel</text>
<polyline fill="none" stroke="black" points="3.5,-143.5 86.5,-143.5 "/>
<text text-anchor="start" x="11.5" y="-131.5" font-family="Helvetica,sans-Serif" font-size="10.00">&#45; $gateway</text>
<polyline fill="none" stroke="black" points="3.5,-124.5 86.5,-124.5 "/>
<text text-anchor="start" x="11.5" y="-112.5" font-family="Helvetica,sans-Serif" font-size="10.00">+ __construct()</text>
<text text-anchor="start" x="11.5" y="-101.5" font-family="Helvetica,sans-Serif" font-size="10.00">+ getValue()</text>
</a>
</g>
</g>
<!-- Node2&#45;&gt;Node1 -->
<g id="edge1" class="edge"><title>Node2&#45;&gt;Node1</title>
<path fill="none" stroke="midnightblue" d="M45,-84.4538C45,-75.4036 45,-66.0876 45,-57.7765"/>
<polygon fill="none" stroke="midnightblue" points="41.5001,-84.4909 45,-94.4909 48.5001,-84.491 41.5001,-84.4909"/>
</g>
<!-- Node3 -->
<g id="node3" class="node"><title>Node3</title>
<g id="a_node3"><a xlink:href="classModel.html" target="_top" xlink:title="{Model\n|&#45; $next\l|+ otvetchat()\l+ getValue()\l+ setNext()\l+ getNext()\l+ setName()\l+ getName()\l}">
<polygon fill="white" stroke="black" points="9,-199.5 9,-311.5 81,-311.5 81,-199.5 9,-199.5"/>
<text text-anchor="middle" x="45" y="-299.5" font-family="Helvetica,sans-Serif" font-size="10.00">Model</text>
<polyline fill="none" stroke="black" points="9,-292.5 81,-292.5 "/>
<text text-anchor="start" x="17" y="-280.5" font-family="Helvetica,sans-Serif" font-size="10.00">&#45; $next</text>
<polyline fill="none" stroke="black" points="9,-273.5 81,-273.5 "/>
<text text-anchor="start" x="17" y="-261.5" font-family="Helvetica,sans-Serif" font-size="10.00">+ otvetchat()</text>
<text text-anchor="start" x="17" y="-250.5" font-family="Helvetica,sans-Serif" font-size="10.00">+ getValue()</text>
<text text-anchor="start" x="17" y="-239.5" font-family="Helvetica,sans-Serif" font-size="10.00">+ setNext()</text>
<text text-anchor="start" x="17" y="-228.5" font-family="Helvetica,sans-Serif" font-size="10.00">+ getNext()</text>
<text text-anchor="start" x="17" y="-217.5" font-family="Helvetica,sans-Serif" font-size="10.00">+ setName()</text>
<text text-anchor="start" x="17" y="-206.5" font-family="Helvetica,sans-Serif" font-size="10.00">+ getName()</text>
</a>
</g>
</g>
<!-- Node3&#45;&gt;Node2 -->
<g id="edge2" class="edge"><title>Node3&#45;&gt;Node2</title>
<path fill="none" stroke="midnightblue" d="M45,-189.257C45,-179.987 45,-170.797 45,-162.506"/>
<polygon fill="none" stroke="midnightblue" points="41.5001,-189.309 45,-199.309 48.5001,-189.309 41.5001,-189.309"/>
</g>
<!-- Node4 -->
<g id="node4" class="node"><title>Node4</title>
<g id="a_node4"><a xlink:href="interfaceMogetOtvetchat.html" target="_top" xlink:title="{MogetOtvetchat\n||+ otvetchat()\l+ setNext()\l}">
<polygon fill="white" stroke="black" points="2,-348.5 2,-416.5 88,-416.5 88,-348.5 2,-348.5"/>
<text text-anchor="middle" x="45" y="-404.5" font-family="Helvetica,sans-Serif" font-size="10.00">MogetOtvetchat</text>
<polyline fill="none" stroke="black" points="2,-397.5 88,-397.5 "/>
<text text-anchor="middle" x="45" y="-385.5" font-family="Helvetica,sans-Serif" font-size="10.00"> </text>
<polyline fill="none" stroke="black" points="2,-378.5 88,-378.5 "/>
<text text-anchor="start" x="10" y="-366.5" font-family="Helvetica,sans-Serif" font-size="10.00">+ otvetchat()</text>
<text text-anchor="start" x="10" y="-355.5" font-family="Helvetica,sans-Serif" font-size="10.00">+ setNext()</text>
</a>
</g>
</g>
<!-- Node4&#45;&gt;Node3 -->
<g id="edge3" class="edge"><title>Node4&#45;&gt;Node3</title>
<path fill="none" stroke="midnightblue" d="M45,-338.182C45,-329.604 45,-320.493 45,-311.585"/>
<polygon fill="none" stroke="midnightblue" points="41.5001,-338.33 45,-348.33 48.5001,-338.331 41.5001,-338.33"/>
</g>
</g>
</svg>
