<?xml version="1.0" encoding="UTF-8" standalone="no"?>
<!DOCTYPE svg PUBLIC "-//W3C//DTD SVG 1.1//EN"
 "http://www.w3.org/Graphics/SVG/1.1/DTD/svg11.dtd">
<!-- Generated by graphviz version 2.38.0 (20140413.2041)
 -->
<!-- Title: Иерархия классов. Графический вид. Pages: 1 -->
<svg width="181pt" height="66pt"
 viewBox="0.00 0.00 181.00 66.00" xmlns="http://www.w3.org/2000/svg" xmlns:xlink="http://www.w3.org/1999/xlink">
<g id="graph0" class="graph" transform="scale(1 1) rotate(0) translate(4 62)">
<title>Иерархия классов. Графический вид.</title>
<polygon fill="white" stroke="none" points="-4,4 -4,-62 177,-62 177,4 -4,4"/>
<!-- Node1 -->
<g id="node1" class="node"><title>Node1</title>
<g id="a_node1"><a xlink:href="classTableModule.html" target="_top" xlink:title="TableModule">
<polygon fill="white" stroke="black" points="0,-19.5 0,-38.5 72,-38.5 72,-19.5 0,-19.5"/>
<text text-anchor="middle" x="36" y="-26.5" font-family="Helvetica,sans-Serif" font-size="10.00">TableModule</text>
</a>
</g>
</g>
<!-- Node2 -->
<g id="node2" class="node"><title>Node2</title>
<g id="a_node2"><a xlink:href="classDisciplines.html" target="_top" xlink:title="Disciplines">
<polygon fill="white" stroke="black" points="108,-38.5 108,-57.5 173,-57.5 173,-38.5 108,-38.5"/>
<text text-anchor="middle" x="140.5" y="-45.5" font-family="Helvetica,sans-Serif" font-size="10.00">Disciplines</text>
</a>
</g>
</g>
<!-- Node1&#45;&gt;Node2 -->
<g id="edge1" class="edge"><title>Node1&#45;&gt;Node2</title>
<path fill="none" stroke="midnightblue" d="M82.2736,-37.3922C90.9328,-38.9973 99.8228,-40.6452 107.936,-42.1492"/>
<polygon fill="midnightblue" stroke="midnightblue" points="82.7451,-33.92 72.2747,-35.5387 81.4692,-40.8028 82.7451,-33.92"/>
</g>
<!-- Node3 -->
<g id="node3" class="node"><title>Node3</title>
<g id="a_node3"><a xlink:href="classMaterials.html" target="_top" xlink:title="Materials">
<polygon fill="white" stroke="black" points="112.5,-0.5 112.5,-19.5 168.5,-19.5 168.5,-0.5 112.5,-0.5"/>
<text text-anchor="middle" x="140.5" y="-7.5" font-family="Helvetica,sans-Serif" font-size="10.00">Materials</text>
</a>
</g>
</g>
<!-- Node1&#45;&gt;Node3 -->
<g id="edge2" class="edge"><title>Node1&#45;&gt;Node3</title>
<path fill="none" stroke="midnightblue" d="M82.3187,-20.5995C92.5301,-18.7066 103.06,-16.7548 112.257,-15.0499"/>
<polygon fill="midnightblue" stroke="midnightblue" points="81.4692,-17.1972 72.2747,-22.4613 82.7451,-24.08 81.4692,-17.1972"/>
</g>
</g>
</svg>
