<?xml version="1.0" encoding="UTF-8" standalone="no"?>
<!DOCTYPE svg PUBLIC "-//W3C//DTD SVG 1.1//EN"
 "http://www.w3.org/Graphics/SVG/1.1/DTD/svg11.dtd">
<!-- Generated by graphviz version 2.38.0 (20140413.2041)
 -->
<!-- Title: Иерархия классов. Графический вид. Pages: 1 -->
<svg width="420pt" height="104pt"
 viewBox="0.00 0.00 420.00 104.00" xmlns="http://www.w3.org/2000/svg" xmlns:xlink="http://www.w3.org/1999/xlink">
<g id="graph0" class="graph" transform="scale(1 1) rotate(0) translate(4 100)">
<title>Иерархия классов. Графический вид.</title>
<polygon fill="white" stroke="none" points="-4,4 -4,-100 416,-100 416,4 -4,4"/>
<!-- Node1 -->
<g id="node1" class="node"><title>Node1</title>
<g id="a_node1"><a xlink:href="interfaceMogetOtvetchat.html" target="_top" xlink:title="MogetOtvetchat">
<polygon fill="white" stroke="black" points="0,-19.5 0,-38.5 86,-38.5 86,-19.5 0,-19.5"/>
<text text-anchor="middle" x="43" y="-26.5" font-family="Helvetica,sans-Serif" font-size="10.00">MogetOtvetchat</text>
</a>
</g>
</g>
<!-- Node2 -->
<g id="node2" class="node"><title>Node2</title>
<g id="a_node2"><a xlink:href="classModel.html" target="_top" xlink:title="Model">
<polygon fill="white" stroke="black" points="122,-19.5 122,-38.5 165,-38.5 165,-19.5 122,-19.5"/>
<text text-anchor="middle" x="143.5" y="-26.5" font-family="Helvetica,sans-Serif" font-size="10.00">Model</text>
</a>
</g>
</g>
<!-- Node1&#45;&gt;Node2 -->
<g id="edge1" class="edge"><title>Node1&#45;&gt;Node2</title>
<path fill="none" stroke="midnightblue" d="M96.2543,-29C105.292,-29 114.193,-29 121.737,-29"/>
<polygon fill="midnightblue" stroke="midnightblue" points="96.0586,-25.5001 86.0586,-29 96.0585,-32.5001 96.0586,-25.5001"/>
</g>
<!-- Node3 -->
<g id="node3" class="node"><title>Node3</title>
<g id="a_node3"><a xlink:href="classBasicModel.html" target="_top" xlink:title="BasicModel">
<polygon fill="white" stroke="black" points="209,-38.5 209,-57.5 277,-57.5 277,-38.5 209,-38.5"/>
<text text-anchor="middle" x="243" y="-45.5" font-family="Helvetica,sans-Serif" font-size="10.00">BasicModel</text>
</a>
</g>
</g>
<!-- Node2&#45;&gt;Node3 -->
<g id="edge2" class="edge"><title>Node2&#45;&gt;Node3</title>
<path fill="none" stroke="midnightblue" d="M175.276,-34.9975C185.909,-37.0694 197.868,-39.3998 208.693,-41.5094"/>
<polygon fill="midnightblue" stroke="midnightblue" points="175.662,-31.5068 165.177,-33.0294 174.323,-38.3776 175.662,-31.5068"/>
</g>
<!-- Node7 -->
<g id="node7" class="node"><title>Node7</title>
<g id="a_node7"><a xlink:href="classStudentAdapter.html" target="_top" xlink:title="StudentAdapter">
<polygon fill="white" stroke="black" points="201,-0.5 201,-19.5 285,-19.5 285,-0.5 201,-0.5"/>
<text text-anchor="middle" x="243" y="-7.5" font-family="Helvetica,sans-Serif" font-size="10.00">StudentAdapter</text>
</a>
</g>
</g>
<!-- Node2&#45;&gt;Node7 -->
<g id="edge6" class="edge"><title>Node2&#45;&gt;Node7</title>
<path fill="none" stroke="midnightblue" d="M175.036,-23.0495C183.224,-21.4539 192.212,-19.7022 200.872,-18.0147"/>
<polygon fill="midnightblue" stroke="midnightblue" points="174.323,-19.6224 165.177,-24.9706 175.662,-26.4931 174.323,-19.6224"/>
</g>
<!-- Node4 -->
<g id="node4" class="node"><title>Node4</title>
<g id="a_node4"><a xlink:href="classDisciplinesModel.html" target="_top" xlink:title="DisciplinesModel">
<polygon fill="white" stroke="black" points="321,-76.5 321,-95.5 412,-95.5 412,-76.5 321,-76.5"/>
<text text-anchor="middle" x="366.5" y="-83.5" font-family="Helvetica,sans-Serif" font-size="10.00">DisciplinesModel</text>
</a>
</g>
</g>
<!-- Node3&#45;&gt;Node4 -->
<g id="edge3" class="edge"><title>Node3&#45;&gt;Node4</title>
<path fill="none" stroke="midnightblue" d="M284.544,-60.6804C300.961,-65.8148 319.599,-71.6441 334.85,-76.4141"/>
<polygon fill="midnightblue" stroke="midnightblue" points="285.248,-57.2336 274.66,-57.589 283.159,-63.9145 285.248,-57.2336"/>
</g>
<!-- Node5 -->
<g id="node5" class="node"><title>Node5</title>
<g id="a_node5"><a xlink:href="classMaterialsModel.html" target="_top" xlink:title="MaterialsModel">
<polygon fill="white" stroke="black" points="325,-38.5 325,-57.5 408,-57.5 408,-38.5 325,-38.5"/>
<text text-anchor="middle" x="366.5" y="-45.5" font-family="Helvetica,sans-Serif" font-size="10.00">MaterialsModel</text>
</a>
</g>
</g>
<!-- Node3&#45;&gt;Node5 -->
<g id="edge4" class="edge"><title>Node3&#45;&gt;Node5</title>
<path fill="none" stroke="midnightblue" d="M287.229,-48C299.519,-48 312.856,-48 324.979,-48"/>
<polygon fill="midnightblue" stroke="midnightblue" points="287.2,-44.5001 277.2,-48 287.2,-51.5001 287.2,-44.5001"/>
</g>
<!-- Node6 -->
<g id="node6" class="node"><title>Node6</title>
<g id="a_node6"><a xlink:href="classProfessorsModel.html" target="_top" xlink:title="ProfessorsModel">
<polygon fill="white" stroke="black" points="321.5,-0.5 321.5,-19.5 411.5,-19.5 411.5,-0.5 321.5,-0.5"/>
<text text-anchor="middle" x="366.5" y="-7.5" font-family="Helvetica,sans-Serif" font-size="10.00">ProfessorsModel</text>
</a>
</g>
</g>
<!-- Node3&#45;&gt;Node6 -->
<g id="edge5" class="edge"><title>Node3&#45;&gt;Node6</title>
<path fill="none" stroke="midnightblue" d="M284.544,-35.3196C300.961,-30.1852 319.599,-24.3559 334.85,-19.5859"/>
<polygon fill="midnightblue" stroke="midnightblue" points="283.159,-32.0855 274.66,-38.411 285.248,-38.7664 283.159,-32.0855"/>
</g>
</g>
</svg>
