<?xml version="1.0" encoding="UTF-8" standalone="no"?>
<!DOCTYPE svg PUBLIC "-//W3C//DTD SVG 1.1//EN"
 "http://www.w3.org/Graphics/SVG/1.1/DTD/svg11.dtd">
<!-- Generated by graphviz version 2.38.0 (20140413.2041)
 -->
<!-- Title: Иерархия классов. Графический вид. Pages: 1 -->
<svg width="185pt" height="66pt"
 viewBox="0.00 0.00 185.00 66.00" xmlns="http://www.w3.org/2000/svg" xmlns:xlink="http://www.w3.org/1999/xlink">
<g id="graph0" class="graph" transform="scale(1 1) rotate(0) translate(4 62)">
<title>Иерархия классов. Графический вид.</title>
<polygon fill="white" stroke="none" points="-4,4 -4,-62 181,-62 181,4 -4,4"/>
<!-- Node1 -->
<g id="node1" class="node"><title>Node1</title>
<g id="a_node1"><a xlink:href="classMapper.html" target="_top" xlink:title="Mapper">
<polygon fill="white" stroke="black" points="0,-19.5 0,-38.5 49,-38.5 49,-19.5 0,-19.5"/>
<text text-anchor="middle" x="24.5" y="-26.5" font-family="Helvetica,sans-Serif" font-size="10.00">Mapper</text>
</a>
</g>
</g>
<!-- Node2 -->
<g id="node2" class="node"><title>Node2</title>
<g id="a_node2"><a xlink:href="classDisciplineMapper.html" target="_top" xlink:title="DisciplineMapper">
<polygon fill="white" stroke="black" points="85,-38.5 85,-57.5 177,-57.5 177,-38.5 85,-38.5"/>
<text text-anchor="middle" x="131" y="-45.5" font-family="Helvetica,sans-Serif" font-size="10.00">DisciplineMapper</text>
</a>
</g>
</g>
<!-- Node1&#45;&gt;Node2 -->
<g id="edge1" class="edge"><title>Node1&#45;&gt;Node2</title>
<path fill="none" stroke="midnightblue" d="M59.176,-35.1229C67.3975,-36.6177 76.3244,-38.2408 84.9813,-39.8148"/>
<polygon fill="midnightblue" stroke="midnightblue" points="59.6775,-31.6568 49.2127,-33.3114 58.4252,-38.5439 59.6775,-31.6568"/>
</g>
<!-- Node3 -->
<g id="node3" class="node"><title>Node3</title>
<g id="a_node3"><a xlink:href="classMaterialsMapper.html" target="_top" xlink:title="MaterialsMapper">
<polygon fill="white" stroke="black" points="86.5,-0.5 86.5,-19.5 175.5,-19.5 175.5,-0.5 86.5,-0.5"/>
<text text-anchor="middle" x="131" y="-7.5" font-family="Helvetica,sans-Serif" font-size="10.00">MaterialsMapper</text>
</a>
</g>
</g>
<!-- Node1&#45;&gt;Node3 -->
<g id="edge2" class="edge"><title>Node1&#45;&gt;Node3</title>
<path fill="none" stroke="midnightblue" d="M59.2476,-22.8641C67.8482,-21.3003 77.2168,-19.5969 86.2385,-17.9566"/>
<polygon fill="midnightblue" stroke="midnightblue" points="58.4252,-19.4561 49.2127,-24.6886 59.6775,-26.3432 58.4252,-19.4561"/>
</g>
</g>
</svg>
