<?xml version="1.0" encoding="UTF-8" standalone="no"?>
<!DOCTYPE svg PUBLIC "-//W3C//DTD SVG 1.1//EN"
 "http://www.w3.org/Graphics/SVG/1.1/DTD/svg11.dtd">
<!-- Generated by graphviz version 2.38.0 (20140413.2041)
 -->
<!-- Title: Viewer Pages: 1 -->
<svg width="79pt" height="182pt"
 viewBox="0.00 0.00 79.00 182.00" xmlns="http://www.w3.org/2000/svg" xmlns:xlink="http://www.w3.org/1999/xlink">
<g id="graph0" class="graph" transform="scale(1 1) rotate(0) translate(4 178)">
<title>Viewer</title>
<polygon fill="white" stroke="none" points="-4,4 -4,-178 75,-178 75,4 -4,4"/>
<!-- Node1 -->
<g id="node1" class="node"><title>Node1</title>
<polygon fill="#bfbfbf" stroke="black" points="9.5,-116.5 9.5,-173.5 61.5,-173.5 61.5,-116.5 9.5,-116.5"/>
<text text-anchor="middle" x="35.5" y="-161.5" font-family="Helvetica,sans-Serif" font-size="10.00">Viewer</text>
<polyline fill="none" stroke="black" points="9.5,-154.5 61.5,-154.5 "/>
<text text-anchor="middle" x="35.5" y="-142.5" font-family="Helvetica,sans-Serif" font-size="10.00"> </text>
<polyline fill="none" stroke="black" points="9.5,-135.5 61.5,-135.5 "/>
<text text-anchor="start" x="17.5" y="-123.5" font-family="Helvetica,sans-Serif" font-size="10.00">+ view()</text>
</g>
<!-- Node2 -->
<g id="node2" class="node"><title>Node2</title>
<g id="a_node2"><a xlink:href="classListViewer.html" target="_top" xlink:title="visualization under the form of a list of text fields ">
<polygon fill="white" stroke="black" points="0,-0.5 0,-79.5 71,-79.5 71,-0.5 0,-0.5"/>
<text text-anchor="middle" x="35.5" y="-67.5" font-family="Helvetica,sans-Serif" font-size="10.00">ListViewer</text>
<polyline fill="none" stroke="black" points="0,-60.5 71,-60.5 "/>
<text text-anchor="middle" x="35.5" y="-48.5" font-family="Helvetica,sans-Serif" font-size="10.00"> </text>
<polyline fill="none" stroke="black" points="0,-41.5 71,-41.5 "/>
<text text-anchor="start" x="8" y="-29.5" font-family="Helvetica,sans-Serif" font-size="10.00">+ view()</text>
<text text-anchor="start" x="8" y="-18.5" font-family="Helvetica,sans-Serif" font-size="10.00">&#45; viewElem()</text>
<text text-anchor="start" x="8" y="-7.5" font-family="Helvetica,sans-Serif" font-size="10.00">&#45; viewInput()</text>
</a>
</g>
</g>
<!-- Node1&#45;&gt;Node2 -->
<g id="edge1" class="edge"><title>Node1&#45;&gt;Node2</title>
<path fill="none" stroke="midnightblue" d="M35.5,-106.156C35.5,-97.4733 35.5,-88.2318 35.5,-79.5205"/>
<polygon fill="none" stroke="midnightblue" points="32.0001,-106.398 35.5,-116.398 39.0001,-106.398 32.0001,-106.398"/>
</g>
</g>
</svg>
