<!DOCTYPE svg PUBLIC "-//W3C//DTD SVG 1.1//EN"
 "http://www.w3.org/Graphics/SVG/1.1/DTD/svg11.dtd">
<svg version="1.1"
 width="600px" height="549px"
 viewBox="0 0 600 549"
 xmlns="http://www.w3.org/2000/svg" shape-rendering="crispEdges"
 stroke-width="1" text-rendering="geometricPrecision">
<polygon fill="white" points="52,7 66,7 66,16 52,16"/>
<text x="60" y="16" textLength="12" font-family="Helvetica" font-size="12" fill="black" text-anchor="middle">

UI
</text>
<polygon fill="white" points="165,7 193,7 193,16 165,16"/>
<text x="180" y="16" textLength="26" font-family="Helvetica" font-size="12" fill="black" text-anchor="middle">

Main
</text>
<polygon fill="white" points="276,7 322,7 322,16 276,16"/>
<text x="300" y="16" textLength="45" font-family="Helvetica" font-size="12" fill="black" text-anchor="middle">

Request
</text>
<polygon fill="white" points="391,7 447,7 447,16 391,16"/>
<text x="420" y="16" textLength="55" font-family="Helvetica" font-size="12" fill="black" text-anchor="middle">

ListViewer
</text>
<polygon fill="white" points="521,7 557,7 557,16 521,16"/>
<text x="540" y="16" textLength="35" font-family="Helvetica" font-size="12" fill="black" text-anchor="middle">

Server
</text>
<line x1="60" y1="22" x2="60" y2="50" stroke="black"/>
<line x1="180" y1="22" x2="180" y2="50" stroke="black"/>
<line x1="300" y1="22" x2="300" y2="50" stroke="black"/>
<line x1="420" y1="22" x2="420" y2="50" stroke="black"/>
<line x1="540" y1="22" x2="540" y2="50" stroke="black"/>
<line x1="60" y1="33" x2="180" y2="33" stroke="black"/>
<polygon fill="black" points="180,33 170,39 170,27"/>
<polygon fill="white" points="84,23 154,23 154,32 84,32"/>
<text x="85" y="32" textLength="68" font-family="Helvetica" font-size="12" fill="black">
do_request()
</text>
<line x1="60" y1="50" x2="60" y2="78" stroke="black"/>
<line x1="180" y1="50" x2="180" y2="78" stroke="black"/>
<line x1="300" y1="50" x2="300" y2="78" stroke="black"/>
<line x1="420" y1="50" x2="420" y2="78" stroke="black"/>
<line x1="540" y1="50" x2="540" y2="78" stroke="black"/>
<line x1="180" y1="61" x2="300" y2="61" stroke="black"/>
<line x1="300" y1="61" x2="290" y2="67" stroke="black"/>
<line x1="60" y1="78" x2="60" y2="106" stroke="black"/>
<line x1="180" y1="78" x2="180" y2="106" stroke="black"/>
<line x1="300" y1="78" x2="300" y2="106" stroke="black"/>
<line x1="420" y1="78" x2="420" y2="106" stroke="black"/>
<line x1="540" y1="78" x2="540" y2="106" stroke="black"/>
<polygon fill="white" points="254,78 346,78 346,100 254,100"/>
<polygon fill="white" points="254,78 254,100 248,89"/>
<polygon fill="white" points="346,78 346,100 352,89"/>
<line x1="254" y1="78" x2="346" y2="78" stroke="black"/>
<line x1="254" y1="100" x2="346" y2="100" stroke="black"/>
<line x1="254" y1="78" x2="248" y2="89" stroke="black"/>
<line x1="248" y1="89" x2="254" y2="100" stroke="black"/>
<line x1="346" y1="78" x2="352" y2="89" stroke="black"/>
<line x1="352" y1="89" x2="346" y2="100" stroke="black"/>
<polygon fill="white" points="265,85 334,85 334,94 265,94"/>
<text x="266" y="94" textLength="67" font-family="Helvetica" font-size="12" fill="black">
instanciation
</text>
<line x1="60" y1="106" x2="60" y2="134" stroke="black"/>
<line x1="180" y1="106" x2="180" y2="134" stroke="black"/>
<line x1="300" y1="106" x2="300" y2="134" stroke="black"/>
<line x1="420" y1="106" x2="420" y2="134" stroke="black"/>
<line x1="540" y1="106" x2="540" y2="134" stroke="black"/>
<line x1="180" y1="117" x2="300" y2="117" stroke="black"/>
<polygon fill="black" points="300,117 290,123 290,111"/>
<polygon fill="white" points="222,107 256,107 256,116 222,116"/>
<text x="223" y="116" textLength="32" font-family="Helvetica" font-size="12" fill="black">
read()
</text>
<line x1="60" y1="134" x2="60" y2="162" stroke="black"/>
<line x1="180" y1="134" x2="180" y2="162" stroke="black"/>
<line x1="300" y1="134" x2="300" y2="162" stroke="black"/>
<line x1="420" y1="134" x2="420" y2="162" stroke="black"/>
<line x1="540" y1="134" x2="540" y2="162" stroke="black"/>
<line x1="300" y1="145" x2="540" y2="145" stroke="black"/>
<line x1="540" y1="145" x2="530" y2="151" stroke="black"/>
<polygon fill="white" points="370,135 469,135 469,144 370,144"/>
<text x="371" y="144" textLength="97" font-family="Helvetica" font-size="12" fill="black">
API HTTP request
</text>
<line x1="60" y1="162" x2="60" y2="190" stroke="black"/>
<line x1="180" y1="162" x2="180" y2="190" stroke="black"/>
<line x1="300" y1="162" x2="300" y2="190" stroke="black"/>
<line x1="420" y1="162" x2="420" y2="190" stroke="black"/>
<line x1="540" y1="162" x2="540" y2="190" stroke="black"/>
<line x1="540" y1="173" x2="300" y2="173" stroke="black"/>
<line x1="300" y1="173" x2="310" y2="179" stroke="black"/>
<polygon fill="white" points="381,163 458,163 458,172 381,172"/>
<text x="382" y="172" textLength="75" font-family="Helvetica" font-size="12" fill="black">
json response
</text>
<line x1="60" y1="190" x2="60" y2="218" stroke="black"/>
<line x1="180" y1="190" x2="180" y2="218" stroke="black"/>
<line x1="300" y1="190" x2="300" y2="218" stroke="black"/>
<line x1="420" y1="190" x2="420" y2="218" stroke="black"/>
<line x1="540" y1="190" x2="540" y2="218" stroke="black"/>
<line x1="300" y1="201" x2="420" y2="201" stroke="black"/>
<line x1="420" y1="201" x2="410" y2="207" stroke="black"/>
<line x1="60" y1="218" x2="60" y2="246" stroke="black"/>
<line x1="180" y1="218" x2="180" y2="246" stroke="black"/>
<line x1="300" y1="218" x2="300" y2="246" stroke="black"/>
<line x1="420" y1="218" x2="420" y2="246" stroke="black"/>
<line x1="540" y1="218" x2="540" y2="246" stroke="black"/>
<polygon fill="white" points="374,218 466,218 466,240 374,240"/>
<polygon fill="white" points="374,218 374,240 368,229"/>
<polygon fill="white" points="466,218 466,240 472,229"/>
<line x1="374" y1="218" x2="466" y2="218" stroke="black"/>
<line x1="374" y1="240" x2="466" y2="240" stroke="black"/>
<line x1="374" y1="218" x2="368" y2="229" stroke="black"/>
<line x1="368" y1="229" x2="374" y2="240" stroke="black"/>
<line x1="466" y1="218" x2="472" y2="229" stroke="black"/>
<line x1="472" y1="229" x2="466" y2="240" stroke="black"/>
<polygon fill="white" points="385,225 454,225 454,234 385,234"/>
<text x="386" y="234" textLength="67" font-family="Helvetica" font-size="12" fill="black">
instanciation
</text>
<line x1="60" y1="246" x2="60" y2="274" stroke="black"/>
<line x1="180" y1="246" x2="180" y2="274" stroke="black"/>
<line x1="300" y1="246" x2="300" y2="274" stroke="black"/>
<line x1="420" y1="246" x2="420" y2="274" stroke="black"/>
<line x1="540" y1="246" x2="540" y2="274" stroke="black"/>
<line x1="300" y1="257" x2="420" y2="257" stroke="black"/>
<polygon fill="black" points="420,257 410,263 410,251"/>
<polygon fill="white" points="337,247 381,247 381,256 337,256"/>
<text x="338" y="256" textLength="42" font-family="Helvetica" font-size="12" fill="black">
view(...)
</text>
<line x1="60" y1="274" x2="60" y2="302" stroke="black"/>
<line x1="180" y1="274" x2="180" y2="302" stroke="black"/>
<line x1="300" y1="274" x2="300" y2="302" stroke="black"/>
<line x1="420" y1="274" x2="420" y2="302" stroke="black"/>
<line x1="540" y1="274" x2="540" y2="302" stroke="black"/>
<path d="M 420 279 A60,6 0 0,1 420,291" stroke="black" fill="none"/><polygon fill="black" points="420,291 430,297 430,285"/>
<polygon fill="white" points="347,275 418,275 418,284 347,284"/>
<text x="348" y="284" textLength="69" font-family="Helvetica" font-size="12" fill="black">
viewElem(...)
</text>
<line x1="60" y1="302" x2="60" y2="330" stroke="black"/>
<line x1="180" y1="302" x2="180" y2="330" stroke="black"/>
<line x1="300" y1="302" x2="300" y2="330" stroke="black"/>
<line x1="420" y1="302" x2="420" y2="330" stroke="black"/>
<line x1="540" y1="302" x2="540" y2="330" stroke="black"/>
<line x1="420" y1="313" x2="60" y2="313" stroke="black"/>
<line x1="60" y1="313" x2="70" y2="319" stroke="black"/>
<polygon fill="white" points="176,303 303,303 303,312 176,312"/>
<text x="177" y="312" textLength="125" font-family="Helvetica" font-size="12" fill="black">
HTML element creation
</text>
<line x1="60" y1="330" x2="60" y2="358" stroke="black"/>
<line x1="180" y1="330" x2="180" y2="358" stroke="black"/>
<line x1="300" y1="330" x2="300" y2="358" stroke="black"/>
<line x1="420" y1="330" x2="420" y2="358" stroke="black"/>
<line x1="540" y1="330" x2="540" y2="358" stroke="black"/>
<line x1="420" y1="341" x2="300" y2="341" stroke="black" stroke-dasharray="2,2"/>
<polygon fill="black" points="300,341 310,347 310,335"/>
<polygon fill="white" points="343,331 376,331 376,340 343,340"/>
<text x="344" y="340" textLength="31" font-family="Helvetica" font-size="12" fill="black">
return
</text>
<line x1="60" y1="358" x2="60" y2="386" stroke="black"/>
<line x1="180" y1="358" x2="180" y2="386" stroke="black"/>
<line x1="300" y1="358" x2="300" y2="386" stroke="black"/>
<line x1="420" y1="358" x2="420" y2="386" stroke="black"/>
<line x1="540" y1="358" x2="540" y2="386" stroke="black"/>
<line x1="300" y1="369" x2="180" y2="369" stroke="black" stroke-dasharray="2,2"/>
<polygon fill="black" points="180,369 190,375 190,363"/>
<polygon fill="white" points="223,359 256,359 256,368 223,368"/>
<text x="224" y="368" textLength="31" font-family="Helvetica" font-size="12" fill="black">
return
</text>
<line x1="60" y1="386" x2="60" y2="403" stroke="black"/>
<line x1="180" y1="386" x2="180" y2="403" stroke="black"/>
<line x1="300" y1="386" x2="300" y2="403" stroke="black"/>
<line x1="420" y1="386" x2="420" y2="403" stroke="black"/>
<line x1="540" y1="386" x2="540" y2="403" stroke="black"/>
<line x1="60" y1="403" x2="60" y2="420" stroke="black" stroke-dasharray="2,2"/>
<line x1="180" y1="403" x2="180" y2="420" stroke="black" stroke-dasharray="2,2"/>
<line x1="300" y1="403" x2="300" y2="420" stroke="black" stroke-dasharray="2,2"/>
<line x1="420" y1="403" x2="420" y2="420" stroke="black" stroke-dasharray="2,2"/>
<line x1="540" y1="403" x2="540" y2="420" stroke="black" stroke-dasharray="2,2"/>
<line x1="60" y1="420" x2="60" y2="437" stroke="black"/>
<line x1="180" y1="420" x2="180" y2="437" stroke="black"/>
<line x1="300" y1="420" x2="300" y2="437" stroke="black"/>
<line x1="420" y1="420" x2="420" y2="437" stroke="black"/>
<line x1="540" y1="420" x2="540" y2="437" stroke="black"/>
<line x1="60" y1="437" x2="60" y2="465" stroke="black"/>
<line x1="180" y1="437" x2="180" y2="465" stroke="black"/>
<line x1="300" y1="437" x2="300" y2="465" stroke="black"/>
<line x1="420" y1="437" x2="420" y2="465" stroke="black"/>
<line x1="540" y1="437" x2="540" y2="465" stroke="black"/>
<line x1="60" y1="448" x2="420" y2="448" stroke="black"/>
<line x1="420" y1="448" x2="410" y2="454" stroke="black"/>
<polygon fill="white" points="206,438 273,438 273,447 206,447"/>
<text x="207" y="447" textLength="65" font-family="Helvetica" font-size="12" fill="black">
HTML event
</text>
<line x1="60" y1="465" x2="60" y2="493" stroke="black"/>
<line x1="180" y1="465" x2="180" y2="493" stroke="black"/>
<line x1="300" y1="465" x2="300" y2="493" stroke="black"/>
<line x1="420" y1="465" x2="420" y2="493" stroke="black"/>
<line x1="540" y1="465" x2="540" y2="493" stroke="black"/>
<path d="M 420 470 A60,6 0 0,1 420,482" stroke="black" fill="none"/><polygon fill="black" points="420,482 430,488 430,476"/>
<polygon fill="white" points="343,466 418,466 418,475 343,475"/>
<text x="344" y="475" textLength="73" font-family="Helvetica" font-size="12" fill="black">
event handler
</text>
<line x1="60" y1="493" x2="60" y2="521" stroke="black"/>
<line x1="180" y1="493" x2="180" y2="521" stroke="black"/>
<line x1="300" y1="493" x2="300" y2="521" stroke="black"/>
<line x1="420" y1="493" x2="420" y2="521" stroke="black"/>
<line x1="540" y1="493" x2="540" y2="521" stroke="black"/>
<line x1="420" y1="504" x2="300" y2="504" stroke="black"/>
<polygon fill="black" points="300,504 310,510 310,498"/>
<polygon fill="white" points="331,494 388,494 388,503 331,503"/>
<text x="332" y="503" textLength="55" font-family="Helvetica" font-size="12" fill="black">
update(...)
</text>
<line x1="60" y1="521" x2="60" y2="549" stroke="black"/>
<line x1="180" y1="521" x2="180" y2="549" stroke="black"/>
<line x1="300" y1="521" x2="300" y2="549" stroke="black"/>
<line x1="420" y1="521" x2="420" y2="549" stroke="black"/>
<line x1="540" y1="521" x2="540" y2="549" stroke="black"/>
<line x1="300" y1="532" x2="540" y2="532" stroke="black"/>
<line x1="540" y1="532" x2="530" y2="538" stroke="black"/>
<polygon fill="white" points="371,522 467,522 467,531 371,531"/>
<text x="372" y="531" textLength="94" font-family="Helvetica" font-size="12" fill="black">
API HTTP update
</text>
<line x1="60" y1="543" x2="60" y2="549" stroke="black"/>
<line x1="180" y1="543" x2="180" y2="549" stroke="black"/>
<line x1="300" y1="543" x2="300" y2="549" stroke="black"/>
<line x1="420" y1="543" x2="420" y2="549" stroke="black"/>
<line x1="540" y1="543" x2="540" y2="549" stroke="black"/>
</svg>
