<!DOCTYPE svg PUBLIC "-//W3C//DTD SVG 1.1//EN"
 "http://www.w3.org/Graphics/SVG/1.1/DTD/svg11.dtd">
<svg version="1.1"
 width="600px" height="308px"
 viewBox="0 0 600 308"
 xmlns="http://www.w3.org/2000/svg" shape-rendering="crispEdges"
 stroke-width="1" text-rendering="geometricPrecision">
<polygon fill="white" points="42,7 156,7 156,16 42,16"/>
<text x="100" y="16" textLength="113" font-family="Helvetica" font-size="12" fill="black" text-anchor="middle">

LayerCommunication
</text>
<polygon fill="white" points="273,7 325,7 325,16 273,16"/>
<text x="300" y="16" textLength="50" font-family="Helvetica" font-size="12" fill="black" text-anchor="middle">

professor
</text>
<polygon fill="white" points="487,7 511,7 511,16 487,16"/>
<text x="500" y="16" textLength="23" font-family="Helvetica" font-size="12" fill="black" text-anchor="middle">

next
</text>
<line x1="100" y1="22" x2="100" y2="39" stroke="black"/>
<line x1="300" y1="22" x2="300" y2="39" stroke="black"/>
<line x1="500" y1="22" x2="500" y2="39" stroke="black"/>
<line x1="100" y1="39" x2="100" y2="67" stroke="black"/>
<line x1="300" y1="39" x2="300" y2="67" stroke="black"/>
<line x1="500" y1="39" x2="500" y2="67" stroke="black"/>
<polygon fill="white" points="208,39 392,39 392,61 208,61"/>
<line x1="208" y1="39" x2="392" y2="39" stroke="black"/>
<line x1="208" y1="61" x2="392" y2="61" stroke="black"/>
<line x1="208" y1="39" x2="208" y2="61" stroke="black"/>
<line x1="392" y1="39" x2="392" y2="61" stroke="black"/>
<polygon fill="white" points="236,46 363,46 363,55 236,55"/>
<text x="237" y="55" textLength="125" font-family="Helvetica" font-size="12" fill="black">
ProfessorsModel object
</text>
<polygon fill="white" points="408,39 592,39 592,61 408,61"/>
<line x1="408" y1="39" x2="592" y2="39" stroke="black"/>
<line x1="408" y1="61" x2="592" y2="61" stroke="black"/>
<line x1="408" y1="39" x2="408" y2="61" stroke="black"/>
<line x1="592" y1="39" x2="592" y2="61" stroke="black"/>
<polygon fill="white" points="436,46 563,46 563,55 436,55"/>
<text x="437" y="55" textLength="125" font-family="Helvetica" font-size="12" fill="black">
ProfessorsModel object
</text>
<line x1="100" y1="67" x2="100" y2="95" stroke="black"/>
<line x1="300" y1="67" x2="300" y2="95" stroke="black"/>
<line x1="500" y1="67" x2="500" y2="95" stroke="black"/>
<line x1="100" y1="78" x2="300" y2="78" stroke="black"/>
<polygon fill="black" points="300,78 290,84 290,72"/>
<polygon fill="white" points="122,68 277,68 277,77 122,77"/>
<text x="123" y="77" textLength="153" font-family="Helvetica" font-size="12" fill="black">
otvechat($professor_zaproc)
</text>
<line x1="100" y1="95" x2="100" y2="123" stroke="black"/>
<line x1="300" y1="95" x2="300" y2="123" stroke="black"/>
<line x1="500" y1="95" x2="500" y2="123" stroke="black"/>
<path d="M 300 100 A100,6 0 0,1 300,112" stroke="black" fill="none"/><polygon fill="black" points="300,112 310,118 310,106"/>
<polygon fill="white" points="141,96 298,96 298,105 141,105"/>
<text x="142" y="105" textLength="155" font-family="Helvetica" font-size="12" fill="blue">
getValue($professor_zaproc)
</text>
<line x1="100" y1="123" x2="100" y2="151" stroke="black"/>
<line x1="300" y1="123" x2="300" y2="151" stroke="black"/>
<line x1="500" y1="123" x2="500" y2="151" stroke="black"/>
<line x1="300" y1="134" x2="100" y2="134" stroke="black" stroke-dasharray="2,2"/>
<polygon fill="black" points="100,134 110,140 110,128"/>
<polygon fill="white" points="166,124 232,124 232,133 166,133"/>
<text x="167" y="133" textLength="64" font-family="Helvetica" font-size="12" fill="black">
return string
</text>
<line x1="100" y1="151" x2="100" y2="168" stroke="black"/>
<line x1="300" y1="151" x2="300" y2="168" stroke="black"/>
<line x1="500" y1="151" x2="500" y2="168" stroke="black"/>
<line x1="100" y1="168" x2="100" y2="196" stroke="black"/>
<line x1="300" y1="168" x2="300" y2="196" stroke="black"/>
<line x1="500" y1="168" x2="500" y2="196" stroke="black"/>
<line x1="100" y1="179" x2="300" y2="179" stroke="black"/>
<polygon fill="black" points="300,179 290,185 290,173"/>
<polygon fill="white" points="127,169 272,169 272,178 127,178"/>
<text x="128" y="178" textLength="143" font-family="Helvetica" font-size="12" fill="black">
otvechat($drugo&#xef;_zaproc)
</text>
<line x1="100" y1="196" x2="100" y2="224" stroke="black"/>
<line x1="300" y1="196" x2="300" y2="224" stroke="black"/>
<line x1="500" y1="196" x2="500" y2="224" stroke="black"/>
<line x1="300" y1="207" x2="500" y2="207" stroke="black"/>
<polygon fill="black" points="500,207 490,213 490,201"/>
<polygon fill="white" points="310,197 489,197 489,206 310,206"/>
<text x="311" y="206" textLength="177" font-family="Helvetica" font-size="12" fill="black">
next-&gt;otvechat($drugo&#xef;_zaproc)
</text>
<line x1="100" y1="224" x2="100" y2="252" stroke="black"/>
<line x1="300" y1="224" x2="300" y2="252" stroke="black"/>
<line x1="500" y1="224" x2="500" y2="252" stroke="black"/>
<path d="M 500 229 A100,6 0 0,1 500,241" stroke="black" fill="none"/><polygon fill="black" points="500,241 510,247 510,235"/>
<polygon fill="white" points="358,225 498,225 498,234 358,234"/>
<text x="359" y="234" textLength="138" font-family="Helvetica" font-size="12" fill="black">
getValue($drugoi_zaproc)
</text>
<line x1="100" y1="252" x2="100" y2="280" stroke="black"/>
<line x1="300" y1="252" x2="300" y2="280" stroke="black"/>
<line x1="500" y1="252" x2="500" y2="280" stroke="black"/>
<line x1="500" y1="263" x2="300" y2="263" stroke="black" stroke-dasharray="2,2"/>
<polygon fill="black" points="300,263 310,269 310,257"/>
<polygon fill="white" points="366,253 432,253 432,262 366,262"/>
<text x="367" y="262" textLength="64" font-family="Helvetica" font-size="12" fill="black">
return string
</text>
<line x1="100" y1="280" x2="100" y2="308" stroke="black"/>
<line x1="300" y1="280" x2="300" y2="308" stroke="black"/>
<line x1="500" y1="280" x2="500" y2="308" stroke="black"/>
<line x1="300" y1="291" x2="100" y2="291" stroke="black" stroke-dasharray="2,2"/>
<polygon fill="black" points="100,291 110,297 110,285"/>
<polygon fill="white" points="166,281 232,281 232,290 166,290"/>
<text x="167" y="290" textLength="64" font-family="Helvetica" font-size="12" fill="black">
return string
</text>
<line x1="100" y1="302" x2="100" y2="308" stroke="black"/>
<line x1="300" y1="302" x2="300" y2="308" stroke="black"/>
<line x1="500" y1="302" x2="500" y2="308" stroke="black"/>
</svg>
