<!DOCTYPE svg PUBLIC "-//W3C//DTD SVG 1.1//EN"
 "http://www.w3.org/Graphics/SVG/1.1/DTD/svg11.dtd">
<svg version="1.1"
 width="600px" height="78px"
 viewBox="0 0 600 78"
 xmlns="http://www.w3.org/2000/svg" shape-rendering="crispEdges"
 stroke-width="1" text-rendering="geometricPrecision">
<polygon fill="white" points="126,7 172,7 172,16 126,16"/>
<text x="150" y="16" textLength="45" font-family="Helvetica" font-size="12" fill="black" text-anchor="middle">

Request
</text>
<polygon fill="white" points="406,7 492,7 492,16 406,16"/>
<text x="450" y="16" textLength="85" font-family="Helvetica" font-size="12" fill="black" text-anchor="middle">

MogetOtvetchat
</text>
<line x1="150" y1="22" x2="150" y2="50" stroke="black"/>
<line x1="450" y1="22" x2="450" y2="50" stroke="black"/>
<line x1="150" y1="33" x2="450" y2="33" stroke="black"/>
<line x1="450" y1="33" x2="440" y2="39" stroke="black"/>
<polygon fill="white" points="272,23 327,23 327,32 272,32"/>
<text x="273" y="32" textLength="53" font-family="Helvetica" font-size="12" fill="black">
otvechat()
</text>
<line x1="150" y1="50" x2="150" y2="78" stroke="black"/>
<line x1="450" y1="50" x2="450" y2="78" stroke="black"/>
<line x1="450" y1="61" x2="150" y2="61" stroke="black"/>
<line x1="150" y1="61" x2="160" y2="67" stroke="black"/>
<polygon fill="white" points="281,51 317,51 317,60 281,60"/>
<text x="282" y="60" textLength="34" font-family="Helvetica" font-size="12" fill="black">
fetch()
</text>
<line x1="150" y1="72" x2="150" y2="78" stroke="black"/>
<line x1="450" y1="72" x2="450" y2="78" stroke="black"/>
</svg>
