<!DOCTYPE svg PUBLIC "-//W3C//DTD SVG 1.1//EN"
 "http://www.w3.org/Graphics/SVG/1.1/DTD/svg11.dtd">
<svg version="1.1"
 width="1200px" height="162px"
 viewBox="0 0 1200 162"
 xmlns="http://www.w3.org/2000/svg" shape-rendering="crispEdges"
 stroke-width="1" text-rendering="geometricPrecision">
<polygon fill="white" points="135,7 163,7 163,16 135,16"/>
<text x="150" y="16" textLength="26" font-family="Helvetica" font-size="12" fill="black" text-anchor="middle">

Main
</text>
<polygon fill="white" points="426,7 472,7 472,16 426,16"/>
<text x="450" y="16" textLength="45" font-family="Helvetica" font-size="12" fill="black" text-anchor="middle">

Request
</text>
<polygon fill="white" points="730,7 768,7 768,16 730,16"/>
<text x="750" y="16" textLength="37" font-family="Helvetica" font-size="12" fill="black" text-anchor="middle">

Viewer
</text>
<polygon fill="white" points="1021,7 1077,7 1077,16 1021,16"/>
<text x="1050" y="16" textLength="55" font-family="Helvetica" font-size="12" fill="black" text-anchor="middle">

ListViewer
</text>
<line x1="150" y1="22" x2="150" y2="50" stroke="black"/>
<line x1="450" y1="22" x2="450" y2="50" stroke="black"/>
<line x1="750" y1="22" x2="750" y2="50" stroke="black"/>
<line x1="1050" y1="22" x2="1050" y2="50" stroke="black"/>
<line x1="150" y1="33" x2="1050" y2="33" stroke="black"/>
<line x1="1050" y1="33" x2="1040" y2="39" stroke="black"/>
<polygon fill="white" points="570,23 629,23 629,32 570,32"/>
<text x="571" y="32" textLength="57" font-family="Helvetica" font-size="12" fill="black">
instanciate
</text>
<line x1="150" y1="50" x2="150" y2="78" stroke="black"/>
<line x1="450" y1="50" x2="450" y2="78" stroke="black"/>
<line x1="750" y1="50" x2="750" y2="78" stroke="black"/>
<line x1="1050" y1="50" x2="1050" y2="78" stroke="black"/>
<line x1="150" y1="61" x2="450" y2="61" stroke="black"/>
<line x1="450" y1="61" x2="440" y2="67" stroke="black"/>
<polygon fill="white" points="214,51 385,51 385,60 214,60"/>
<text x="215" y="60" textLength="169" font-family="Helvetica" font-size="12" fill="black">
instantiate with the given viewer
</text>
<line x1="150" y1="78" x2="150" y2="106" stroke="black"/>
<line x1="450" y1="78" x2="450" y2="106" stroke="black"/>
<line x1="750" y1="78" x2="750" y2="106" stroke="black"/>
<line x1="1050" y1="78" x2="1050" y2="106" stroke="black"/>
<line x1="450" y1="89" x2="750" y2="89" stroke="black"/>
<polygon fill="black" points="750,89 740,95 740,83"/>
<polygon fill="white" points="582,79 616,79 616,88 582,88"/>
<text x="583" y="88" textLength="32" font-family="Helvetica" font-size="12" fill="black">
view()
</text>
<polygon fill="white" points="523,90 676,90 676,99 523,99"/>
<text x="524" y="99" textLength="151" font-family="Helvetica" font-size="12" fill="black">
(call to the generic interface)
</text>
<line x1="150" y1="106" x2="150" y2="134" stroke="black"/>
<line x1="450" y1="106" x2="450" y2="134" stroke="black"/>
<line x1="750" y1="106" x2="750" y2="134" stroke="black"/>
<line x1="1050" y1="106" x2="1050" y2="134" stroke="black"/>
<line x1="750" y1="117" x2="1050" y2="117" stroke="black"/>
<polygon fill="black" points="1050,117 1040,123 1040,111"/>
<polygon fill="white" points="882,107 916,107 916,116 882,116"/>
<text x="883" y="116" textLength="32" font-family="Helvetica" font-size="12" fill="black">
view()
</text>
<polygon fill="white" points="815,118 984,118 984,127 815,127"/>
<text x="816" y="127" textLength="167" font-family="Helvetica" font-size="12" fill="black">
(call to the real implementation)
</text>
<line x1="150" y1="134" x2="150" y2="162" stroke="black"/>
<line x1="450" y1="134" x2="450" y2="162" stroke="black"/>
<line x1="750" y1="134" x2="750" y2="162" stroke="black"/>
<line x1="1050" y1="134" x2="1050" y2="162" stroke="black"/>
<line x1="1050" y1="145" x2="450" y2="145" stroke="black" stroke-dasharray="2,2"/>
<polygon fill="black" points="450,145 460,151 460,139"/>
<polygon fill="white" points="734,135 765,135 765,144 734,144"/>
<text x="735" y="144" textLength="29" font-family="Helvetica" font-size="12" fill="black">
result
</text>
<line x1="150" y1="156" x2="150" y2="162" stroke="black"/>
<line x1="450" y1="156" x2="450" y2="162" stroke="black"/>
<line x1="750" y1="156" x2="750" y2="162" stroke="black"/>
<line x1="1050" y1="156" x2="1050" y2="162" stroke="black"/>
</svg>
