<!DOCTYPE svg PUBLIC "-//W3C//DTD SVG 1.1//EN"
 "http://www.w3.org/Graphics/SVG/1.1/DTD/svg11.dtd">
<svg version="1.1"
 width="600px" height="420px"
 viewBox="0 0 600 420"
 xmlns="http://www.w3.org/2000/svg" shape-rendering="crispEdges"
 stroke-width="1" text-rendering="geometricPrecision">
<polygon fill="white" points="2,7 116,7 116,16 2,16"/>
<text x="60" y="16" textLength="113" font-family="Helvetica" font-size="12" fill="black" text-anchor="middle">

LayerCommunication
</text>
<polygon fill="white" points="137,7 221,7 221,16 137,16"/>
<text x="180" y="16" textLength="83" font-family="Helvetica" font-size="12" fill="black" text-anchor="middle">

StudentAdapter
</text>
<polygon fill="white" points="278,7 320,7 320,16 278,16"/>
<text x="300" y="16" textLength="41" font-family="Helvetica" font-size="12" fill="black" text-anchor="middle">

Mapper
</text>
<polygon fill="white" points="384,7 454,7 454,16 384,16"/>
<text x="420" y="16" textLength="69" font-family="Helvetica" font-size="12" fill="black" text-anchor="middle">

TableModule
</text>
<polygon fill="white" points="513,7 565,7 565,16 513,16"/>
<text x="540" y="16" textLength="51" font-family="Helvetica" font-size="12" fill="black" text-anchor="middle">

Database
</text>
<line x1="60" y1="22" x2="60" y2="39" stroke="black"/>
<line x1="180" y1="22" x2="180" y2="39" stroke="black"/>
<line x1="300" y1="22" x2="300" y2="39" stroke="black"/>
<line x1="420" y1="22" x2="420" y2="39" stroke="black"/>
<line x1="540" y1="22" x2="540" y2="39" stroke="black"/>
<line x1="60" y1="39" x2="60" y2="67" stroke="black"/>
<line x1="180" y1="39" x2="180" y2="67" stroke="black"/>
<line x1="300" y1="39" x2="300" y2="67" stroke="black"/>
<line x1="420" y1="39" x2="420" y2="67" stroke="black"/>
<line x1="540" y1="39" x2="540" y2="67" stroke="black"/>
<line x1="60" y1="50" x2="180" y2="50" stroke="black"/>
<polygon fill="black" points="180,50 170,56 170,44"/>
<polygon fill="white" points="23,40 216,40 216,49 23,49"/>
<text x="24" y="49" textLength="191" font-family="Helvetica" font-size="12" fill="black">
MogetOtvetchat::otvetchat($zaproc)
</text>
<line x1="60" y1="67" x2="60" y2="95" stroke="black"/>
<line x1="180" y1="67" x2="180" y2="95" stroke="black"/>
<line x1="300" y1="67" x2="300" y2="95" stroke="black"/>
<line x1="420" y1="67" x2="420" y2="95" stroke="black"/>
<line x1="540" y1="67" x2="540" y2="95" stroke="black"/>
<line x1="180" y1="78" x2="300" y2="78" stroke="black"/>
<polygon fill="black" points="300,78 290,84 290,72"/>
<polygon fill="white" points="222,68 256,68 256,77 222,77"/>
<text x="223" y="77" textLength="32" font-family="Helvetica" font-size="12" fill="black">
read()
</text>
<line x1="60" y1="95" x2="60" y2="123" stroke="black"/>
<line x1="180" y1="95" x2="180" y2="123" stroke="black"/>
<line x1="300" y1="95" x2="300" y2="123" stroke="black"/>
<line x1="420" y1="95" x2="420" y2="123" stroke="black"/>
<line x1="540" y1="95" x2="540" y2="123" stroke="black"/>
<line x1="300" y1="106" x2="420" y2="106" stroke="black"/>
<line x1="420" y1="106" x2="410" y2="112" stroke="black"/>
<polygon fill="white" points="330,96 389,96 389,105 330,105"/>
<text x="331" y="105" textLength="57" font-family="Helvetica" font-size="12" fill="black">
instanciate
</text>
<line x1="60" y1="123" x2="60" y2="151" stroke="black"/>
<line x1="180" y1="123" x2="180" y2="151" stroke="black"/>
<line x1="300" y1="123" x2="300" y2="151" stroke="black"/>
<line x1="420" y1="123" x2="420" y2="151" stroke="black"/>
<line x1="540" y1="123" x2="540" y2="151" stroke="black"/>
<polygon fill="white" points="368,123 460,123 460,145 368,145"/>
<polygon fill="white" points="368,135 472,135 472,145 368,145"/>
<polygon fill="white" points="460,123 472,135 460,135"/>
<line x1="368" y1="123" x2="460" y2="123" stroke="black"/>
<line x1="368" y1="145" x2="472" y2="145" stroke="black"/>
<line x1="368" y1="123" x2="368" y2="145" stroke="black"/>
<line x1="472" y1="135" x2="472" y2="145" stroke="black"/>
<line x1="460" y1="123" x2="472" y2="135" stroke="black"/>
<line x1="460" y1="123" x2="460" y2="135" stroke="black"/>
<line x1="472" y1="135" x2="460" y2="135" stroke="black"/>
<polygon fill="white" points="385,130 454,130 454,139 385,139"/>
<text x="386" y="139" textLength="67" font-family="Helvetica" font-size="12" fill="black">
instanciation
</text>
<line x1="60" y1="151" x2="60" y2="179" stroke="black"/>
<line x1="180" y1="151" x2="180" y2="179" stroke="black"/>
<line x1="300" y1="151" x2="300" y2="179" stroke="black"/>
<line x1="420" y1="151" x2="420" y2="179" stroke="black"/>
<line x1="540" y1="151" x2="540" y2="179" stroke="black"/>
<path d="M 300 156 A60,6 0 0,1 300,168" stroke="black" fill="none"/><polygon fill="black" points="300,168 310,174 310,162"/>
<polygon fill="white" points="252,152 298,152 298,161 252,161"/>
<text x="253" y="161" textLength="44" font-family="Helvetica" font-size="12" fill="black">
fillModel
</text>
<line x1="60" y1="179" x2="60" y2="207" stroke="black"/>
<line x1="180" y1="179" x2="180" y2="207" stroke="black"/>
<line x1="300" y1="179" x2="300" y2="207" stroke="black"/>
<line x1="420" y1="179" x2="420" y2="207" stroke="black"/>
<line x1="540" y1="179" x2="540" y2="207" stroke="black"/>
<line x1="300" y1="190" x2="540" y2="190" stroke="black"/>
<line x1="540" y1="190" x2="530" y2="196" stroke="black"/>
<polygon fill="white" points="365,180 474,180 474,189 365,189"/>
<text x="366" y="189" textLength="107" font-family="Helvetica" font-size="12" fill="black">
SELECT * FROM ...
</text>
<line x1="60" y1="207" x2="60" y2="235" stroke="black"/>
<line x1="180" y1="207" x2="180" y2="235" stroke="black"/>
<line x1="300" y1="207" x2="300" y2="235" stroke="black"/>
<line x1="420" y1="207" x2="420" y2="235" stroke="black"/>
<line x1="540" y1="207" x2="540" y2="235" stroke="black"/>
<line x1="540" y1="218" x2="300" y2="218" stroke="black"/>
<line x1="300" y1="218" x2="310" y2="224" stroke="black"/>
<polygon fill="white" points="370,208 468,208 468,217 370,217"/>
<text x="371" y="217" textLength="96" font-family="Helvetica" font-size="12" fill="black">
SQL query results
</text>
<line x1="60" y1="235" x2="60" y2="263" stroke="black"/>
<line x1="180" y1="235" x2="180" y2="263" stroke="black"/>
<line x1="300" y1="235" x2="300" y2="263" stroke="black"/>
<line x1="420" y1="235" x2="420" y2="263" stroke="black"/>
<line x1="540" y1="235" x2="540" y2="263" stroke="black"/>
<line x1="300" y1="246" x2="420" y2="246" stroke="black"/>
<polygon fill="black" points="420,246 410,252 410,240"/>
<polygon fill="white" points="316,236 403,236 403,245 316,245"/>
<text x="317" y="245" textLength="85" font-family="Helvetica" font-size="12" fill="black">
add(array $row)
</text>
<line x1="60" y1="263" x2="60" y2="280" stroke="black" stroke-dasharray="2,2"/>
<line x1="180" y1="263" x2="180" y2="280" stroke="black" stroke-dasharray="2,2"/>
<line x1="300" y1="263" x2="300" y2="280" stroke="black" stroke-dasharray="2,2"/>
<line x1="420" y1="263" x2="420" y2="280" stroke="black" stroke-dasharray="2,2"/>
<line x1="540" y1="263" x2="540" y2="280" stroke="black" stroke-dasharray="2,2"/>
<line x1="60" y1="280" x2="60" y2="308" stroke="black"/>
<line x1="180" y1="280" x2="180" y2="308" stroke="black"/>
<line x1="300" y1="280" x2="300" y2="308" stroke="black"/>
<line x1="420" y1="280" x2="420" y2="308" stroke="black"/>
<line x1="540" y1="280" x2="540" y2="308" stroke="black"/>
<line x1="300" y1="291" x2="420" y2="291" stroke="black"/>
<polygon fill="black" points="420,291 410,297 410,285"/>
<polygon fill="white" points="316,281 403,281 403,290 316,290"/>
<text x="317" y="290" textLength="85" font-family="Helvetica" font-size="12" fill="black">
add(array $row)
</text>
<line x1="60" y1="308" x2="60" y2="336" stroke="black"/>
<line x1="180" y1="308" x2="180" y2="336" stroke="black"/>
<line x1="300" y1="308" x2="300" y2="336" stroke="black"/>
<line x1="420" y1="308" x2="420" y2="336" stroke="black"/>
<line x1="540" y1="308" x2="540" y2="336" stroke="black"/>
<line x1="300" y1="319" x2="420" y2="319" stroke="black"/>
<polygon fill="black" points="420,319 410,325 410,313"/>
<polygon fill="white" points="342,309 376,309 376,318 342,318"/>
<text x="343" y="318" textLength="32" font-family="Helvetica" font-size="12" fill="black">
view()
</text>
<line x1="60" y1="336" x2="60" y2="364" stroke="black"/>
<line x1="180" y1="336" x2="180" y2="364" stroke="black"/>
<line x1="300" y1="336" x2="300" y2="364" stroke="black"/>
<line x1="420" y1="336" x2="420" y2="364" stroke="black"/>
<line x1="540" y1="336" x2="540" y2="364" stroke="black"/>
<line x1="420" y1="347" x2="300" y2="347" stroke="black" stroke-dasharray="2,2"/>
<polygon fill="black" points="300,347 310,353 310,341"/>
<polygon fill="white" points="326,337 392,337 392,346 326,346"/>
<text x="327" y="346" textLength="64" font-family="Helvetica" font-size="12" fill="black">
return string
</text>
<line x1="60" y1="364" x2="60" y2="392" stroke="black"/>
<line x1="180" y1="364" x2="180" y2="392" stroke="black"/>
<line x1="300" y1="364" x2="300" y2="392" stroke="black"/>
<line x1="420" y1="364" x2="420" y2="392" stroke="black"/>
<line x1="540" y1="364" x2="540" y2="392" stroke="black"/>
<line x1="300" y1="375" x2="180" y2="375" stroke="black" stroke-dasharray="2,2"/>
<polygon fill="black" points="180,375 190,381 190,369"/>
<line x1="60" y1="392" x2="60" y2="420" stroke="black"/>
<line x1="180" y1="392" x2="180" y2="420" stroke="black"/>
<line x1="300" y1="392" x2="300" y2="420" stroke="black"/>
<line x1="420" y1="392" x2="420" y2="420" stroke="black"/>
<line x1="540" y1="392" x2="540" y2="420" stroke="black"/>
<line x1="180" y1="403" x2="60" y2="403" stroke="black" stroke-dasharray="2,2"/>
<polygon fill="black" points="60,403 70,409 70,397"/>
<line x1="60" y1="414" x2="60" y2="420" stroke="black"/>
<line x1="180" y1="414" x2="180" y2="420" stroke="black"/>
<line x1="300" y1="414" x2="300" y2="420" stroke="black"/>
<line x1="420" y1="414" x2="420" y2="420" stroke="black"/>
<line x1="540" y1="414" x2="540" y2="420" stroke="black"/>
</svg>
