<!DOCTYPE svg PUBLIC "-//W3C//DTD SVG 1.1//EN"
 "http://www.w3.org/Graphics/SVG/1.1/DTD/svg11.dtd">
<svg version="1.1"
 width="600px" height="297px"
 viewBox="0 0 600 297"
 xmlns="http://www.w3.org/2000/svg" shape-rendering="crispEdges"
 stroke-width="1" text-rendering="geometricPrecision">
<polygon fill="white" points="82,7 116,7 116,16 82,16"/>
<text x="100" y="16" textLength="33" font-family="Helvetica" font-size="12" fill="black" text-anchor="middle">

Model
</text>
<polygon fill="white" points="260,7 338,7 338,16 260,16"/>
<text x="300" y="16" textLength="77" font-family="Helvetica" font-size="12" fill="black" text-anchor="middle">

BasicGateway
</text>
<polygon fill="white" points="473,7 525,7 525,16 473,16"/>
<text x="500" y="16" textLength="51" font-family="Helvetica" font-size="12" fill="black" text-anchor="middle">

Database
</text>
<line x1="100" y1="22" x2="100" y2="39" stroke="black"/>
<line x1="300" y1="22" x2="300" y2="39" stroke="black"/>
<line x1="500" y1="22" x2="500" y2="39" stroke="black"/>
<line x1="100" y1="39" x2="100" y2="67" stroke="black"/>
<line x1="300" y1="39" x2="300" y2="67" stroke="black"/>
<line x1="500" y1="39" x2="500" y2="67" stroke="black"/>
<line x1="100" y1="50" x2="300" y2="50" stroke="black"/>
<polygon fill="black" points="300,50 290,56 290,44"/>
<polygon fill="white" points="138,40 261,40 261,49 138,49"/>
<text x="139" y="49" textLength="121" font-family="Helvetica" font-size="12" fill="blue">
BasicGateway::getAll()
</text>
<line x1="100" y1="67" x2="100" y2="95" stroke="black"/>
<line x1="300" y1="67" x2="300" y2="95" stroke="black"/>
<line x1="500" y1="67" x2="500" y2="95" stroke="black"/>
<line x1="300" y1="78" x2="500" y2="78" stroke="black"/>
<line x1="500" y1="78" x2="490" y2="84" stroke="black"/>
<polygon fill="white" points="345,68 454,68 454,77 345,77"/>
<text x="346" y="77" textLength="107" font-family="Helvetica" font-size="12" fill="black">
SELECT * FROM ...
</text>
<line x1="100" y1="95" x2="100" y2="123" stroke="black"/>
<line x1="300" y1="95" x2="300" y2="123" stroke="black"/>
<line x1="500" y1="95" x2="500" y2="123" stroke="black"/>
<line x1="500" y1="106" x2="300" y2="106" stroke="black"/>
<line x1="300" y1="106" x2="310" y2="112" stroke="black"/>
<polygon fill="white" points="370,96 429,96 429,105 370,105"/>
<text x="371" y="105" textLength="57" font-family="Helvetica" font-size="12" fill="black">
DB pointer
</text>
<line x1="100" y1="123" x2="100" y2="151" stroke="black"/>
<line x1="300" y1="123" x2="300" y2="151" stroke="black"/>
<line x1="500" y1="123" x2="500" y2="151" stroke="black"/>
<line x1="300" y1="134" x2="100" y2="134" stroke="black" stroke-dasharray="2,2"/>
<polygon fill="black" points="100,134 110,140 110,128"/>
<polygon fill="white" points="167,124 231,124 231,133 167,133"/>
<text x="168" y="133" textLength="62" font-family="Helvetica" font-size="12" fill="black">
return array
</text>
<line x1="100" y1="151" x2="100" y2="168" stroke="black" stroke-dasharray="2,2"/>
<line x1="300" y1="151" x2="300" y2="168" stroke="black" stroke-dasharray="2,2"/>
<line x1="500" y1="151" x2="500" y2="168" stroke="black" stroke-dasharray="2,2"/>
<line x1="100" y1="168" x2="100" y2="196" stroke="black"/>
<line x1="300" y1="168" x2="300" y2="196" stroke="black"/>
<line x1="500" y1="168" x2="500" y2="196" stroke="black"/>
<line x1="100" y1="179" x2="300" y2="179" stroke="black"/>
<polygon fill="black" points="300,179 290,185 290,173"/>
<polygon fill="white" points="136,169 263,169 263,178 136,178"/>
<text x="137" y="178" textLength="125" font-family="Helvetica" font-size="12" fill="blue">
BasicGateway::create()
</text>
<line x1="100" y1="196" x2="100" y2="224" stroke="black"/>
<line x1="300" y1="196" x2="300" y2="224" stroke="black"/>
<line x1="500" y1="196" x2="500" y2="224" stroke="black"/>
<line x1="300" y1="207" x2="500" y2="207" stroke="black"/>
<line x1="500" y1="207" x2="490" y2="213" stroke="black"/>
<polygon fill="white" points="354,197 445,197 445,206 354,206"/>
<text x="355" y="206" textLength="89" font-family="Helvetica" font-size="12" fill="black">
INSERT INTO ...
</text>
<line x1="100" y1="224" x2="100" y2="252" stroke="black"/>
<line x1="300" y1="224" x2="300" y2="252" stroke="black"/>
<line x1="500" y1="224" x2="500" y2="252" stroke="black"/>
<line x1="500" y1="235" x2="300" y2="235" stroke="black"/>
<line x1="300" y1="235" x2="310" y2="241" stroke="black"/>
<polygon fill="white" points="370,225 429,225 429,234 370,234"/>
<text x="371" y="234" textLength="57" font-family="Helvetica" font-size="12" fill="black">
DB pointer
</text>
<line x1="100" y1="252" x2="100" y2="280" stroke="black"/>
<line x1="300" y1="252" x2="300" y2="280" stroke="black"/>
<line x1="500" y1="252" x2="500" y2="280" stroke="black"/>
<line x1="300" y1="263" x2="100" y2="263" stroke="black" stroke-dasharray="2,2"/>
<polygon fill="black" points="100,263 110,269 110,257"/>
<polygon fill="white" points="167,253 231,253 231,262 167,262"/>
<text x="168" y="262" textLength="62" font-family="Helvetica" font-size="12" fill="black">
return array
</text>
<line x1="100" y1="280" x2="100" y2="297" stroke="black" stroke-dasharray="2,2"/>
<line x1="300" y1="280" x2="300" y2="297" stroke="black" stroke-dasharray="2,2"/>
<line x1="500" y1="280" x2="500" y2="297" stroke="black" stroke-dasharray="2,2"/>
<line x1="100" y1="291" x2="100" y2="297" stroke="black"/>
<line x1="300" y1="291" x2="300" y2="297" stroke="black"/>
<line x1="500" y1="291" x2="500" y2="297" stroke="black"/>
</svg>
