<!DOCTYPE svg PUBLIC "-//W3C//DTD SVG 1.1//EN"
 "http://www.w3.org/Graphics/SVG/1.1/DTD/svg11.dtd">
<svg version="1.1"
 width="600px" height="151px"
 viewBox="0 0 600 151"
 xmlns="http://www.w3.org/2000/svg" shape-rendering="crispEdges"
 stroke-width="1" text-rendering="geometricPrecision">
<polygon fill="white" points="76,7 122,7 122,16 76,16"/>
<text x="100" y="16" textLength="45" font-family="Helvetica" font-size="12" fill="black" text-anchor="middle">

Request
</text>
<polygon fill="white" points="242,7 356,7 356,16 242,16"/>
<text x="300" y="16" textLength="113" font-family="Helvetica" font-size="12" fill="black" text-anchor="middle">

LayerCommunication
</text>
<polygon fill="white" points="456,7 542,7 542,16 456,16"/>
<text x="500" y="16" textLength="85" font-family="Helvetica" font-size="12" fill="black" text-anchor="middle">

MogetOtvetchat
</text>
<line x1="100" y1="22" x2="100" y2="39" stroke="black"/>
<line x1="300" y1="22" x2="300" y2="39" stroke="black"/>
<line x1="500" y1="22" x2="500" y2="39" stroke="black"/>
<line x1="100" y1="39" x2="100" y2="67" stroke="black"/>
<line x1="300" y1="39" x2="300" y2="67" stroke="black"/>
<line x1="500" y1="39" x2="500" y2="67" stroke="black"/>
<line x1="100" y1="50" x2="300" y2="50" stroke="black"/>
<line x1="300" y1="50" x2="290" y2="56" stroke="black"/>
<polygon fill="white" points="161,40 238,40 238,49 161,49"/>
<text x="162" y="49" textLength="75" font-family="Helvetica" font-size="12" fill="black">
HTTP request
</text>
<line x1="100" y1="67" x2="100" y2="95" stroke="black"/>
<line x1="300" y1="67" x2="300" y2="95" stroke="black"/>
<line x1="500" y1="67" x2="500" y2="95" stroke="black"/>
<line x1="300" y1="78" x2="500" y2="78" stroke="black"/>
<polygon fill="black" points="500,78 490,84 490,72"/>
<polygon fill="white" points="303,68 496,68 496,77 303,77"/>
<text x="304" y="77" textLength="191" font-family="Helvetica" font-size="12" fill="black">
MogetOtvetchat::otvetchat($zaproc)
</text>
<line x1="100" y1="95" x2="100" y2="123" stroke="black"/>
<line x1="300" y1="95" x2="300" y2="123" stroke="black"/>
<line x1="500" y1="95" x2="500" y2="123" stroke="black"/>
<line x1="500" y1="106" x2="300" y2="106" stroke="black" stroke-dasharray="2,2"/>
<polygon fill="black" points="300,106 310,112 310,100"/>
<polygon fill="white" points="366,96 432,96 432,105 366,105"/>
<text x="367" y="105" textLength="64" font-family="Helvetica" font-size="12" fill="black">
return string
</text>
<line x1="100" y1="123" x2="100" y2="151" stroke="black"/>
<line x1="300" y1="123" x2="300" y2="151" stroke="black"/>
<line x1="500" y1="123" x2="500" y2="151" stroke="black"/>
<line x1="300" y1="134" x2="100" y2="134" stroke="black"/>
<line x1="100" y1="134" x2="110" y2="140" stroke="black"/>
<polygon fill="white" points="156,124 242,124 242,133 156,133"/>
<text x="157" y="133" textLength="84" font-family="Helvetica" font-size="12" fill="black">
HTTP response
</text>
<line x1="100" y1="145" x2="100" y2="151" stroke="black"/>
<line x1="300" y1="145" x2="300" y2="151" stroke="black"/>
<line x1="500" y1="145" x2="500" y2="151" stroke="black"/>
</svg>
