<!DOCTYPE svg PUBLIC "-//W3C//DTD SVG 1.1//EN"
 "http://www.w3.org/Graphics/SVG/1.1/DTD/svg11.dtd">
<svg version="1.1"
 width="1197px" height="543px"
 viewBox="0 0 1197 543"
 xmlns="http://www.w3.org/2000/svg" shape-rendering="crispEdges"
 stroke-width="1" text-rendering="geometricPrecision">
<polygon fill="white" points="61,7 107,7 107,16 61,16"/>
<text x="85" y="16" textLength="45" font-family="Helvetica" font-size="12" fill="black" text-anchor="middle">

&#xab;user&#xbb;
</text>
<polygon fill="white" points="63,18 105,18 105,27 63,27"/>
<text x="85" y="27" textLength="41" font-family="Helvetica" font-size="12" fill="black" text-anchor="middle">

Student
</text>
<polygon fill="white" points="217,18 293,18 293,27 217,27"/>
<text x="256" y="27" textLength="75" font-family="Helvetica" font-size="12" fill="blue" text-anchor="middle">

User Interface
</text>
<polygon fill="white" points="369,18 483,18 483,27 369,27"/>
<text x="427" y="27" textLength="113" font-family="Helvetica" font-size="12" fill="black" text-anchor="middle">

LayerCommunication
</text>
<polygon fill="white" points="555,18 639,18 639,27 555,27"/>
<text x="598" y="27" textLength="83" font-family="Helvetica" font-size="12" fill="black" text-anchor="middle">

StudentAdapter
</text>
<polygon fill="white" points="747,18 789,18 789,27 747,27"/>
<text x="769" y="27" textLength="41" font-family="Helvetica" font-size="12" fill="black" text-anchor="middle">

Mapper
</text>
<polygon fill="white" points="904,18 974,18 974,27 904,27"/>
<text x="940" y="27" textLength="69" font-family="Helvetica" font-size="12" fill="black" text-anchor="middle">

TableModule
</text>
<polygon fill="white" points="1084,18 1136,18 1136,27 1084,27"/>
<text x="1111" y="27" textLength="51" font-family="Helvetica" font-size="12" fill="black" text-anchor="middle">

Database
</text>
<line x1="85" y1="33" x2="85" y2="50" stroke="black"/>
<line x1="256" y1="33" x2="256" y2="50" stroke="black"/>
<line x1="427" y1="33" x2="427" y2="50" stroke="black"/>
<line x1="598" y1="33" x2="598" y2="50" stroke="black"/>
<line x1="769" y1="33" x2="769" y2="50" stroke="black"/>
<line x1="940" y1="33" x2="940" y2="50" stroke="black"/>
<line x1="1111" y1="33" x2="1111" y2="50" stroke="black"/>
<line x1="85" y1="50" x2="85" y2="78" stroke="black"/>
<line x1="256" y1="50" x2="256" y2="78" stroke="black"/>
<line x1="427" y1="50" x2="427" y2="78" stroke="black"/>
<line x1="598" y1="50" x2="598" y2="78" stroke="black"/>
<line x1="769" y1="50" x2="769" y2="78" stroke="black"/>
<line x1="940" y1="50" x2="940" y2="78" stroke="black"/>
<line x1="1111" y1="50" x2="1111" y2="78" stroke="black"/>
<line x1="85" y1="61" x2="256" y2="61" stroke="black"/>
<line x1="256" y1="61" x2="246" y2="67" stroke="black"/>
<line x1="85" y1="78" x2="85" y2="106" stroke="black"/>
<line x1="256" y1="78" x2="256" y2="106" stroke="black"/>
<line x1="427" y1="78" x2="427" y2="106" stroke="black"/>
<line x1="598" y1="78" x2="598" y2="106" stroke="black"/>
<line x1="769" y1="78" x2="769" y2="106" stroke="black"/>
<line x1="940" y1="78" x2="940" y2="106" stroke="black"/>
<line x1="1111" y1="78" x2="1111" y2="106" stroke="black"/>
<line x1="256" y1="89" x2="427" y2="89" stroke="black"/>
<line x1="427" y1="89" x2="417" y2="95" stroke="black"/>
<polygon fill="white" points="303,79 380,79 380,88 303,88"/>
<text x="304" y="88" textLength="75" font-family="Helvetica" font-size="12" fill="black">
HTTP request
</text>
<polygon fill="white" points="269,90 413,90 413,99 269,99"/>
<text x="270" y="99" textLength="142" font-family="Helvetica" font-size="12" fill="black">
api.php?student=discipline
</text>
<line x1="85" y1="106" x2="85" y2="134" stroke="black"/>
<line x1="256" y1="106" x2="256" y2="134" stroke="black"/>
<line x1="427" y1="106" x2="427" y2="134" stroke="black"/>
<line x1="598" y1="106" x2="598" y2="134" stroke="black"/>
<line x1="769" y1="106" x2="769" y2="134" stroke="black"/>
<line x1="940" y1="106" x2="940" y2="134" stroke="black"/>
<line x1="1111" y1="106" x2="1111" y2="134" stroke="black"/>
<line x1="427" y1="117" x2="598" y2="117" stroke="black"/>
<polygon fill="black" points="598,117 588,123 588,111"/>
<polygon fill="white" points="416,107 609,107 609,116 416,116"/>
<text x="417" y="116" textLength="191" font-family="Helvetica" font-size="12" fill="black">
MogetOtvetchat::otvetchat($zaproc)
</text>
<line x1="85" y1="134" x2="85" y2="162" stroke="black"/>
<line x1="256" y1="134" x2="256" y2="162" stroke="black"/>
<line x1="427" y1="134" x2="427" y2="162" stroke="black"/>
<line x1="598" y1="134" x2="598" y2="162" stroke="black"/>
<line x1="769" y1="134" x2="769" y2="162" stroke="black"/>
<line x1="940" y1="134" x2="940" y2="162" stroke="black"/>
<line x1="1111" y1="134" x2="1111" y2="162" stroke="black"/>
<line x1="598" y1="145" x2="769" y2="145" stroke="black"/>
<polygon fill="black" points="769,145 759,151 759,139"/>
<polygon fill="white" points="666,135 700,135 700,144 666,144"/>
<text x="667" y="144" textLength="32" font-family="Helvetica" font-size="12" fill="black">
read()
</text>
<line x1="85" y1="162" x2="85" y2="190" stroke="black"/>
<line x1="256" y1="162" x2="256" y2="190" stroke="black"/>
<line x1="427" y1="162" x2="427" y2="190" stroke="black"/>
<line x1="598" y1="162" x2="598" y2="190" stroke="black"/>
<line x1="769" y1="162" x2="769" y2="190" stroke="black"/>
<line x1="940" y1="162" x2="940" y2="190" stroke="black"/>
<line x1="1111" y1="162" x2="1111" y2="190" stroke="black"/>
<line x1="769" y1="173" x2="940" y2="173" stroke="black"/>
<line x1="940" y1="173" x2="930" y2="179" stroke="black"/>
<polygon fill="white" points="825,163 884,163 884,172 825,172"/>
<text x="826" y="172" textLength="57" font-family="Helvetica" font-size="12" fill="black">
instanciate
</text>
<line x1="85" y1="190" x2="85" y2="218" stroke="black"/>
<line x1="256" y1="190" x2="256" y2="218" stroke="black"/>
<line x1="427" y1="190" x2="427" y2="218" stroke="black"/>
<line x1="598" y1="190" x2="598" y2="218" stroke="black"/>
<line x1="769" y1="190" x2="769" y2="218" stroke="black"/>
<line x1="940" y1="190" x2="940" y2="218" stroke="black"/>
<line x1="1111" y1="190" x2="1111" y2="218" stroke="black"/>
<polygon fill="white" points="863,190 1006,190 1006,212 863,212"/>
<polygon fill="white" points="863,202 1018,202 1018,212 863,212"/>
<polygon fill="white" points="1006,190 1018,202 1006,202"/>
<line x1="863" y1="190" x2="1006" y2="190" stroke="black"/>
<line x1="863" y1="212" x2="1018" y2="212" stroke="black"/>
<line x1="863" y1="190" x2="863" y2="212" stroke="black"/>
<line x1="1018" y1="202" x2="1018" y2="212" stroke="black"/>
<line x1="1006" y1="190" x2="1018" y2="202" stroke="black"/>
<line x1="1006" y1="190" x2="1006" y2="202" stroke="black"/>
<line x1="1018" y1="202" x2="1006" y2="202" stroke="black"/>
<polygon fill="white" points="905,197 974,197 974,206 905,206"/>
<text x="906" y="206" textLength="67" font-family="Helvetica" font-size="12" fill="black">
instanciation
</text>
<line x1="85" y1="218" x2="85" y2="246" stroke="black"/>
<line x1="256" y1="218" x2="256" y2="246" stroke="black"/>
<line x1="427" y1="218" x2="427" y2="246" stroke="black"/>
<line x1="598" y1="218" x2="598" y2="246" stroke="black"/>
<line x1="769" y1="218" x2="769" y2="246" stroke="black"/>
<line x1="940" y1="218" x2="940" y2="246" stroke="black"/>
<line x1="1111" y1="218" x2="1111" y2="246" stroke="black"/>
<path d="M 769 223 A85,6 0 0,1 769,235" stroke="black" fill="none"/><polygon fill="black" points="769,235 779,241 779,229"/>
<polygon fill="white" points="721,219 767,219 767,228 721,228"/>
<text x="722" y="228" textLength="44" font-family="Helvetica" font-size="12" fill="black">
fillModel
</text>
<line x1="85" y1="246" x2="85" y2="274" stroke="black"/>
<line x1="256" y1="246" x2="256" y2="274" stroke="black"/>
<line x1="427" y1="246" x2="427" y2="274" stroke="black"/>
<line x1="598" y1="246" x2="598" y2="274" stroke="black"/>
<line x1="769" y1="246" x2="769" y2="274" stroke="black"/>
<line x1="940" y1="246" x2="940" y2="274" stroke="black"/>
<line x1="1111" y1="246" x2="1111" y2="274" stroke="black"/>
<line x1="769" y1="257" x2="1111" y2="257" stroke="black"/>
<line x1="1111" y1="257" x2="1101" y2="263" stroke="black"/>
<polygon fill="white" points="885,247 994,247 994,256 885,256"/>
<text x="886" y="256" textLength="107" font-family="Helvetica" font-size="12" fill="black">
SELECT * FROM ...
</text>
<line x1="85" y1="274" x2="85" y2="302" stroke="black"/>
<line x1="256" y1="274" x2="256" y2="302" stroke="black"/>
<line x1="427" y1="274" x2="427" y2="302" stroke="black"/>
<line x1="598" y1="274" x2="598" y2="302" stroke="black"/>
<line x1="769" y1="274" x2="769" y2="302" stroke="black"/>
<line x1="940" y1="274" x2="940" y2="302" stroke="black"/>
<line x1="1111" y1="274" x2="1111" y2="302" stroke="black"/>
<line x1="1111" y1="285" x2="769" y2="285" stroke="black"/>
<line x1="769" y1="285" x2="779" y2="291" stroke="black"/>
<polygon fill="white" points="890,275 988,275 988,284 890,284"/>
<text x="891" y="284" textLength="96" font-family="Helvetica" font-size="12" fill="black">
SQL query results
</text>
<line x1="85" y1="302" x2="85" y2="330" stroke="black"/>
<line x1="256" y1="302" x2="256" y2="330" stroke="black"/>
<line x1="427" y1="302" x2="427" y2="330" stroke="black"/>
<line x1="598" y1="302" x2="598" y2="330" stroke="black"/>
<line x1="769" y1="302" x2="769" y2="330" stroke="black"/>
<line x1="940" y1="302" x2="940" y2="330" stroke="black"/>
<line x1="1111" y1="302" x2="1111" y2="330" stroke="black"/>
<line x1="769" y1="313" x2="940" y2="313" stroke="black"/>
<polygon fill="black" points="940,313 930,319 930,307"/>
<polygon fill="white" points="811,303 898,303 898,312 811,312"/>
<text x="812" y="312" textLength="85" font-family="Helvetica" font-size="12" fill="black">
add(array $row)
</text>
<line x1="85" y1="330" x2="85" y2="347" stroke="black" stroke-dasharray="2,2"/>
<line x1="256" y1="330" x2="256" y2="347" stroke="black" stroke-dasharray="2,2"/>
<line x1="427" y1="330" x2="427" y2="347" stroke="black" stroke-dasharray="2,2"/>
<line x1="598" y1="330" x2="598" y2="347" stroke="black" stroke-dasharray="2,2"/>
<line x1="769" y1="330" x2="769" y2="347" stroke="black" stroke-dasharray="2,2"/>
<line x1="940" y1="330" x2="940" y2="347" stroke="black" stroke-dasharray="2,2"/>
<line x1="1111" y1="330" x2="1111" y2="347" stroke="black" stroke-dasharray="2,2"/>
<line x1="85" y1="347" x2="85" y2="375" stroke="black"/>
<line x1="256" y1="347" x2="256" y2="375" stroke="black"/>
<line x1="427" y1="347" x2="427" y2="375" stroke="black"/>
<line x1="598" y1="347" x2="598" y2="375" stroke="black"/>
<line x1="769" y1="347" x2="769" y2="375" stroke="black"/>
<line x1="940" y1="347" x2="940" y2="375" stroke="black"/>
<line x1="1111" y1="347" x2="1111" y2="375" stroke="black"/>
<line x1="769" y1="358" x2="940" y2="358" stroke="black"/>
<polygon fill="black" points="940,358 930,364 930,352"/>
<polygon fill="white" points="811,348 898,348 898,357 811,357"/>
<text x="812" y="357" textLength="85" font-family="Helvetica" font-size="12" fill="black">
add(array $row)
</text>
<line x1="85" y1="375" x2="85" y2="403" stroke="black"/>
<line x1="256" y1="375" x2="256" y2="403" stroke="black"/>
<line x1="427" y1="375" x2="427" y2="403" stroke="black"/>
<line x1="598" y1="375" x2="598" y2="403" stroke="black"/>
<line x1="769" y1="375" x2="769" y2="403" stroke="black"/>
<line x1="940" y1="375" x2="940" y2="403" stroke="black"/>
<line x1="1111" y1="375" x2="1111" y2="403" stroke="black"/>
<line x1="769" y1="386" x2="940" y2="386" stroke="black"/>
<polygon fill="black" points="940,386 930,392 930,380"/>
<polygon fill="white" points="837,376 871,376 871,385 837,385"/>
<text x="838" y="385" textLength="32" font-family="Helvetica" font-size="12" fill="black">
view()
</text>
<line x1="85" y1="403" x2="85" y2="431" stroke="black"/>
<line x1="256" y1="403" x2="256" y2="431" stroke="black"/>
<line x1="427" y1="403" x2="427" y2="431" stroke="black"/>
<line x1="598" y1="403" x2="598" y2="431" stroke="black"/>
<line x1="769" y1="403" x2="769" y2="431" stroke="black"/>
<line x1="940" y1="403" x2="940" y2="431" stroke="black"/>
<line x1="1111" y1="403" x2="1111" y2="431" stroke="black"/>
<line x1="940" y1="414" x2="769" y2="414" stroke="black" stroke-dasharray="2,2"/>
<polygon fill="black" points="769,414 779,420 779,408"/>
<polygon fill="white" points="821,404 887,404 887,413 821,413"/>
<text x="822" y="413" textLength="64" font-family="Helvetica" font-size="12" fill="black">
return string
</text>
<line x1="85" y1="431" x2="85" y2="459" stroke="black"/>
<line x1="256" y1="431" x2="256" y2="459" stroke="black"/>
<line x1="427" y1="431" x2="427" y2="459" stroke="black"/>
<line x1="598" y1="431" x2="598" y2="459" stroke="black"/>
<line x1="769" y1="431" x2="769" y2="459" stroke="black"/>
<line x1="940" y1="431" x2="940" y2="459" stroke="black"/>
<line x1="1111" y1="431" x2="1111" y2="459" stroke="black"/>
<line x1="769" y1="442" x2="598" y2="442" stroke="black" stroke-dasharray="2,2"/>
<polygon fill="black" points="598,442 608,448 608,436"/>
<line x1="85" y1="459" x2="85" y2="487" stroke="black"/>
<line x1="256" y1="459" x2="256" y2="487" stroke="black"/>
<line x1="427" y1="459" x2="427" y2="487" stroke="black"/>
<line x1="598" y1="459" x2="598" y2="487" stroke="black"/>
<line x1="769" y1="459" x2="769" y2="487" stroke="black"/>
<line x1="940" y1="459" x2="940" y2="487" stroke="black"/>
<line x1="1111" y1="459" x2="1111" y2="487" stroke="black"/>
<line x1="598" y1="470" x2="427" y2="470" stroke="black" stroke-dasharray="2,2"/>
<polygon fill="black" points="427,470 437,476 437,464"/>
<line x1="85" y1="487" x2="85" y2="515" stroke="black"/>
<line x1="256" y1="487" x2="256" y2="515" stroke="black"/>
<line x1="427" y1="487" x2="427" y2="515" stroke="black"/>
<line x1="598" y1="487" x2="598" y2="515" stroke="black"/>
<line x1="769" y1="487" x2="769" y2="515" stroke="black"/>
<line x1="940" y1="487" x2="940" y2="515" stroke="black"/>
<line x1="1111" y1="487" x2="1111" y2="515" stroke="black"/>
<line x1="427" y1="498" x2="256" y2="498" stroke="black"/>
<line x1="256" y1="498" x2="266" y2="504" stroke="black"/>
<polygon fill="white" points="298,488 384,488 384,497 298,497"/>
<text x="299" y="497" textLength="84" font-family="Helvetica" font-size="12" fill="black">
HTTP response
</text>
<polygon fill="white" points="318,499 365,499 365,508 318,508"/>
<text x="319" y="508" textLength="45" font-family="Helvetica" font-size="12" fill="black">
text/html
</text>
<line x1="85" y1="515" x2="85" y2="543" stroke="black"/>
<line x1="256" y1="515" x2="256" y2="543" stroke="black"/>
<line x1="427" y1="515" x2="427" y2="543" stroke="black"/>
<line x1="598" y1="515" x2="598" y2="543" stroke="black"/>
<line x1="769" y1="515" x2="769" y2="543" stroke="black"/>
<line x1="940" y1="515" x2="940" y2="543" stroke="black"/>
<line x1="1111" y1="515" x2="1111" y2="543" stroke="black"/>
<line x1="256" y1="526" x2="85" y2="526" stroke="black"/>
<line x1="85" y1="526" x2="95" y2="532" stroke="black"/>
<line x1="85" y1="537" x2="85" y2="543" stroke="black"/>
<line x1="256" y1="537" x2="256" y2="543" stroke="black"/>
<line x1="427" y1="537" x2="427" y2="543" stroke="black"/>
<line x1="598" y1="537" x2="598" y2="543" stroke="black"/>
<line x1="769" y1="537" x2="769" y2="543" stroke="black"/>
<line x1="940" y1="537" x2="940" y2="543" stroke="black"/>
<line x1="1111" y1="537" x2="1111" y2="543" stroke="black"/>
</svg>
